{"glyphs":{"0":{"ha":743,"x_min":54,"x_max":688,"o":"m 369 981 q 592 863 496 981 q 688 486 688 746 q 592 109 688 226 q 369 -8 496 -8 q 149 109 244 -8 q 54 486 54 226 q 149 863 54 746 q 369 981 244 981 m 369 881 q 233 792 294 881 q 172 486 172 704 q 233 180 172 268 q 369 92 294 92 q 507 180 444 92 q 569 486 569 268 q 507 792 569 704 q 369 881 444 881 z "},"1":{"ha":743,"x_min":56,"x_max":679,"o":"m 403 975 q 432 967 418 975 q 446 946 446 958 l 446 100 l 651 100 q 679 58 679 100 l 679 42 q 651 0 679 0 l 88 0 q 60 42 60 0 l 60 58 q 88 100 60 100 l 329 100 l 329 849 l 83 807 q 63 833 69 807 q 56 878 56 858 q 81 904 56 897 l 403 975 z "},"2":{"ha":743,"x_min":71,"x_max":657,"o":"m 353 981 q 569 917 489 981 q 649 744 649 854 q 628 624 649 678 q 539 483 607 571 q 331 222 471 394 l 229 99 l 629 99 q 657 57 657 99 l 657 42 q 629 0 657 0 l 99 0 q 78 21 86 0 q 71 61 71 42 q 76 85 71 79 l 435 535 q 515 656 500 621 q 529 736 529 692 q 483 842 529 803 q 356 881 436 881 q 213 845 261 881 q 147 810 165 810 q 119 837 136 810 q 103 879 103 864 q 148 931 103 908 q 252 967 193 954 q 353 981 311 981 z "},"3":{"ha":743,"x_min":63,"x_max":651,"o":"m 339 981 q 541 919 463 981 q 619 735 619 858 q 576 613 619 661 q 476 543 532 565 l 476 538 q 595 456 539 521 q 651 282 651 392 q 603 111 651 175 q 483 19 554 47 q 342 -8 411 -8 q 198 4 261 -8 q 99 35 135 17 q 63 71 63 53 q 81 115 63 90 q 111 140 100 140 q 184 116 131 140 q 331 92 238 92 q 462 131 393 92 q 531 283 531 169 q 474 428 531 389 q 322 467 417 467 l 276 467 q 249 508 249 467 l 249 524 q 276 565 249 565 l 317 565 q 463 631 424 565 q 501 747 501 697 q 469 833 501 786 q 336 881 438 881 q 198 858 242 881 q 136 835 154 835 q 108 863 125 835 q 90 907 90 892 q 135 944 90 928 q 238 971 179 961 q 339 981 297 981 z "},"4":{"ha":743,"x_min":25,"x_max":717,"o":"m 554 975 q 596 944 596 975 l 596 332 l 689 332 q 717 290 717 332 l 717 274 q 689 232 717 232 l 596 232 l 596 28 q 554 -3 596 -3 l 522 -3 q 481 28 481 -3 l 481 232 l 58 232 q 36 258 47 232 q 25 303 25 283 q 28 318 25 315 l 485 956 q 504 970 492 965 q 532 975 517 975 l 554 975 m 475 776 l 163 332 l 481 332 l 481 774 l 475 776 z "},"5":{"ha":743,"x_min":65,"x_max":658,"o":"m 569 972 q 597 931 597 972 l 597 914 q 569 872 597 872 l 268 872 l 250 586 l 322 586 q 475 560 397 586 q 606 472 553 535 q 658 296 658 408 q 608 109 658 175 q 480 17 557 43 q 325 -8 403 -8 q 138 20 210 -8 q 65 75 65 49 q 84 119 65 94 q 114 144 103 144 q 183 118 133 144 q 324 92 233 92 q 474 142 408 92 q 539 296 539 193 q 475 438 539 389 q 289 486 411 486 l 171 486 q 132 528 132 486 l 156 931 q 200 972 157 972 l 569 972 z "},"6":{"ha":743,"x_min":71,"x_max":667,"o":"m 522 975 q 556 944 544 975 q 568 901 568 914 q 557 886 568 890 q 331 731 415 828 q 214 517 247 633 q 292 549 246 536 q 401 563 338 563 q 535 528 475 563 q 631 430 596 493 q 667 282 667 367 q 626 129 667 194 q 518 28 586 64 q 367 -7 450 -7 q 202 35 268 -7 q 103 155 136 76 q 71 343 71 233 q 108 563 71 464 q 202 739 144 663 q 323 868 260 815 q 440 948 386 921 q 522 975 494 975 m 367 463 q 267 447 311 463 q 193 415 222 432 q 190 373 192 394 q 188 332 188 351 q 248 140 188 186 q 374 93 308 93 q 490 137 431 93 q 549 276 549 181 q 492 420 549 378 q 367 463 436 463 z "},"7":{"ha":743,"x_min":76,"x_max":681,"o":"m 653 972 q 671 947 661 972 q 681 901 681 922 q 678 886 681 894 l 267 19 q 211 -3 256 -3 l 194 -3 q 135 22 135 -3 q 140 39 135 25 l 542 872 l 104 872 q 76 914 76 872 l 76 931 q 104 972 76 972 l 653 972 z "},"8":{"ha":743,"x_min":71,"x_max":672,"o":"m 374 981 q 562 919 483 981 q 640 740 640 858 q 601 606 640 656 q 506 529 561 556 q 623 447 574 499 q 672 281 672 394 q 584 62 672 132 q 371 -8 496 -8 q 158 62 246 -8 q 71 281 71 132 q 116 444 71 392 q 225 528 161 497 q 143 609 176 557 q 110 740 110 661 q 187 919 110 858 q 374 981 264 981 m 318 486 q 228 408 265 456 q 190 281 190 361 q 244 139 190 186 q 371 92 297 92 q 499 139 444 92 q 553 281 553 186 q 517 387 553 350 q 428 444 482 424 q 318 486 375 464 m 374 881 q 269 847 313 881 q 226 740 226 814 q 280 624 226 657 q 404 567 333 590 q 489 638 454 596 q 524 740 524 679 q 479 847 524 814 q 374 881 435 881 z "},"9":{"ha":743,"x_min":76,"x_max":672,"o":"m 376 979 q 541 938 475 979 q 640 817 607 896 q 672 629 672 739 q 635 409 672 508 q 541 233 599 310 q 420 104 483 157 q 303 24 357 51 q 221 -3 249 -3 q 187 28 199 -3 q 175 71 175 58 q 186 86 175 82 q 412 242 328 144 q 529 456 496 339 q 451 423 497 436 q 342 410 406 410 q 208 444 268 410 q 112 542 147 479 q 76 690 76 606 q 117 843 76 778 q 224 944 157 908 q 376 979 292 979 m 369 879 q 254 835 314 879 q 194 696 194 792 q 251 552 194 594 q 376 510 308 510 q 476 525 432 510 q 550 557 521 540 q 554 599 553 578 q 556 640 556 621 q 495 833 556 786 q 369 879 435 879 z "},"A":{"ha":851,"x_min":17,"x_max":835,"o":"m 446 975 q 501 953 494 975 l 831 39 q 835 21 835 28 q 775 -3 835 -3 l 764 -3 q 708 19 715 -3 l 626 247 l 218 247 l 139 19 q 83 -3 132 -3 l 76 -3 q 17 21 17 -3 q 21 40 17 28 l 350 953 q 406 975 357 975 l 446 975 m 426 847 l 424 847 q 415 807 419 828 q 403 767 410 786 l 257 353 l 589 353 l 443 767 q 433 807 436 786 q 426 847 429 828 z "},"Á":{"ha":851,"x_min":17,"x_max":835,"o":"m 446 975 q 501 953 494 975 l 831 39 q 835 21 835 28 q 775 -3 835 -3 l 764 -3 q 708 19 715 -3 l 626 247 l 218 247 l 139 19 q 83 -3 132 -3 l 76 -3 q 17 21 17 -3 q 21 40 17 28 l 350 953 q 406 975 357 975 l 446 975 m 426 847 l 424 847 q 415 807 419 828 q 403 767 410 786 l 257 353 l 589 353 l 443 767 q 433 807 436 786 q 426 847 429 828 m 538 1263 q 604 1244 604 1263 q 596 1225 604 1238 q 560 1181 588 1213 q 474 1083 532 1150 q 444 1065 463 1071 q 403 1058 425 1058 q 371 1072 371 1058 q 388 1113 371 1082 q 451 1226 404 1143 q 483 1254 463 1246 q 538 1263 504 1263 z "},"Ă":{"ha":851,"x_min":17,"x_max":835,"o":"m 446 975 q 501 953 494 975 l 831 39 q 835 21 835 28 q 775 -3 835 -3 l 764 -3 q 708 19 715 -3 l 626 247 l 218 247 l 139 19 q 83 -3 132 -3 l 76 -3 q 17 21 17 -3 q 21 40 17 28 l 350 953 q 406 975 357 975 l 446 975 m 426 847 l 424 847 q 415 807 419 828 q 403 767 410 786 l 257 353 l 589 353 l 443 767 q 433 807 436 786 q 426 847 429 828 m 607 1239 q 628 1218 628 1239 q 565 1098 628 1138 q 428 1058 501 1058 q 290 1098 353 1058 q 226 1218 226 1138 q 247 1239 226 1239 q 267 1230 265 1239 q 278 1204 269 1221 q 335 1163 293 1175 q 428 1150 376 1150 q 520 1163 479 1150 q 576 1204 561 1175 q 587 1230 585 1221 q 607 1239 589 1239 z "},"Ắ":{"ha":851,"x_min":17,"x_max":835,"o":"m 446 975 q 501 953 494 975 l 831 39 q 835 21 835 28 q 775 -3 835 -3 l 764 -3 q 708 19 715 -3 l 626 247 l 218 247 l 139 19 q 83 -3 132 -3 l 76 -3 q 17 21 17 -3 q 21 40 17 28 l 350 953 q 406 975 357 975 l 446 975 m 426 847 l 424 847 q 415 807 419 828 q 403 767 410 786 l 257 353 l 589 353 l 443 767 q 433 807 436 786 q 426 847 429 828 m 607 1224 q 628 1203 628 1224 q 565 1096 628 1133 q 428 1058 501 1058 q 290 1096 353 1058 q 226 1203 226 1133 q 247 1224 226 1224 q 265 1214 265 1224 q 278 1189 265 1204 q 335 1151 293 1171 q 428 1131 376 1131 q 520 1149 479 1131 q 576 1189 561 1168 q 588 1214 586 1204 q 607 1224 589 1224 m 524 1374 q 567 1356 567 1374 q 549 1322 567 1344 q 464 1208 532 1300 q 443 1190 454 1196 q 414 1183 432 1183 q 382 1197 382 1183 q 396 1234 382 1207 q 449 1338 410 1261 q 479 1365 460 1357 q 524 1374 499 1374 z "},"Ặ":{"ha":851,"x_min":17,"x_max":835,"o":"m 446 975 q 501 953 494 975 l 831 39 q 835 21 835 28 q 775 -3 835 -3 l 764 -3 q 708 19 715 -3 l 626 247 l 218 247 l 139 19 q 83 -3 132 -3 l 76 -3 q 17 21 17 -3 q 21 40 17 28 l 350 953 q 406 975 357 975 l 446 975 m 426 847 l 424 847 q 415 807 419 828 q 403 767 410 786 l 257 353 l 589 353 l 443 767 q 433 807 436 786 q 426 847 429 828 m 607 1239 q 628 1218 628 1239 q 565 1098 628 1138 q 428 1058 501 1058 q 290 1098 353 1058 q 226 1218 226 1138 q 247 1239 226 1239 q 267 1230 265 1239 q 278 1204 269 1221 q 335 1163 293 1175 q 428 1150 376 1150 q 520 1163 479 1150 q 576 1204 561 1175 q 587 1230 585 1221 q 607 1239 589 1239 z "},"Ằ":{"ha":851,"x_min":17,"x_max":835,"o":"m 446 975 q 501 953 494 975 l 831 39 q 835 21 835 28 q 775 -3 835 -3 l 764 -3 q 708 19 715 -3 l 626 247 l 218 247 l 139 19 q 83 -3 132 -3 l 76 -3 q 17 21 17 -3 q 21 40 17 28 l 350 953 q 406 975 357 975 l 446 975 m 426 847 l 424 847 q 415 807 419 828 q 403 767 410 786 l 257 353 l 589 353 l 443 767 q 433 807 436 786 q 426 847 429 828 m 607 1224 q 628 1203 628 1224 q 565 1096 628 1133 q 428 1058 501 1058 q 290 1096 353 1058 q 226 1203 226 1133 q 247 1224 226 1224 q 265 1214 265 1224 q 278 1189 265 1204 q 335 1151 293 1171 q 428 1131 376 1131 q 520 1149 479 1131 q 576 1189 561 1168 q 588 1214 586 1204 q 607 1224 589 1224 m 365 1374 q 406 1365 386 1374 q 435 1338 426 1357 q 477 1234 467 1261 q 488 1197 488 1207 q 456 1183 488 1183 q 428 1190 442 1183 q 406 1208 414 1196 q 332 1322 347 1300 q 317 1356 317 1344 q 365 1374 317 1374 z "},"Ẳ":{"ha":851,"x_min":17,"x_max":835,"o":"m 446 975 q 501 953 494 975 l 831 39 q 835 21 835 28 q 775 -3 835 -3 l 764 -3 q 708 19 715 -3 l 626 247 l 218 247 l 139 19 q 83 -3 132 -3 l 76 -3 q 17 21 17 -3 q 21 40 17 28 l 350 953 q 406 975 357 975 l 446 975 m 426 847 l 424 847 q 415 807 419 828 q 403 767 410 786 l 257 353 l 589 353 l 443 767 q 433 807 436 786 q 426 847 429 828 m 607 1224 q 628 1203 628 1224 q 565 1096 628 1133 q 428 1058 501 1058 q 290 1096 353 1058 q 226 1203 226 1133 q 247 1224 226 1224 q 265 1214 265 1224 q 278 1189 265 1204 q 335 1151 293 1171 q 428 1131 376 1131 q 520 1149 479 1131 q 576 1189 561 1168 q 588 1214 586 1204 q 607 1224 589 1224 m 460 1294 q 408 1332 460 1332 q 363 1323 376 1332 q 344 1314 350 1314 q 324 1331 336 1314 q 311 1360 311 1349 q 347 1386 311 1374 q 419 1399 383 1399 q 497 1378 456 1399 q 539 1304 539 1358 q 524 1251 539 1272 q 490 1215 508 1229 q 457 1194 475 1203 q 433 1185 439 1185 q 382 1213 382 1185 q 417 1243 382 1224 q 460 1294 460 1267 z "},"Ẵ":{"ha":851,"x_min":17,"x_max":835,"o":"m 446 975 q 501 953 494 975 l 831 39 q 835 21 835 28 q 775 -3 835 -3 l 764 -3 q 708 19 715 -3 l 626 247 l 218 247 l 139 19 q 83 -3 132 -3 l 76 -3 q 17 21 17 -3 q 21 40 17 28 l 350 953 q 406 975 357 975 l 446 975 m 426 847 l 424 847 q 415 807 419 828 q 403 767 410 786 l 257 353 l 589 353 l 443 767 q 433 807 436 786 q 426 847 429 828 m 607 1224 q 628 1203 628 1224 q 565 1096 628 1133 q 428 1058 501 1058 q 290 1096 353 1058 q 226 1203 226 1133 q 247 1224 226 1224 q 265 1214 265 1224 q 278 1189 265 1204 q 335 1151 293 1171 q 428 1131 376 1131 q 520 1149 479 1131 q 576 1189 561 1168 q 588 1214 586 1204 q 607 1224 589 1224 m 322 1400 q 438 1370 378 1400 q 542 1340 497 1340 q 571 1349 558 1340 q 597 1381 583 1358 q 615 1399 607 1396 q 635 1397 624 1403 l 644 1393 q 659 1380 657 1388 q 654 1357 661 1372 q 605 1284 633 1306 q 539 1263 576 1263 q 420 1292 481 1263 q 315 1322 360 1322 q 288 1313 300 1322 q 263 1281 276 1303 q 246 1262 253 1265 q 226 1264 239 1258 l 214 1269 q 201 1283 203 1275 q 206 1304 200 1290 q 255 1378 226 1357 q 322 1400 283 1400 z "},"Â":{"ha":851,"x_min":17,"x_max":835,"o":"m 446 975 q 501 953 494 975 l 831 39 q 835 21 835 28 q 775 -3 835 -3 l 764 -3 q 708 19 715 -3 l 626 247 l 218 247 l 139 19 q 83 -3 132 -3 l 76 -3 q 17 21 17 -3 q 21 40 17 28 l 350 953 q 406 975 357 975 l 446 975 m 426 847 l 424 847 q 415 807 419 828 q 403 767 410 786 l 257 353 l 589 353 l 443 767 q 433 807 436 786 q 426 847 429 828 m 443 1243 q 481 1235 464 1243 q 507 1213 497 1228 l 586 1090 q 594 1067 594 1078 q 561 1046 594 1046 l 558 1046 q 533 1050 544 1046 q 513 1064 522 1054 l 425 1167 l 340 1064 q 319 1050 331 1054 q 293 1046 308 1046 l 290 1046 q 258 1065 258 1046 q 267 1090 258 1076 l 344 1213 q 372 1235 356 1228 q 408 1243 388 1243 l 443 1243 z "},"Ấ":{"ha":851,"x_min":17,"x_max":835,"o":"m 446 975 q 501 953 494 975 l 831 39 q 835 21 835 28 q 775 -3 835 -3 l 764 -3 q 708 19 715 -3 l 626 247 l 218 247 l 139 19 q 83 -3 132 -3 l 76 -3 q 17 21 17 -3 q 21 40 17 28 l 350 953 q 406 975 357 975 l 446 975 m 426 847 l 424 847 q 415 807 419 828 q 403 767 410 786 l 257 353 l 589 353 l 443 767 q 433 807 436 786 q 426 847 429 828 m 449 1243 q 478 1235 465 1243 q 499 1213 490 1226 l 571 1090 q 579 1067 579 1078 q 546 1046 579 1046 l 543 1046 q 516 1050 529 1046 q 497 1064 503 1054 l 431 1167 l 346 1064 q 325 1050 336 1054 q 299 1046 314 1046 l 296 1046 q 264 1065 264 1046 q 272 1090 264 1076 l 350 1213 q 377 1235 361 1228 q 414 1243 393 1243 l 449 1243 m 718 1335 q 761 1317 761 1335 q 744 1283 761 1306 q 658 1169 726 1261 q 638 1151 649 1157 q 608 1144 626 1144 q 576 1158 576 1144 q 590 1195 576 1168 q 643 1299 604 1222 q 674 1326 654 1318 q 718 1335 693 1335 z "},"Ậ":{"ha":851,"x_min":17,"x_max":835,"o":"m 446 975 q 501 953 494 975 l 831 39 q 835 21 835 28 q 775 -3 835 -3 l 764 -3 q 708 19 715 -3 l 626 247 l 218 247 l 139 19 q 83 -3 132 -3 l 76 -3 q 17 21 17 -3 q 21 40 17 28 l 350 953 q 406 975 357 975 l 446 975 m 426 847 l 424 847 q 415 807 419 828 q 403 767 410 786 l 257 353 l 589 353 l 443 767 q 433 807 436 786 q 426 847 429 828 m 443 1243 q 481 1235 464 1243 q 507 1213 497 1228 l 586 1090 q 594 1067 594 1078 q 561 1046 594 1046 l 558 1046 q 533 1050 544 1046 q 513 1064 522 1054 l 425 1167 l 340 1064 q 319 1050 331 1054 q 293 1046 308 1046 l 290 1046 q 258 1065 258 1046 q 267 1090 258 1076 l 344 1213 q 372 1235 356 1228 q 408 1243 388 1243 l 443 1243 z "},"Ầ":{"ha":851,"x_min":17,"x_max":835,"o":"m 446 975 q 501 953 494 975 l 831 39 q 835 21 835 28 q 775 -3 835 -3 l 764 -3 q 708 19 715 -3 l 626 247 l 218 247 l 139 19 q 83 -3 132 -3 l 76 -3 q 17 21 17 -3 q 21 40 17 28 l 350 953 q 406 975 357 975 l 446 975 m 426 847 l 424 847 q 415 807 419 828 q 403 767 410 786 l 257 353 l 589 353 l 443 767 q 433 807 436 786 q 426 847 429 828 m 449 1243 q 478 1235 465 1243 q 499 1213 490 1226 l 571 1090 q 579 1067 579 1078 q 546 1046 579 1046 l 543 1046 q 516 1050 529 1046 q 497 1064 503 1054 l 431 1167 l 346 1064 q 325 1050 336 1054 q 299 1046 314 1046 l 296 1046 q 264 1065 264 1046 q 272 1090 264 1076 l 350 1213 q 377 1235 361 1228 q 414 1243 393 1243 l 449 1243 m 560 1335 q 601 1326 581 1335 q 629 1299 621 1318 q 672 1195 661 1222 q 682 1158 682 1168 q 650 1144 682 1144 q 622 1151 636 1144 q 600 1169 608 1157 q 526 1283 542 1261 q 511 1317 511 1306 q 560 1335 511 1335 z "},"Ẩ":{"ha":851,"x_min":17,"x_max":835,"o":"m 446 975 q 501 953 494 975 l 831 39 q 835 21 835 28 q 775 -3 835 -3 l 764 -3 q 708 19 715 -3 l 626 247 l 218 247 l 139 19 q 83 -3 132 -3 l 76 -3 q 17 21 17 -3 q 21 40 17 28 l 350 953 q 406 975 357 975 l 446 975 m 426 847 l 424 847 q 415 807 419 828 q 403 767 410 786 l 257 353 l 589 353 l 443 767 q 433 807 436 786 q 426 847 429 828 m 449 1243 q 478 1235 465 1243 q 499 1213 490 1226 l 571 1090 q 579 1067 579 1078 q 546 1046 579 1046 l 543 1046 q 516 1050 529 1046 q 497 1064 503 1054 l 431 1167 l 346 1064 q 325 1050 336 1054 q 299 1046 314 1046 l 296 1046 q 264 1065 264 1046 q 272 1090 264 1076 l 350 1213 q 377 1235 361 1228 q 414 1243 393 1243 l 449 1243 m 654 1256 q 603 1293 654 1293 q 558 1284 571 1293 q 539 1275 544 1275 q 518 1292 531 1275 q 506 1321 506 1310 q 542 1347 506 1335 q 614 1360 578 1360 q 692 1340 650 1360 q 733 1265 733 1319 q 718 1212 733 1233 q 685 1176 703 1190 q 651 1155 669 1164 q 628 1146 633 1146 q 576 1174 576 1146 q 611 1204 576 1185 q 654 1256 654 1228 z "},"Ẫ":{"ha":851,"x_min":17,"x_max":835,"o":"m 446 975 q 501 953 494 975 l 831 39 q 835 21 835 28 q 775 -3 835 -3 l 764 -3 q 708 19 715 -3 l 626 247 l 218 247 l 139 19 q 83 -3 132 -3 l 76 -3 q 17 21 17 -3 q 21 40 17 28 l 350 953 q 406 975 357 975 l 446 975 m 426 847 l 424 847 q 415 807 419 828 q 403 767 410 786 l 257 353 l 589 353 l 443 767 q 433 807 436 786 q 426 847 429 828 m 443 1210 q 507 1179 476 1210 l 586 1090 q 594 1067 594 1078 q 561 1046 594 1046 l 558 1046 q 534 1051 544 1046 q 513 1064 524 1057 l 425 1133 l 340 1064 q 319 1051 331 1057 q 293 1046 308 1046 l 290 1046 q 258 1065 258 1046 q 267 1090 258 1076 l 344 1179 q 373 1201 358 1193 q 408 1210 388 1210 l 443 1210 m 324 1400 q 439 1370 379 1400 q 543 1340 499 1340 q 572 1349 560 1340 q 599 1381 585 1358 q 617 1399 608 1396 q 636 1397 625 1403 l 646 1393 q 660 1380 658 1388 q 656 1357 663 1372 q 606 1284 635 1306 q 540 1263 578 1263 q 422 1292 482 1263 q 317 1322 361 1322 q 290 1313 301 1322 q 264 1281 278 1303 q 247 1262 254 1265 q 228 1264 240 1258 l 215 1269 q 203 1283 204 1275 q 207 1304 201 1290 q 256 1378 228 1357 q 324 1400 285 1400 z "},"Ä":{"ha":851,"x_min":17,"x_max":835,"o":"m 446 975 q 501 953 494 975 l 831 39 q 835 21 835 28 q 775 -3 835 -3 l 764 -3 q 708 19 715 -3 l 626 247 l 218 247 l 139 19 q 83 -3 132 -3 l 76 -3 q 17 21 17 -3 q 21 40 17 28 l 350 953 q 406 975 357 975 l 446 975 m 426 847 l 424 847 q 415 807 419 828 q 403 767 410 786 l 257 353 l 589 353 l 443 767 q 433 807 436 786 q 426 847 429 828 m 529 1221 q 585 1190 585 1221 l 585 1119 q 524 1089 585 1089 q 468 1119 468 1089 l 468 1190 q 529 1221 468 1221 m 329 1221 q 385 1190 385 1221 l 385 1119 q 324 1089 385 1089 q 268 1119 268 1089 l 268 1190 q 329 1221 268 1221 z "},"Ạ":{"ha":851,"x_min":17,"x_max":835,"o":"m 446 975 q 501 953 494 975 l 831 39 q 835 21 835 28 q 775 -3 835 -3 l 764 -3 q 708 19 715 -3 l 626 247 l 218 247 l 139 19 q 83 -3 132 -3 l 76 -3 q 17 21 17 -3 q 21 40 17 28 l 350 953 q 406 975 357 975 l 446 975 m 426 847 l 424 847 q 415 807 419 828 q 403 767 410 786 l 257 353 l 589 353 l 443 767 q 433 807 436 786 q 426 847 429 828 z "},"À":{"ha":851,"x_min":17,"x_max":835,"o":"m 446 975 q 501 953 494 975 l 831 39 q 835 21 835 28 q 775 -3 835 -3 l 764 -3 q 708 19 715 -3 l 626 247 l 218 247 l 139 19 q 83 -3 132 -3 l 76 -3 q 17 21 17 -3 q 21 40 17 28 l 350 953 q 406 975 357 975 l 446 975 m 426 847 l 424 847 q 415 807 419 828 q 403 767 410 786 l 257 353 l 589 353 l 443 767 q 433 807 436 786 q 426 847 429 828 m 329 1263 q 383 1254 363 1263 q 415 1226 404 1246 q 479 1113 463 1143 q 496 1072 496 1082 q 464 1058 496 1058 q 423 1065 442 1058 q 393 1083 404 1071 q 307 1181 335 1150 q 271 1225 279 1213 q 263 1244 263 1238 q 329 1263 263 1263 z "},"Ả":{"ha":851,"x_min":17,"x_max":835,"o":"m 446 975 q 501 953 494 975 l 831 39 q 835 21 835 28 q 775 -3 835 -3 l 764 -3 q 708 19 715 -3 l 626 247 l 218 247 l 139 19 q 83 -3 132 -3 l 76 -3 q 17 21 17 -3 q 21 40 17 28 l 350 953 q 406 975 357 975 l 446 975 m 426 847 l 424 847 q 415 807 419 828 q 403 767 410 786 l 257 353 l 589 353 l 443 767 q 433 807 436 786 q 426 847 429 828 m 476 1179 q 425 1217 476 1217 q 380 1208 393 1217 q 361 1199 367 1199 q 340 1217 353 1199 q 328 1244 328 1235 q 364 1273 328 1258 q 436 1288 400 1288 q 517 1267 471 1288 q 563 1189 563 1246 q 535 1107 563 1143 q 476 1049 507 1071 q 436 1028 444 1028 q 408 1035 426 1028 q 390 1051 390 1042 q 433 1104 390 1082 q 476 1179 476 1126 z "},"Ā":{"ha":851,"x_min":17,"x_max":835,"o":"m 446 975 q 501 953 494 975 l 831 39 q 835 21 835 28 q 775 -3 835 -3 l 764 -3 q 708 19 715 -3 l 626 247 l 218 247 l 139 19 q 83 -3 132 -3 l 76 -3 q 17 21 17 -3 q 21 40 17 28 l 350 953 q 406 975 357 975 l 446 975 m 426 847 l 424 847 q 415 807 419 828 q 403 767 410 786 l 257 353 l 589 353 l 443 767 q 433 807 436 786 q 426 847 429 828 m 582 1193 q 610 1151 610 1193 l 610 1138 q 582 1096 610 1096 l 272 1096 q 244 1138 244 1096 l 244 1151 q 272 1193 244 1193 l 582 1193 z "},"Ą":{"ha":851,"x_min":17,"x_max":979,"o":"m 446 975 q 501 953 494 975 l 831 39 q 835 21 835 28 q 775 -3 835 -3 l 764 -3 q 708 19 715 -3 l 626 247 l 218 247 l 139 19 q 83 -3 132 -3 l 76 -3 q 17 21 17 -3 q 21 40 17 28 l 350 953 q 406 975 357 975 l 446 975 m 426 847 l 424 847 q 415 807 419 828 q 403 767 410 786 l 257 353 l 589 353 l 443 767 q 433 807 436 786 q 426 847 429 828 m 786 19 q 811 -1 811 19 q 803 -39 811 -17 q 794 -86 794 -61 q 826 -147 794 -136 q 881 -157 857 -157 q 916 -150 896 -157 q 953 -143 936 -143 q 979 -178 979 -143 q 949 -240 979 -225 q 865 -254 918 -254 q 756 -227 790 -254 q 711 -167 721 -200 q 701 -112 701 -133 q 715 -32 701 -83 q 786 19 729 19 z "},"Å":{"ha":851,"x_min":17,"x_max":835,"o":"m 446 975 q 501 953 494 975 l 831 39 q 835 21 835 28 q 775 -3 835 -3 l 764 -3 q 708 19 715 -3 l 626 247 l 218 247 l 139 19 q 83 -3 132 -3 l 76 -3 q 17 21 17 -3 q 21 40 17 28 l 350 953 q 406 975 357 975 l 446 975 m 426 847 l 424 847 q 415 807 419 828 q 403 767 410 786 l 257 353 l 589 353 l 443 767 q 433 807 436 786 q 426 847 429 828 m 426 1264 q 510 1229 475 1264 q 544 1146 544 1194 q 510 1063 544 1097 q 426 1029 475 1029 q 344 1063 378 1029 q 310 1146 310 1097 q 344 1229 310 1194 q 426 1264 378 1264 m 426 1215 q 378 1195 397 1215 q 358 1146 358 1175 q 426 1078 358 1078 q 476 1097 456 1078 q 496 1146 496 1117 q 476 1195 496 1175 q 426 1215 456 1215 z "},"Ǻ":{"ha":851,"x_min":17,"x_max":835,"o":"m 508 1290 q 575 1272 575 1290 q 558 1249 575 1265 q 474 1167 540 1233 q 444 1148 463 1154 q 403 1142 425 1142 q 371 1156 371 1142 q 399 1212 389 1193 q 422 1254 410 1231 q 454 1283 433 1275 q 508 1290 475 1290 m 446 892 l 501 953 l 831 39 q 835 21 835 28 q 775 -3 835 -3 l 764 -3 q 708 19 715 -3 l 626 247 l 218 247 l 139 19 q 83 -3 132 -3 l 76 -3 q 17 21 17 -3 q 21 40 17 28 l 350 953 l 406 892 l 446 892 m 426 847 l 424 847 q 415 807 419 828 q 403 767 410 786 l 257 353 l 589 353 l 443 767 q 433 807 436 786 q 426 847 429 828 m 426 1101 q 510 1067 475 1101 q 544 983 544 1032 q 510 901 544 935 q 426 867 475 867 q 344 901 378 867 q 310 983 310 935 q 344 1067 310 1032 q 426 1101 378 1101 m 426 1053 q 378 1033 397 1053 q 358 983 358 1013 q 426 915 358 915 q 476 935 456 915 q 496 983 496 954 q 476 1033 496 1013 q 426 1053 456 1053 z "},"Ã":{"ha":851,"x_min":17,"x_max":835,"o":"m 446 975 q 501 953 494 975 l 831 39 q 835 21 835 28 q 775 -3 835 -3 l 764 -3 q 708 19 715 -3 l 626 247 l 218 247 l 139 19 q 83 -3 132 -3 l 76 -3 q 17 21 17 -3 q 21 40 17 28 l 350 953 q 406 975 357 975 l 446 975 m 426 847 l 424 847 q 415 807 419 828 q 403 767 410 786 l 257 353 l 589 353 l 443 767 q 433 807 436 786 q 426 847 429 828 z "},"Æ":{"ha":1271,"x_min":-15,"x_max":1143,"o":"m 1114 972 q 1142 931 1142 972 l 1142 908 q 1114 867 1142 867 l 611 867 l 681 550 l 1072 550 q 1100 508 1100 550 l 1100 486 q 1072 444 1100 444 l 703 444 l 776 106 l 1115 106 q 1143 64 1143 106 l 1143 42 q 1115 0 1143 0 l 717 0 q 667 40 675 0 l 622 247 l 213 247 l 101 19 q 46 -3 89 -3 l 39 -3 q -15 21 -15 -3 q -10 43 -15 32 l 436 935 q 496 972 454 972 l 1114 972 m 504 847 l 501 847 l 472 767 l 267 351 l 599 351 l 510 767 l 504 847 z "},"Ǽ":{"ha":1271,"x_min":-15,"x_max":1143,"o":"m 1114 972 q 1142 931 1142 972 l 1142 908 q 1114 867 1142 867 l 611 867 l 681 550 l 1072 550 q 1100 508 1100 550 l 1100 486 q 1072 444 1100 444 l 703 444 l 776 106 l 1115 106 q 1143 64 1143 106 l 1143 42 q 1115 0 1143 0 l 717 0 q 667 40 675 0 l 622 247 l 213 247 l 101 19 q 46 -3 89 -3 l 39 -3 q -15 21 -15 -3 q -10 43 -15 32 l 436 935 q 496 972 454 972 l 1114 972 m 504 847 l 501 847 l 472 767 l 267 351 l 599 351 l 510 767 l 504 847 m 747 1263 q 814 1244 814 1263 q 806 1225 814 1238 q 769 1181 797 1213 q 683 1083 742 1150 q 653 1065 672 1071 q 613 1058 635 1058 q 581 1072 581 1058 q 597 1113 581 1082 q 661 1226 614 1143 q 693 1254 672 1246 q 747 1263 714 1263 z "},"B":{"ha":824,"x_min":135,"x_max":778,"o":"m 425 972 q 658 904 581 972 q 736 726 736 836 q 690 594 736 657 q 583 515 644 532 l 583 510 q 632 490 583 510 q 729 421 681 471 q 778 279 778 371 q 684 67 778 135 q 415 0 590 0 l 176 0 q 135 42 135 0 l 135 931 q 176 972 135 972 l 425 972 m 436 447 l 257 447 l 257 106 l 460 106 q 602 154 553 106 q 651 285 651 203 q 436 447 651 447 m 413 867 l 257 867 l 257 553 l 418 553 q 556 600 503 553 q 610 715 610 647 q 413 867 610 867 z "},"C":{"ha":860,"x_min":79,"x_max":814,"o":"m 529 981 q 658 967 597 981 q 757 933 719 953 q 794 894 794 914 q 778 845 794 876 q 747 814 761 814 q 684 844 736 814 q 532 875 632 875 q 285 783 365 875 q 206 485 206 690 q 284 191 206 285 q 526 97 363 97 q 692 132 633 97 q 765 167 751 167 q 797 135 779 167 q 814 92 814 104 q 776 49 814 72 q 673 9 738 26 q 526 -8 608 -8 q 189 112 299 -8 q 79 486 79 232 q 529 981 79 981 z "},"Ć":{"ha":860,"x_min":79,"x_max":814,"o":"m 529 981 q 658 967 597 981 q 757 933 719 953 q 794 894 794 914 q 778 845 794 876 q 747 814 761 814 q 684 844 736 814 q 532 875 632 875 q 285 783 365 875 q 206 485 206 690 q 284 191 206 285 q 526 97 363 97 q 692 132 633 97 q 765 167 751 167 q 797 135 779 167 q 814 92 814 104 q 776 49 814 72 q 673 9 738 26 q 526 -8 608 -8 q 189 112 299 -8 q 79 486 79 232 q 529 981 79 981 m 604 1263 q 671 1244 671 1263 q 663 1225 671 1238 q 626 1181 654 1213 q 540 1083 599 1150 q 510 1065 529 1071 q 469 1058 492 1058 q 438 1072 438 1058 q 454 1113 438 1082 q 518 1226 471 1143 q 550 1254 529 1246 q 604 1263 571 1263 z "},"Č":{"ha":860,"x_min":79,"x_max":814,"o":"m 529 981 q 658 967 597 981 q 757 933 719 953 q 794 894 794 914 q 778 845 794 876 q 747 814 761 814 q 684 844 736 814 q 532 875 632 875 q 285 783 365 875 q 206 485 206 690 q 284 191 206 285 q 526 97 363 97 q 692 132 633 97 q 765 167 751 167 q 797 135 779 167 q 814 92 814 104 q 776 49 814 72 q 673 9 738 26 q 526 -8 608 -8 q 189 112 299 -8 q 79 486 79 232 q 529 981 79 981 m 628 1251 q 661 1231 661 1251 q 653 1207 661 1219 l 574 1085 q 547 1062 563 1069 q 510 1054 531 1054 l 475 1054 q 438 1062 454 1054 q 411 1085 421 1069 l 333 1207 q 325 1232 325 1221 q 357 1251 325 1251 l 360 1251 q 385 1247 374 1251 q 407 1233 396 1243 l 492 1131 l 579 1233 q 601 1247 590 1243 q 625 1251 611 1251 l 628 1251 z "},"Ç":{"ha":860,"x_min":79,"x_max":814,"o":"m 529 981 q 658 967 597 981 q 757 933 719 953 q 794 894 794 914 q 778 845 794 876 q 747 814 761 814 q 684 844 736 814 q 532 875 632 875 q 285 783 365 875 q 206 485 206 690 q 284 191 206 285 q 526 97 363 97 q 692 132 633 97 q 765 167 751 167 q 797 135 779 167 q 814 92 814 104 q 776 49 814 72 q 673 9 738 26 q 526 -8 608 -8 q 189 112 299 -8 q 79 486 79 232 q 529 981 79 981 m 535 0 l 511 -82 l 499 -68 l 521 -68 q 591 -84 543 -68 q 639 -168 639 -100 q 585 -271 639 -250 q 479 -292 532 -292 q 376 -276 432 -292 q 319 -232 319 -260 q 325 -208 319 -219 q 346 -196 331 -196 q 392 -210 363 -196 q 461 -224 421 -224 q 513 -215 486 -224 q 540 -175 540 -207 q 517 -135 540 -144 q 472 -119 494 -125 q 449 -94 449 -114 q 453 -71 449 -86 q 475 0 457 -56 l 535 0 z "},"Ĉ":{"ha":860,"x_min":79,"x_max":814,"o":"m 529 981 q 658 967 597 981 q 757 933 719 953 q 794 894 794 914 q 778 845 794 876 q 747 814 761 814 q 684 844 736 814 q 532 875 632 875 q 285 783 365 875 q 206 485 206 690 q 284 191 206 285 q 526 97 363 97 q 692 132 633 97 q 765 167 751 167 q 797 135 779 167 q 814 92 814 104 q 776 49 814 72 q 673 9 738 26 q 526 -8 608 -8 q 189 112 299 -8 q 79 486 79 232 q 529 981 79 981 m 510 1243 q 547 1235 531 1243 q 574 1213 564 1228 l 653 1090 q 661 1067 661 1078 q 628 1046 661 1046 l 625 1046 q 600 1050 611 1046 q 579 1064 589 1054 l 492 1167 l 407 1064 q 386 1050 397 1054 q 360 1046 375 1046 l 357 1046 q 325 1065 325 1046 q 333 1090 325 1076 l 411 1213 q 438 1235 422 1228 q 475 1243 454 1243 l 510 1243 z "},"Ċ":{"ha":860,"x_min":79,"x_max":814,"o":"m 529 981 q 658 967 597 981 q 757 933 719 953 q 794 894 794 914 q 778 845 794 876 q 747 814 761 814 q 684 844 736 814 q 532 875 632 875 q 285 783 365 875 q 206 485 206 690 q 284 191 206 285 q 526 97 363 97 q 692 132 633 97 q 765 167 751 167 q 797 135 779 167 q 814 92 814 104 q 776 49 814 72 q 673 9 738 26 q 526 -8 608 -8 q 189 112 299 -8 q 79 486 79 232 q 529 981 79 981 m 496 1221 q 551 1190 551 1221 l 551 1119 q 490 1089 551 1089 q 435 1119 435 1089 l 435 1190 q 496 1221 435 1221 z "},"D":{"ha":965,"x_min":135,"x_max":886,"o":"m 457 972 q 761 864 636 972 q 886 486 886 756 q 761 108 886 215 q 457 0 636 0 l 176 0 q 135 42 135 0 l 135 931 q 176 972 135 972 l 457 972 m 447 867 l 257 867 l 257 106 l 447 106 q 669 192 578 106 q 760 486 760 278 q 669 780 760 693 q 447 867 578 867 z "},"Ǳ":{"ha":1821,"x_min":135,"x_max":1758,"o":"m 457 972 q 761 864 636 972 q 886 486 886 756 q 761 108 886 215 q 457 0 636 0 l 176 0 q 135 42 135 0 l 135 931 q 176 972 135 972 l 457 972 m 447 867 l 257 867 l 257 106 l 447 106 q 669 192 578 106 q 760 486 760 278 q 669 780 760 693 q 447 867 578 867 m 1728 972 q 1747 947 1735 972 q 1758 899 1758 921 q 1754 882 1758 889 l 1185 106 l 1728 106 q 1756 58 1756 106 l 1756 47 q 1728 0 1756 0 l 1051 0 q 1029 26 1040 0 q 1018 74 1018 53 q 1022 90 1018 83 l 1592 867 l 1092 867 q 1064 914 1064 867 l 1064 925 q 1092 972 1064 972 l 1728 972 z "},"Ǆ":{"ha":1821,"x_min":135,"x_max":1758,"o":"m 457 972 q 761 864 636 972 q 886 486 886 756 q 761 108 886 215 q 457 0 636 0 l 176 0 q 135 42 135 0 l 135 931 q 176 972 135 972 l 457 972 m 447 867 l 257 867 l 257 106 l 447 106 q 669 192 578 106 q 760 486 760 278 q 669 780 760 693 q 447 867 578 867 m 1728 972 q 1747 947 1735 972 q 1758 899 1758 921 q 1754 882 1758 889 l 1185 106 l 1728 106 q 1756 58 1756 106 l 1756 47 q 1728 0 1756 0 l 1051 0 q 1029 26 1040 0 q 1018 74 1018 53 q 1022 90 1018 83 l 1592 867 l 1092 867 q 1064 914 1064 867 l 1064 925 q 1092 972 1064 972 l 1728 972 m 1528 1251 q 1561 1231 1561 1251 q 1553 1207 1561 1219 l 1474 1085 q 1447 1062 1463 1069 q 1410 1054 1431 1054 l 1375 1054 q 1338 1062 1354 1054 q 1311 1085 1321 1069 l 1233 1207 q 1225 1232 1225 1221 q 1257 1251 1225 1251 l 1260 1251 q 1285 1247 1274 1251 q 1307 1233 1296 1243 l 1392 1131 l 1479 1233 q 1501 1247 1490 1243 q 1525 1251 1511 1251 l 1528 1251 z "},"Ð":{"ha":967,"x_min":0,"x_max":890,"o":"m 458 972 q 764 864 638 972 q 890 486 890 756 q 764 108 890 215 q 458 0 638 0 l 160 0 q 118 42 118 0 l 118 444 l 28 444 q 0 486 0 444 l 0 508 q 28 550 0 550 l 118 550 l 118 931 q 160 972 118 972 l 458 972 m 449 867 l 240 867 l 240 550 l 393 550 q 421 508 421 550 l 421 486 q 393 444 421 444 l 240 444 l 240 106 l 449 106 q 672 192 579 106 q 764 486 764 278 q 672 780 764 693 q 449 867 579 867 z "},"Ď":{"ha":965,"x_min":135,"x_max":886,"o":"m 457 972 q 761 864 636 972 q 886 486 886 756 q 761 108 886 215 q 457 0 636 0 l 176 0 q 135 42 135 0 l 135 931 q 176 972 135 972 l 457 972 m 447 867 l 257 867 l 257 106 l 447 106 q 669 192 578 106 q 760 486 760 278 q 669 780 760 693 q 447 867 578 867 m 568 1251 q 601 1231 601 1251 q 593 1207 601 1219 l 514 1085 q 487 1062 503 1069 q 450 1054 471 1054 l 415 1054 q 378 1062 394 1054 q 351 1085 361 1069 l 274 1207 q 265 1232 265 1221 q 297 1251 265 1251 l 300 1251 q 325 1247 314 1251 q 347 1233 336 1243 l 432 1131 l 519 1233 q 541 1247 531 1243 q 565 1251 551 1251 l 568 1251 z "},"Đ":{"ha":967,"x_min":0,"x_max":890,"o":"m 458 972 q 764 864 638 972 q 890 486 890 756 q 764 108 890 215 q 458 0 638 0 l 160 0 q 118 42 118 0 l 118 444 l 28 444 q 0 486 0 444 l 0 508 q 28 550 0 550 l 118 550 l 118 931 q 160 972 118 972 l 458 972 m 449 867 l 240 867 l 240 550 l 393 550 q 421 508 421 550 l 421 486 q 393 444 421 444 l 240 444 l 240 106 l 449 106 q 672 192 579 106 q 764 486 764 278 q 672 780 764 693 q 449 867 579 867 z "},"Ḍ":{"ha":965,"x_min":135,"x_max":886,"o":"m 457 972 q 761 864 636 972 q 886 486 886 756 q 761 108 886 215 q 457 0 636 0 l 176 0 q 135 42 135 0 l 135 931 q 176 972 135 972 l 457 972 m 447 867 l 257 867 l 257 106 l 447 106 q 669 192 578 106 q 760 486 760 278 q 669 780 760 693 q 447 867 578 867 z "},"ǲ":{"ha":1644,"x_min":135,"x_max":1589,"o":"m 457 972 q 761 864 636 972 q 886 486 886 756 q 761 108 886 215 q 457 0 636 0 l 176 0 q 135 42 135 0 l 135 931 q 176 972 135 972 l 457 972 m 447 867 l 257 867 l 257 106 l 447 106 q 669 192 578 106 q 760 486 760 278 q 669 780 760 693 q 447 867 578 867 m 1560 726 q 1579 699 1571 726 q 1588 654 1588 672 q 1585 640 1588 646 l 1179 100 l 1561 100 q 1589 58 1589 100 l 1589 42 q 1561 0 1589 0 l 1047 0 q 1028 25 1039 0 q 1017 71 1017 50 q 1021 86 1017 81 l 1428 626 l 1072 626 q 1044 668 1044 626 l 1044 685 q 1072 726 1044 726 l 1560 726 z "},"ǅ":{"ha":1644,"x_min":135,"x_max":1589,"o":"m 457 972 q 761 864 636 972 q 886 486 886 756 q 761 108 886 215 q 457 0 636 0 l 176 0 q 135 42 135 0 l 135 931 q 176 972 135 972 l 457 972 m 447 867 l 257 867 l 257 106 l 447 106 q 669 192 578 106 q 760 486 760 278 q 669 780 760 693 q 447 867 578 867 m 1560 726 q 1579 699 1571 726 q 1588 654 1588 672 q 1585 640 1588 646 l 1179 100 l 1561 100 q 1589 58 1589 100 l 1589 42 q 1561 0 1589 0 l 1047 0 q 1028 25 1039 0 q 1017 71 1017 50 q 1021 86 1017 81 l 1428 626 l 1072 626 q 1044 668 1044 626 l 1044 685 q 1072 726 1044 726 l 1560 726 m 1440 1006 q 1474 985 1474 1006 q 1465 961 1474 974 l 1386 839 q 1359 816 1375 824 q 1322 808 1343 808 l 1288 808 q 1250 816 1267 808 q 1224 839 1233 824 l 1146 961 q 1138 986 1138 975 q 1169 1006 1138 1006 l 1172 1006 q 1197 1001 1186 1006 q 1219 988 1208 997 l 1304 885 l 1392 988 q 1413 1001 1403 997 q 1438 1006 1424 1006 l 1440 1006 z "},"E":{"ha":758,"x_min":135,"x_max":690,"o":"m 661 972 q 689 931 689 972 l 689 908 q 661 867 689 867 l 257 867 l 257 550 l 619 550 q 647 508 647 550 l 647 486 q 619 444 647 444 l 257 444 l 257 106 l 663 106 q 690 64 690 106 l 690 42 q 663 0 690 0 l 176 0 q 135 42 135 0 l 135 931 q 176 972 135 972 l 661 972 z "},"É":{"ha":758,"x_min":135,"x_max":690,"o":"m 661 972 q 689 931 689 972 l 689 908 q 661 867 689 867 l 257 867 l 257 550 l 619 550 q 647 508 647 550 l 647 486 q 619 444 647 444 l 257 444 l 257 106 l 663 106 q 690 64 690 106 l 690 42 q 663 0 690 0 l 176 0 q 135 42 135 0 l 135 931 q 176 972 135 972 l 661 972 m 522 1263 q 589 1244 589 1263 q 581 1225 589 1238 q 544 1181 572 1213 q 458 1083 517 1150 q 428 1065 447 1071 q 388 1058 410 1058 q 356 1072 356 1058 q 372 1113 356 1082 q 436 1226 389 1143 q 468 1254 447 1246 q 522 1263 489 1263 z "},"Ĕ":{"ha":758,"x_min":135,"x_max":690,"o":"m 661 972 q 689 931 689 972 l 689 908 q 661 867 689 867 l 257 867 l 257 550 l 619 550 q 647 508 647 550 l 647 486 q 619 444 647 444 l 257 444 l 257 106 l 663 106 q 690 64 690 106 l 690 42 q 663 0 690 0 l 176 0 q 135 42 135 0 l 135 931 q 176 972 135 972 l 661 972 m 592 1239 q 613 1218 613 1239 q 549 1098 613 1138 q 413 1058 486 1058 q 274 1098 338 1058 q 211 1218 211 1138 q 232 1239 211 1239 q 252 1230 250 1239 q 263 1204 254 1221 q 319 1163 278 1175 q 413 1150 361 1150 q 505 1163 464 1150 q 561 1204 546 1175 q 572 1230 569 1221 q 592 1239 574 1239 z "},"Ě":{"ha":758,"x_min":135,"x_max":690,"o":"m 661 972 q 689 931 689 972 l 689 908 q 661 867 689 867 l 257 867 l 257 550 l 619 550 q 647 508 647 550 l 647 486 q 619 444 647 444 l 257 444 l 257 106 l 663 106 q 690 64 690 106 l 690 42 q 663 0 690 0 l 176 0 q 135 42 135 0 l 135 931 q 176 972 135 972 l 661 972 m 546 1251 q 579 1231 579 1251 q 571 1207 579 1219 l 492 1085 q 465 1062 481 1069 q 428 1054 449 1054 l 393 1054 q 356 1062 372 1054 q 329 1085 339 1069 l 251 1207 q 243 1232 243 1221 q 275 1251 243 1251 l 278 1251 q 303 1247 292 1251 q 325 1233 314 1243 l 410 1131 l 497 1233 q 519 1247 508 1243 q 543 1251 529 1251 l 546 1251 z "},"Ê":{"ha":758,"x_min":135,"x_max":690,"o":"m 661 972 q 689 931 689 972 l 689 908 q 661 867 689 867 l 257 867 l 257 550 l 619 550 q 647 508 647 550 l 647 486 q 619 444 647 444 l 257 444 l 257 106 l 663 106 q 690 64 690 106 l 690 42 q 663 0 690 0 l 176 0 q 135 42 135 0 l 135 931 q 176 972 135 972 l 661 972 m 428 1243 q 465 1235 449 1243 q 492 1213 482 1228 l 571 1090 q 579 1067 579 1078 q 546 1046 579 1046 l 543 1046 q 518 1050 529 1046 q 497 1064 507 1054 l 410 1167 l 325 1064 q 304 1050 315 1054 q 278 1046 293 1046 l 275 1046 q 243 1065 243 1046 q 251 1090 243 1076 l 329 1213 q 356 1235 340 1228 q 393 1243 372 1243 l 428 1243 z "},"Ế":{"ha":758,"x_min":135,"x_max":746,"o":"m 661 972 q 689 931 689 972 l 689 908 q 661 867 689 867 l 257 867 l 257 550 l 619 550 q 647 508 647 550 l 647 486 q 619 444 647 444 l 257 444 l 257 106 l 663 106 q 690 64 690 106 l 690 42 q 663 0 690 0 l 176 0 q 135 42 135 0 l 135 931 q 176 972 135 972 l 661 972 m 433 1243 q 463 1235 450 1243 q 483 1213 475 1226 l 556 1090 q 564 1067 564 1078 q 531 1046 564 1046 l 528 1046 q 501 1050 514 1046 q 482 1064 488 1054 l 415 1167 l 331 1064 q 310 1050 321 1054 q 283 1046 299 1046 l 281 1046 q 249 1065 249 1046 q 257 1090 249 1076 l 335 1213 q 362 1235 346 1228 q 399 1243 378 1243 l 433 1243 m 703 1335 q 746 1317 746 1335 q 728 1283 746 1306 q 643 1169 711 1261 q 622 1151 633 1157 q 593 1144 611 1144 q 561 1158 561 1144 q 575 1195 561 1168 q 628 1299 589 1222 q 658 1326 639 1318 q 703 1335 678 1335 z "},"Ệ":{"ha":758,"x_min":135,"x_max":690,"o":"m 661 972 q 689 931 689 972 l 689 908 q 661 867 689 867 l 257 867 l 257 550 l 619 550 q 647 508 647 550 l 647 486 q 619 444 647 444 l 257 444 l 257 106 l 663 106 q 690 64 690 106 l 690 42 q 663 0 690 0 l 176 0 q 135 42 135 0 l 135 931 q 176 972 135 972 l 661 972 m 428 1243 q 465 1235 449 1243 q 492 1213 482 1228 l 571 1090 q 579 1067 579 1078 q 546 1046 579 1046 l 543 1046 q 518 1050 529 1046 q 497 1064 507 1054 l 410 1167 l 325 1064 q 304 1050 315 1054 q 278 1046 293 1046 l 275 1046 q 243 1065 243 1046 q 251 1090 243 1076 l 329 1213 q 356 1235 340 1228 q 393 1243 372 1243 l 428 1243 z "},"Ề":{"ha":758,"x_min":135,"x_max":690,"o":"m 661 972 q 689 931 689 972 l 689 908 q 661 867 689 867 l 257 867 l 257 550 l 619 550 q 647 508 647 550 l 647 486 q 619 444 647 444 l 257 444 l 257 106 l 663 106 q 690 64 690 106 l 690 42 q 663 0 690 0 l 176 0 q 135 42 135 0 l 135 931 q 176 972 135 972 l 661 972 m 433 1243 q 463 1235 450 1243 q 483 1213 475 1226 l 556 1090 q 564 1067 564 1078 q 531 1046 564 1046 l 528 1046 q 501 1050 514 1046 q 482 1064 488 1054 l 415 1167 l 331 1064 q 310 1050 321 1054 q 283 1046 299 1046 l 281 1046 q 249 1065 249 1046 q 257 1090 249 1076 l 335 1213 q 362 1235 346 1228 q 399 1243 378 1243 l 433 1243 m 544 1335 q 585 1326 565 1335 q 614 1299 606 1318 q 656 1195 646 1222 q 667 1158 667 1168 q 635 1144 667 1144 q 607 1151 621 1144 q 585 1169 593 1157 q 511 1283 526 1261 q 496 1317 496 1306 q 544 1335 496 1335 z "},"Ể":{"ha":758,"x_min":135,"x_max":718,"o":"m 661 972 q 689 931 689 972 l 689 908 q 661 867 689 867 l 257 867 l 257 550 l 619 550 q 647 508 647 550 l 647 486 q 619 444 647 444 l 257 444 l 257 106 l 663 106 q 690 64 690 106 l 690 42 q 663 0 690 0 l 176 0 q 135 42 135 0 l 135 931 q 176 972 135 972 l 661 972 m 433 1243 q 463 1235 450 1243 q 483 1213 475 1226 l 556 1090 q 564 1067 564 1078 q 531 1046 564 1046 l 528 1046 q 501 1050 514 1046 q 482 1064 488 1054 l 415 1167 l 331 1064 q 310 1050 321 1054 q 283 1046 299 1046 l 281 1046 q 249 1065 249 1046 q 257 1090 249 1076 l 335 1213 q 362 1235 346 1228 q 399 1243 378 1243 l 433 1243 m 639 1256 q 588 1293 639 1293 q 542 1284 556 1293 q 524 1275 529 1275 q 503 1292 515 1275 q 490 1321 490 1310 q 526 1347 490 1335 q 599 1360 563 1360 q 676 1340 635 1360 q 718 1265 718 1319 q 703 1212 718 1233 q 669 1176 688 1190 q 636 1155 654 1164 q 613 1146 618 1146 q 561 1174 561 1146 q 596 1204 561 1185 q 639 1256 639 1228 z "},"Ễ":{"ha":758,"x_min":135,"x_max":690,"o":"m 661 972 q 689 931 689 972 l 689 908 q 661 867 689 867 l 257 867 l 257 550 l 619 550 q 647 508 647 550 l 647 486 q 619 444 647 444 l 257 444 l 257 106 l 663 106 q 690 64 690 106 l 690 42 q 663 0 690 0 l 176 0 q 135 42 135 0 l 135 931 q 176 972 135 972 l 661 972 m 428 1210 q 492 1179 461 1210 l 571 1090 q 579 1067 579 1078 q 546 1046 579 1046 l 543 1046 q 519 1051 529 1046 q 497 1064 508 1057 l 410 1133 l 325 1064 q 304 1051 315 1057 q 278 1046 293 1046 l 275 1046 q 243 1065 243 1046 q 251 1090 243 1076 l 329 1179 q 358 1201 343 1193 q 393 1210 372 1210 l 428 1210 m 308 1400 q 424 1370 364 1400 q 528 1340 483 1340 q 557 1349 544 1340 q 583 1381 569 1358 q 601 1399 593 1396 q 621 1397 610 1403 l 631 1393 q 645 1380 643 1388 q 640 1357 647 1372 q 591 1284 619 1306 q 525 1263 563 1263 q 406 1292 467 1263 q 301 1322 346 1322 q 274 1313 286 1322 q 249 1281 263 1303 q 232 1262 239 1265 q 213 1264 225 1258 l 200 1269 q 188 1283 189 1275 q 192 1304 186 1290 q 241 1378 213 1357 q 308 1400 269 1400 z "},"Ë":{"ha":758,"x_min":135,"x_max":690,"o":"m 661 972 q 689 931 689 972 l 689 908 q 661 867 689 867 l 257 867 l 257 550 l 619 550 q 647 508 647 550 l 647 486 q 619 444 647 444 l 257 444 l 257 106 l 663 106 q 690 64 690 106 l 690 42 q 663 0 690 0 l 176 0 q 135 42 135 0 l 135 931 q 176 972 135 972 l 661 972 m 514 1221 q 569 1190 569 1221 l 569 1119 q 508 1089 569 1089 q 453 1119 453 1089 l 453 1190 q 514 1221 453 1221 m 314 1221 q 369 1190 369 1221 l 369 1119 q 308 1089 369 1089 q 253 1119 253 1089 l 253 1190 q 314 1221 253 1221 z "},"Ė":{"ha":758,"x_min":135,"x_max":690,"o":"m 661 972 q 689 931 689 972 l 689 908 q 661 867 689 867 l 257 867 l 257 550 l 619 550 q 647 508 647 550 l 647 486 q 619 444 647 444 l 257 444 l 257 106 l 663 106 q 690 64 690 106 l 690 42 q 663 0 690 0 l 176 0 q 135 42 135 0 l 135 931 q 176 972 135 972 l 661 972 m 414 1221 q 469 1190 469 1221 l 469 1119 q 408 1089 469 1089 q 353 1119 353 1089 l 353 1190 q 414 1221 353 1221 z "},"Ẹ":{"ha":758,"x_min":135,"x_max":690,"o":"m 661 972 q 689 931 689 972 l 689 908 q 661 867 689 867 l 257 867 l 257 550 l 619 550 q 647 508 647 550 l 647 486 q 619 444 647 444 l 257 444 l 257 106 l 663 106 q 690 64 690 106 l 690 42 q 663 0 690 0 l 176 0 q 135 42 135 0 l 135 931 q 176 972 135 972 l 661 972 z "},"È":{"ha":758,"x_min":135,"x_max":690,"o":"m 661 972 q 689 931 689 972 l 689 908 q 661 867 689 867 l 257 867 l 257 550 l 619 550 q 647 508 647 550 l 647 486 q 619 444 647 444 l 257 444 l 257 106 l 663 106 q 690 64 690 106 l 690 42 q 663 0 690 0 l 176 0 q 135 42 135 0 l 135 931 q 176 972 135 972 l 661 972 m 314 1263 q 368 1254 347 1263 q 400 1226 389 1246 q 464 1113 447 1143 q 481 1072 481 1082 q 449 1058 481 1058 q 408 1065 426 1058 q 378 1083 389 1071 q 292 1181 319 1150 q 256 1225 264 1213 q 247 1244 247 1238 q 314 1263 247 1263 z "},"Ẻ":{"ha":758,"x_min":135,"x_max":690,"o":"m 661 972 q 689 931 689 972 l 689 908 q 661 867 689 867 l 257 867 l 257 550 l 619 550 q 647 508 647 550 l 647 486 q 619 444 647 444 l 257 444 l 257 106 l 663 106 q 690 64 690 106 l 690 42 q 663 0 690 0 l 176 0 q 135 42 135 0 l 135 931 q 176 972 135 972 l 661 972 m 461 1179 q 410 1217 461 1217 q 365 1208 378 1217 q 346 1199 351 1199 q 325 1217 338 1199 q 313 1244 313 1235 q 349 1273 313 1258 q 421 1288 385 1288 q 501 1267 456 1288 q 547 1189 547 1246 q 519 1107 547 1143 q 460 1049 492 1071 q 421 1028 429 1028 q 393 1035 411 1028 q 375 1051 375 1042 q 418 1104 375 1082 q 461 1179 461 1126 z "},"Ē":{"ha":758,"x_min":135,"x_max":690,"o":"m 661 972 q 689 931 689 972 l 689 908 q 661 867 689 867 l 257 867 l 257 550 l 619 550 q 647 508 647 550 l 647 486 q 619 444 647 444 l 257 444 l 257 106 l 663 106 q 690 64 690 106 l 690 42 q 663 0 690 0 l 176 0 q 135 42 135 0 l 135 931 q 176 972 135 972 l 661 972 m 567 1193 q 594 1151 594 1193 l 594 1138 q 567 1096 594 1096 l 257 1096 q 229 1138 229 1096 l 229 1151 q 257 1193 229 1193 l 567 1193 z "},"Ę":{"ha":758,"x_min":135,"x_max":831,"o":"m 661 972 q 689 931 689 972 l 689 908 q 661 867 689 867 l 257 867 l 257 550 l 619 550 q 647 508 647 550 l 647 486 q 619 444 647 444 l 257 444 l 257 106 l 663 106 q 690 64 690 106 l 690 42 q 663 0 690 0 l 176 0 q 135 42 135 0 l 135 931 q 176 972 135 972 l 661 972 m 638 19 q 663 -1 663 19 q 654 -39 663 -17 q 646 -86 646 -61 q 677 -147 646 -136 q 732 -157 708 -157 q 767 -150 747 -157 q 804 -143 788 -143 q 831 -178 831 -143 q 800 -240 831 -225 q 717 -254 769 -254 q 607 -227 642 -254 q 563 -167 572 -200 q 553 -112 553 -133 q 567 -32 553 -83 q 638 19 581 19 z "},"Ẽ":{"ha":758,"x_min":135,"x_max":690,"o":"m 661 972 q 689 931 689 972 l 689 908 q 661 867 689 867 l 257 867 l 257 550 l 619 550 q 647 508 647 550 l 647 486 q 619 444 647 444 l 257 444 l 257 106 l 663 106 q 690 64 690 106 l 690 42 q 663 0 690 0 l 176 0 q 135 42 135 0 l 135 931 q 176 972 135 972 l 661 972 z "},"F":{"ha":699,"x_min":135,"x_max":642,"o":"m 614 972 q 642 931 642 972 l 642 908 q 614 867 642 867 l 257 867 l 257 550 l 589 550 q 617 508 617 550 l 617 486 q 589 444 617 444 l 257 444 l 257 28 q 201 -3 257 -3 l 190 -3 q 135 28 135 -3 l 135 931 q 176 972 135 972 l 614 972 z "},"G":{"ha":933,"x_min":79,"x_max":818,"o":"m 529 981 q 658 967 597 981 q 757 933 719 953 q 794 894 794 914 q 778 845 794 876 q 747 814 761 814 q 684 844 736 814 q 532 875 632 875 q 276 774 347 875 q 206 490 206 672 q 232 294 206 383 q 326 151 258 206 q 517 97 393 97 q 619 103 571 97 q 696 115 668 108 l 696 396 l 533 396 q 506 438 506 396 l 506 460 q 533 501 506 501 l 776 501 q 818 460 818 501 l 818 92 q 774 31 818 53 q 658 1 729 10 q 508 -8 588 -8 q 190 111 301 -8 q 79 478 79 231 q 195 859 79 738 q 529 981 311 981 z "},"Ğ":{"ha":933,"x_min":79,"x_max":818,"o":"m 529 981 q 658 967 597 981 q 757 933 719 953 q 794 894 794 914 q 778 845 794 876 q 747 814 761 814 q 684 844 736 814 q 532 875 632 875 q 276 774 347 875 q 206 490 206 672 q 232 294 206 383 q 326 151 258 206 q 517 97 393 97 q 619 103 571 97 q 696 115 668 108 l 696 396 l 533 396 q 506 438 506 396 l 506 460 q 533 501 506 501 l 776 501 q 818 460 818 501 l 818 92 q 774 31 818 53 q 658 1 729 10 q 508 -8 588 -8 q 190 111 301 -8 q 79 478 79 231 q 195 859 79 738 q 529 981 311 981 m 647 1239 q 668 1218 668 1239 q 605 1098 668 1138 q 468 1058 542 1058 q 330 1098 393 1058 q 267 1218 267 1138 q 288 1239 267 1239 q 308 1230 306 1239 q 318 1204 310 1221 q 375 1163 333 1175 q 468 1150 417 1150 q 560 1163 519 1150 q 617 1204 601 1175 q 627 1230 625 1221 q 647 1239 629 1239 z "},"Ĝ":{"ha":933,"x_min":79,"x_max":818,"o":"m 529 981 q 658 967 597 981 q 757 933 719 953 q 794 894 794 914 q 778 845 794 876 q 747 814 761 814 q 684 844 736 814 q 532 875 632 875 q 276 774 347 875 q 206 490 206 672 q 232 294 206 383 q 326 151 258 206 q 517 97 393 97 q 619 103 571 97 q 696 115 668 108 l 696 396 l 533 396 q 506 438 506 396 l 506 460 q 533 501 506 501 l 776 501 q 818 460 818 501 l 818 92 q 774 31 818 53 q 658 1 729 10 q 508 -8 588 -8 q 190 111 301 -8 q 79 478 79 231 q 195 859 79 738 q 529 981 311 981 m 483 1243 q 521 1235 504 1243 q 547 1213 538 1228 l 626 1090 q 635 1067 635 1078 q 601 1046 635 1046 l 599 1046 q 574 1050 585 1046 q 553 1064 563 1054 l 465 1167 l 381 1064 q 360 1050 371 1054 q 333 1046 349 1046 l 331 1046 q 299 1065 299 1046 q 307 1090 299 1076 l 385 1213 q 412 1235 396 1228 q 449 1243 428 1243 l 483 1243 z "},"Ģ":{"ha":933,"x_min":79,"x_max":818,"o":"m 529 981 q 658 967 597 981 q 757 933 719 953 q 794 894 794 914 q 778 845 794 876 q 747 814 761 814 q 684 844 736 814 q 532 875 632 875 q 276 774 347 875 q 206 490 206 672 q 232 294 206 383 q 326 151 258 206 q 517 97 393 97 q 619 103 571 97 q 696 115 668 108 l 696 396 l 533 396 q 506 438 506 396 l 506 460 q 533 501 506 501 l 776 501 q 818 460 818 501 l 818 92 q 774 31 818 53 q 658 1 729 10 q 508 -8 588 -8 q 190 111 301 -8 q 79 478 79 231 q 195 859 79 738 q 529 981 311 981 m 543 -71 q 599 -110 599 -71 q 572 -225 599 -176 q 512 -300 546 -274 q 456 -326 478 -326 q 430 -322 444 -326 q 415 -306 415 -318 q 445 -238 415 -282 q 475 -115 475 -194 q 531 -71 475 -71 l 543 -71 z "},"Ġ":{"ha":933,"x_min":79,"x_max":818,"o":"m 529 981 q 658 967 597 981 q 757 933 719 953 q 794 894 794 914 q 778 845 794 876 q 747 814 761 814 q 684 844 736 814 q 532 875 632 875 q 276 774 347 875 q 206 490 206 672 q 232 294 206 383 q 326 151 258 206 q 517 97 393 97 q 619 103 571 97 q 696 115 668 108 l 696 396 l 533 396 q 506 438 506 396 l 506 460 q 533 501 506 501 l 776 501 q 818 460 818 501 l 818 92 q 774 31 818 53 q 658 1 729 10 q 508 -8 588 -8 q 190 111 301 -8 q 79 478 79 231 q 195 859 79 738 q 529 981 311 981 m 469 1221 q 525 1190 525 1221 l 525 1119 q 464 1089 525 1089 q 408 1119 408 1089 l 408 1190 q 469 1221 408 1221 z "},"H":{"ha":1018,"x_min":135,"x_max":882,"o":"m 826 975 q 882 944 882 975 l 882 28 q 826 -3 882 -3 l 815 -3 q 760 28 760 -3 l 760 446 l 257 446 l 257 28 q 201 -3 257 -3 l 190 -3 q 135 28 135 -3 l 135 944 q 190 975 135 975 l 201 975 q 257 944 257 975 l 257 551 l 760 551 l 760 944 q 815 975 760 975 l 826 975 z "},"Ħ":{"ha":1018,"x_min":74,"x_max":939,"o":"m 826 975 q 882 944 882 975 l 882 28 q 826 -3 882 -3 l 815 -3 q 760 28 760 -3 l 760 446 l 257 446 l 257 28 q 201 -3 257 -3 l 190 -3 q 135 28 135 -3 l 135 944 q 190 975 135 975 l 201 975 q 257 944 257 975 l 257 551 l 760 551 l 760 944 q 815 975 760 975 l 826 975 m 911 779 q 939 738 939 779 l 939 724 q 911 682 939 682 l 101 682 q 74 724 74 682 l 74 738 q 101 779 74 779 l 911 779 z "},"Ĥ":{"ha":1018,"x_min":135,"x_max":882,"o":"m 826 975 q 882 944 882 975 l 882 28 q 826 -3 882 -3 l 815 -3 q 760 28 760 -3 l 760 446 l 257 446 l 257 28 q 201 -3 257 -3 l 190 -3 q 135 28 135 -3 l 135 944 q 190 975 135 975 l 201 975 q 257 944 257 975 l 257 551 l 760 551 l 760 944 q 815 975 760 975 l 826 975 m 526 1243 q 564 1235 547 1243 q 590 1213 581 1228 l 669 1090 q 678 1067 678 1078 q 644 1046 678 1046 l 642 1046 q 617 1050 628 1046 q 596 1064 606 1054 l 508 1167 l 424 1064 q 403 1050 414 1054 q 376 1046 392 1046 l 374 1046 q 342 1065 342 1046 q 350 1090 342 1076 l 428 1213 q 455 1235 439 1228 q 492 1243 471 1243 l 526 1243 z "},"Ḥ":{"ha":1018,"x_min":135,"x_max":882,"o":"m 826 975 q 882 944 882 975 l 882 28 q 826 -3 882 -3 l 815 -3 q 760 28 760 -3 l 760 446 l 257 446 l 257 28 q 201 -3 257 -3 l 190 -3 q 135 28 135 -3 l 135 944 q 190 975 135 975 l 201 975 q 257 944 257 975 l 257 551 l 760 551 l 760 944 q 815 975 760 975 l 826 975 z "},"I":{"ha":392,"x_min":135,"x_max":257,"o":"m 201 975 q 257 944 257 975 l 257 28 q 201 -3 257 -3 l 190 -3 q 135 28 135 -3 l 135 944 q 190 975 135 975 l 201 975 z "},"Ĳ":{"ha":950,"x_min":135,"x_max":835,"o":"m 201 975 q 257 944 257 975 l 257 28 q 201 -3 257 -3 l 190 -3 q 135 28 135 -3 l 135 944 q 190 975 135 975 l 201 975 m 779 975 q 835 944 835 975 l 835 285 q 767 72 835 153 q 540 -8 700 -8 q 481 -5 514 -8 q 424 8 449 -1 q 400 36 400 17 q 407 76 400 40 q 431 113 414 113 q 462 106 439 113 q 518 100 485 100 q 667 140 621 100 q 713 271 713 181 l 713 944 q 768 975 713 975 l 779 975 z "},"Í":{"ha":392,"x_min":135,"x_max":374,"o":"m 201 975 q 257 944 257 975 l 257 28 q 201 -3 257 -3 l 190 -3 q 135 28 135 -3 l 135 944 q 190 975 135 975 l 201 975 m 307 1263 q 374 1244 374 1263 q 365 1225 374 1238 q 329 1181 357 1213 q 243 1083 301 1150 q 213 1065 232 1071 q 172 1058 194 1058 q 140 1072 140 1058 q 157 1113 140 1082 q 221 1226 174 1143 q 253 1254 232 1246 q 307 1263 274 1263 z "},"Ĭ":{"ha":392,"x_min":-6,"x_max":396,"o":"m 201 975 q 257 944 257 975 l 257 28 q 201 -3 257 -3 l 190 -3 q 135 28 135 -3 l 135 944 q 190 975 135 975 l 201 975 m 375 1239 q 396 1218 396 1239 q 333 1098 396 1138 q 196 1058 269 1058 q 58 1098 121 1058 q -6 1218 -6 1138 q 15 1239 -6 1239 q 35 1230 33 1239 q 46 1204 38 1221 q 103 1163 61 1175 q 196 1150 144 1150 q 288 1163 247 1150 q 344 1204 329 1175 q 355 1230 353 1221 q 375 1239 357 1239 z "},"Î":{"ha":392,"x_min":28,"x_max":364,"o":"m 201 975 q 257 944 257 975 l 257 28 q 201 -3 257 -3 l 190 -3 q 135 28 135 -3 l 135 944 q 190 975 135 975 l 201 975 m 213 1243 q 250 1235 233 1243 q 276 1213 267 1228 l 356 1090 q 364 1067 364 1078 q 331 1046 364 1046 l 328 1046 q 303 1050 314 1046 q 282 1064 292 1054 l 194 1167 l 110 1064 q 89 1050 100 1054 q 63 1046 78 1046 l 60 1046 q 28 1065 28 1046 q 36 1090 28 1076 l 114 1213 q 141 1235 125 1228 q 178 1243 157 1243 l 213 1243 z "},"Ï":{"ha":392,"x_min":38,"x_max":354,"o":"m 201 975 q 257 944 257 975 l 257 28 q 201 -3 257 -3 l 190 -3 q 135 28 135 -3 l 135 944 q 190 975 135 975 l 201 975 m 299 1221 q 354 1190 354 1221 l 354 1119 q 293 1089 354 1089 q 238 1119 238 1089 l 238 1190 q 299 1221 238 1221 m 99 1221 q 154 1190 154 1221 l 154 1119 q 93 1089 154 1089 q 38 1119 38 1089 l 38 1190 q 99 1221 38 1221 z "},"İ":{"ha":392,"x_min":135,"x_max":257,"o":"m 201 975 q 257 944 257 975 l 257 28 q 201 -3 257 -3 l 190 -3 q 135 28 135 -3 l 135 944 q 190 975 135 975 l 201 975 m 199 1221 q 254 1190 254 1221 l 254 1119 q 193 1089 254 1089 q 138 1119 138 1089 l 138 1190 q 199 1221 138 1221 z "},"Ị":{"ha":392,"x_min":135,"x_max":257,"o":"m 201 975 q 257 944 257 975 l 257 28 q 201 -3 257 -3 l 190 -3 q 135 28 135 -3 l 135 944 q 190 975 135 975 l 201 975 z "},"Ì":{"ha":392,"x_min":32,"x_max":265,"o":"m 201 975 q 257 944 257 975 l 257 28 q 201 -3 257 -3 l 190 -3 q 135 28 135 -3 l 135 944 q 190 975 135 975 l 201 975 m 99 1263 q 153 1254 132 1263 q 185 1226 174 1246 q 249 1113 232 1143 q 265 1072 265 1082 q 233 1058 265 1058 q 192 1065 211 1058 q 163 1083 174 1071 q 76 1181 104 1150 q 40 1225 49 1213 q 32 1244 32 1238 q 99 1263 32 1263 z "},"Ỉ":{"ha":392,"x_min":97,"x_max":332,"o":"m 201 975 q 257 944 257 975 l 257 28 q 201 -3 257 -3 l 190 -3 q 135 28 135 -3 l 135 944 q 190 975 135 975 l 201 975 m 246 1179 q 194 1217 246 1217 q 149 1208 163 1217 q 131 1199 136 1199 q 110 1217 122 1199 q 97 1244 97 1235 q 133 1273 97 1258 q 206 1288 169 1288 q 286 1267 240 1288 q 332 1189 332 1246 q 304 1107 332 1143 q 245 1049 276 1071 q 206 1028 214 1028 q 178 1035 196 1028 q 160 1051 160 1042 q 203 1104 160 1082 q 246 1179 246 1126 z "},"Ī":{"ha":392,"x_min":13,"x_max":378,"o":"m 201 975 q 257 944 257 975 l 257 28 q 201 -3 257 -3 l 190 -3 q 135 28 135 -3 l 135 944 q 190 975 135 975 l 201 975 m 350 1193 q 378 1151 378 1193 l 378 1138 q 350 1096 378 1096 l 40 1096 q 13 1138 13 1096 l 13 1151 q 40 1193 13 1193 l 350 1193 z "},"Į":{"ha":392,"x_min":121,"x_max":399,"o":"m 201 975 q 257 944 257 975 l 257 28 q 201 -3 257 -3 l 190 -3 q 135 28 135 -3 l 135 944 q 190 975 135 975 l 201 975 m 206 19 q 231 -1 231 19 q 222 -39 231 -17 q 214 -86 214 -61 q 245 -147 214 -136 q 300 -157 276 -157 q 335 -150 315 -157 q 372 -143 356 -143 q 399 -178 399 -143 q 368 -240 399 -225 q 285 -254 338 -254 q 175 -227 210 -254 q 131 -167 140 -200 q 121 -112 121 -133 q 135 -32 121 -83 q 206 19 149 19 z "},"Ĩ":{"ha":392,"x_min":-22,"x_max":433,"o":"m 201 975 q 257 944 257 975 l 257 28 q 201 -3 257 -3 l 190 -3 q 135 28 135 -3 l 135 944 q 190 975 135 975 l 201 975 z "},"J":{"ha":558,"x_min":8,"x_max":443,"o":"m 388 975 q 443 944 443 975 l 443 285 q 376 72 443 153 q 149 -8 308 -8 q 90 -5 122 -8 q 33 8 57 -1 q 8 36 8 17 q 15 76 8 40 q 39 113 22 113 q 70 106 47 113 q 126 100 93 100 q 275 140 229 100 q 321 271 321 181 l 321 944 q 376 975 321 975 l 388 975 z "},"Ĵ":{"ha":558,"x_min":8,"x_max":544,"o":"m 388 975 q 443 944 443 975 l 443 285 q 376 72 443 153 q 149 -8 308 -8 q 90 -5 122 -8 q 33 8 57 -1 q 8 36 8 17 q 15 76 8 40 q 39 113 22 113 q 70 106 47 113 q 126 100 93 100 q 275 140 229 100 q 321 271 321 181 l 321 944 q 376 975 321 975 l 388 975 m 393 1243 q 431 1235 414 1243 q 457 1213 447 1228 l 536 1090 q 544 1067 544 1078 q 511 1046 544 1046 l 508 1046 q 483 1050 494 1046 q 463 1064 472 1054 l 375 1167 l 290 1064 q 269 1050 281 1054 q 243 1046 258 1046 l 240 1046 q 208 1065 208 1046 q 217 1090 208 1076 l 294 1213 q 322 1235 306 1228 q 358 1243 338 1243 l 393 1243 z "},"K":{"ha":800,"x_min":135,"x_max":814,"o":"m 693 975 q 742 957 742 975 q 728 929 742 944 l 381 496 l 801 39 q 814 17 814 25 q 753 -3 814 -3 l 736 -3 q 693 -1 714 -3 q 660 15 672 1 l 263 463 l 257 463 l 257 28 q 201 -3 257 -3 l 190 -3 q 135 28 135 -3 l 135 944 q 190 975 135 975 l 201 975 q 257 944 257 975 l 257 519 l 263 519 l 604 956 q 635 971 614 967 q 679 975 656 975 l 693 975 z "},"Ķ":{"ha":800,"x_min":135,"x_max":814,"o":"m 693 975 q 742 957 742 975 q 728 929 742 944 l 381 496 l 801 39 q 814 17 814 25 q 753 -3 814 -3 l 736 -3 q 693 -1 714 -3 q 660 15 672 1 l 263 463 l 257 463 l 257 28 q 201 -3 257 -3 l 190 -3 q 135 28 135 -3 l 135 944 q 190 975 135 975 l 201 975 q 257 944 257 975 l 257 519 l 263 519 l 604 956 q 635 971 614 967 q 679 975 656 975 l 693 975 m 406 -71 q 461 -110 461 -71 q 435 -225 461 -176 q 374 -300 408 -274 q 318 -326 340 -326 q 292 -322 307 -326 q 278 -306 278 -318 q 308 -238 278 -282 q 338 -115 338 -194 q 393 -71 338 -71 l 406 -71 z "},"L":{"ha":672,"x_min":135,"x_max":667,"o":"m 201 975 q 257 944 257 975 l 257 106 l 639 106 q 667 64 667 106 l 667 42 q 639 0 667 0 l 176 0 q 135 42 135 0 l 135 944 q 190 975 135 975 l 201 975 z "},"Ǉ":{"ha":997,"x_min":135,"x_max":879,"o":"m 201 975 q 257 944 257 975 l 257 106 l 542 106 q 569 64 569 106 l 569 42 q 542 0 569 0 l 176 0 q 135 42 135 0 l 135 944 q 190 975 135 975 l 201 975 m 824 975 q 879 944 879 975 l 879 76 q 812 -136 879 -56 q 585 -217 744 -217 q 526 -213 558 -217 q 469 -201 493 -210 q 444 -172 444 -192 q 451 -132 444 -168 q 475 -96 458 -96 q 506 -102 483 -96 q 563 -108 529 -108 q 711 -68 665 -108 q 757 63 757 -28 l 757 944 q 813 975 757 975 l 824 975 z "},"Ĺ":{"ha":672,"x_min":135,"x_max":667,"o":"m 201 975 q 257 944 257 975 l 257 106 l 639 106 q 667 64 667 106 l 667 42 q 639 0 667 0 l 176 0 q 135 42 135 0 l 135 944 q 190 975 135 975 l 201 975 m 313 1265 q 379 1247 379 1265 q 371 1228 379 1240 q 335 1184 363 1215 q 249 1086 307 1153 q 219 1067 238 1074 q 178 1061 200 1061 q 146 1075 146 1061 q 163 1115 146 1085 q 226 1229 179 1146 q 258 1257 238 1249 q 313 1265 279 1265 z "},"Ľ":{"ha":672,"x_min":135,"x_max":667,"o":"m 201 975 q 257 944 257 975 l 257 106 l 639 106 q 667 64 667 106 l 667 42 q 639 0 667 0 l 176 0 q 135 42 135 0 l 135 944 q 190 975 135 975 l 201 975 m 494 972 q 550 933 550 972 q 512 785 550 839 q 449 731 474 731 q 423 735 438 731 q 408 751 408 739 q 417 814 408 774 q 426 928 426 854 q 482 972 426 972 l 494 972 z "},"Ļ":{"ha":672,"x_min":135,"x_max":667,"o":"m 201 975 q 257 944 257 975 l 257 106 l 639 106 q 667 64 667 106 l 667 42 q 639 0 667 0 l 176 0 q 135 42 135 0 l 135 944 q 190 975 135 975 l 201 975 m 397 -71 q 453 -110 453 -71 q 426 -225 453 -176 q 366 -300 400 -274 q 310 -326 332 -326 q 284 -322 299 -326 q 269 -306 269 -318 q 299 -238 269 -282 q 329 -115 329 -194 q 385 -71 329 -71 l 397 -71 z "},"Ŀ":{"ha":672,"x_min":135,"x_max":667,"o":"m 201 975 q 257 944 257 975 l 257 106 l 639 106 q 667 64 667 106 l 667 42 q 639 0 667 0 l 176 0 q 135 42 135 0 l 135 944 q 190 975 135 975 l 201 975 m 418 572 q 469 551 449 572 q 490 500 490 531 q 469 449 490 469 q 418 429 449 429 q 367 449 388 429 q 347 500 347 469 q 367 551 347 531 q 418 572 388 572 z "},"ǈ":{"ha":1056,"x_min":135,"x_max":935,"o":"m 201 975 q 257 944 257 975 l 257 106 l 639 106 q 667 64 667 106 l 667 42 q 639 0 667 0 l 176 0 q 135 42 135 0 l 135 944 q 190 975 135 975 l 201 975 m 874 729 q 929 699 929 729 l 929 -103 q 866 -259 929 -224 q 750 -294 803 -294 q 685 -287 722 -294 q 649 -253 649 -281 q 656 -216 649 -244 q 678 -187 664 -187 q 697 -191 688 -187 q 738 -194 707 -194 q 790 -174 768 -194 q 813 -92 813 -154 l 813 699 q 868 729 813 729 l 874 729 m 879 1044 q 935 1014 935 1044 l 935 932 q 879 901 935 901 l 863 901 q 807 932 807 901 l 807 1014 q 863 1044 807 1044 l 879 1044 z "},"Ł":{"ha":675,"x_min":-3,"x_max":672,"o":"m 185 975 q 240 944 240 975 l 240 621 l 390 710 q 404 715 401 715 q 417 696 417 715 l 417 688 q 390 646 417 661 l 240 557 l 240 106 l 644 106 q 672 64 672 106 l 672 42 q 644 0 672 0 l 160 0 q 118 42 118 0 l 118 483 l 24 428 q 10 422 17 422 q -3 442 -3 422 l -3 450 q 24 492 -3 476 l 118 547 l 118 944 q 174 975 118 975 l 185 975 z "},"M":{"ha":1171,"x_min":125,"x_max":1046,"o":"m 990 975 q 1046 944 1046 975 l 1046 28 q 990 -3 1046 -3 l 981 -3 q 925 28 925 -3 l 925 775 l 922 769 l 646 289 q 615 271 636 271 l 560 271 q 529 289 539 271 l 249 778 l 246 783 l 246 28 q 190 -3 246 -3 l 181 -3 q 125 28 125 -3 l 125 944 q 181 975 125 975 l 231 975 q 289 950 275 975 l 551 494 l 588 407 l 624 486 l 886 950 q 944 975 900 975 l 990 975 z "},"N":{"ha":999,"x_min":125,"x_max":874,"o":"m 818 975 q 874 944 874 975 l 874 28 q 818 -3 874 -3 l 790 -3 q 759 2 771 -3 q 742 17 747 7 l 283 708 l 246 779 l 246 28 q 190 -3 246 -3 l 181 -3 q 125 28 125 -3 l 125 944 q 181 975 125 975 l 210 975 q 246 969 233 975 q 268 949 258 964 l 711 279 l 753 201 l 753 944 q 808 975 753 975 l 818 975 z "},"Ǌ":{"ha":1557,"x_min":125,"x_max":1442,"o":"m 818 975 q 874 944 874 975 l 874 28 q 818 -3 874 -3 l 790 -3 q 759 2 771 -3 q 742 17 747 7 l 283 708 l 246 779 l 246 28 q 190 -3 246 -3 l 181 -3 q 125 28 125 -3 l 125 944 q 181 975 125 975 l 210 975 q 246 969 233 975 q 268 949 258 964 l 711 279 l 753 201 l 753 944 q 808 975 753 975 l 818 975 m 1386 975 q 1442 944 1442 975 l 1442 285 q 1374 72 1442 153 q 1147 -8 1307 -8 q 1088 -5 1121 -8 q 1031 8 1056 -1 q 1007 36 1007 17 q 1014 76 1007 40 q 1038 113 1021 113 q 1069 106 1046 113 q 1125 100 1092 100 q 1274 140 1228 100 q 1319 271 1319 181 l 1319 944 q 1375 975 1319 975 l 1386 975 z "},"Ń":{"ha":999,"x_min":125,"x_max":874,"o":"m 818 975 q 874 944 874 975 l 874 28 q 818 -3 874 -3 l 790 -3 q 759 2 771 -3 q 742 17 747 7 l 283 708 l 246 779 l 246 28 q 190 -3 246 -3 l 181 -3 q 125 28 125 -3 l 125 944 q 181 975 125 975 l 210 975 q 246 969 233 975 q 268 949 258 964 l 711 279 l 753 201 l 753 944 q 808 975 753 975 l 818 975 m 611 1263 q 678 1244 678 1263 q 669 1225 678 1238 q 633 1181 661 1213 q 547 1083 606 1150 q 517 1065 536 1071 q 476 1058 499 1058 q 444 1072 444 1058 q 461 1113 444 1082 q 525 1226 478 1143 q 557 1254 536 1246 q 611 1263 578 1263 z "},"Ň":{"ha":999,"x_min":125,"x_max":874,"o":"m 818 975 q 874 944 874 975 l 874 28 q 818 -3 874 -3 l 790 -3 q 759 2 771 -3 q 742 17 747 7 l 283 708 l 246 779 l 246 28 q 190 -3 246 -3 l 181 -3 q 125 28 125 -3 l 125 944 q 181 975 125 975 l 210 975 q 246 969 233 975 q 268 949 258 964 l 711 279 l 753 201 l 753 944 q 808 975 753 975 l 818 975 m 635 1251 q 668 1231 668 1251 q 660 1207 668 1219 l 581 1085 q 553 1062 569 1069 q 517 1054 538 1054 l 482 1054 q 444 1062 461 1054 q 418 1085 428 1069 l 340 1207 q 332 1232 332 1221 q 364 1251 332 1251 l 367 1251 q 392 1247 381 1251 q 414 1233 403 1243 l 499 1131 l 586 1233 q 608 1247 597 1243 q 632 1251 618 1251 l 635 1251 z "},"Ņ":{"ha":999,"x_min":125,"x_max":874,"o":"m 818 975 q 874 944 874 975 l 874 28 q 818 -3 874 -3 l 790 -3 q 759 2 771 -3 q 742 17 747 7 l 283 708 l 246 779 l 246 28 q 190 -3 246 -3 l 181 -3 q 125 28 125 -3 l 125 944 q 181 975 125 975 l 210 975 q 246 969 233 975 q 268 949 258 964 l 711 279 l 753 201 l 753 944 q 808 975 753 975 l 818 975 m 506 -71 q 561 -110 561 -71 q 535 -225 561 -176 q 474 -300 508 -274 q 418 -326 440 -326 q 392 -322 407 -326 q 378 -306 378 -318 q 408 -238 378 -282 q 438 -115 438 -194 q 493 -71 438 -71 l 506 -71 z "},"Ṅ":{"ha":999,"x_min":125,"x_max":874,"o":"m 818 975 q 874 944 874 975 l 874 28 q 818 -3 874 -3 l 790 -3 q 759 2 771 -3 q 742 17 747 7 l 283 708 l 246 779 l 246 28 q 190 -3 246 -3 l 181 -3 q 125 28 125 -3 l 125 944 q 181 975 125 975 l 210 975 q 246 969 233 975 q 268 949 258 964 l 711 279 l 753 201 l 753 944 q 808 975 753 975 l 818 975 m 503 1221 q 558 1190 558 1221 l 558 1119 q 497 1089 558 1089 q 442 1119 442 1089 l 442 1190 q 503 1221 442 1221 z "},"Ŋ":{"ha":999,"x_min":125,"x_max":874,"o":"m 818 975 q 874 944 874 975 l 874 28 l 775 -33 l 283 708 l 246 779 l 246 28 q 190 -3 246 -3 l 181 -3 q 125 28 125 -3 l 125 944 q 181 975 125 975 l 210 975 q 246 969 233 975 q 268 949 258 964 l 711 279 l 753 201 l 753 944 q 808 975 753 975 l 818 975 m 818 729 q 874 699 874 729 l 874 -103 q 810 -259 874 -224 q 694 -294 747 -294 q 630 -287 667 -294 q 593 -253 593 -281 q 601 -216 593 -244 q 622 -187 608 -187 q 642 -191 632 -187 q 682 -194 651 -194 q 735 -174 713 -194 q 757 -92 757 -154 l 757 699 q 813 729 757 729 l 818 729 z "},"ǋ":{"ha":1382,"x_min":125,"x_max":1261,"o":"m 818 975 q 874 944 874 975 l 874 28 q 818 -3 874 -3 l 790 -3 q 759 2 771 -3 q 742 17 747 7 l 283 708 l 246 779 l 246 28 q 190 -3 246 -3 l 181 -3 q 125 28 125 -3 l 125 944 q 181 975 125 975 l 210 975 q 246 969 233 975 q 268 949 258 964 l 711 279 l 753 201 l 753 944 q 808 975 753 975 l 818 975 m 1200 729 q 1256 699 1256 729 l 1256 -103 q 1192 -259 1256 -224 q 1076 -294 1129 -294 q 1012 -287 1049 -294 q 975 -253 975 -281 q 983 -216 975 -244 q 1004 -187 990 -187 q 1024 -191 1014 -187 q 1064 -194 1033 -194 q 1117 -174 1094 -194 q 1139 -92 1139 -154 l 1139 699 q 1194 729 1139 729 l 1200 729 m 1206 1044 q 1261 1014 1261 1044 l 1261 932 q 1206 901 1261 901 l 1189 901 q 1133 932 1133 901 l 1133 1014 q 1189 1044 1133 1044 l 1206 1044 z "},"Ñ":{"ha":999,"x_min":125,"x_max":874,"o":"m 818 975 q 874 944 874 975 l 874 28 q 818 -3 874 -3 l 790 -3 q 759 2 771 -3 q 742 17 747 7 l 283 708 l 246 779 l 246 28 q 190 -3 246 -3 l 181 -3 q 125 28 125 -3 l 125 944 q 181 975 125 975 l 210 975 q 246 969 233 975 q 268 949 258 964 l 711 279 l 753 201 l 753 944 q 808 975 753 975 l 818 975 z "},"O":{"ha":1015,"x_min":79,"x_max":936,"o":"m 507 981 q 826 857 717 981 q 936 489 936 733 q 826 118 936 244 q 507 -8 717 -8 q 189 118 299 -8 q 79 489 79 244 q 189 857 79 733 q 507 981 299 981 m 507 875 q 206 489 206 875 q 507 97 206 97 q 810 489 810 97 q 507 875 810 875 z "},"Ó":{"ha":1015,"x_min":79,"x_max":936,"o":"m 507 981 q 826 857 717 981 q 936 489 936 733 q 826 118 936 244 q 507 -8 717 -8 q 189 118 299 -8 q 79 489 79 244 q 189 857 79 733 q 507 981 299 981 m 507 875 q 206 489 206 875 q 507 97 206 97 q 810 489 810 97 q 507 875 810 875 m 619 1263 q 686 1244 686 1263 q 678 1225 686 1238 q 642 1181 669 1213 q 556 1083 614 1150 q 526 1065 544 1071 q 485 1058 507 1058 q 453 1072 453 1058 q 469 1113 453 1082 q 533 1226 486 1143 q 565 1254 544 1246 q 619 1263 586 1263 z "},"Ŏ":{"ha":1015,"x_min":79,"x_max":936,"o":"m 507 981 q 826 857 717 981 q 936 489 936 733 q 826 118 936 244 q 507 -8 717 -8 q 189 118 299 -8 q 79 489 79 244 q 189 857 79 733 q 507 981 299 981 m 507 875 q 206 489 206 875 q 507 97 206 97 q 810 489 810 97 q 507 875 810 875 m 689 1239 q 710 1218 710 1239 q 647 1098 710 1138 q 510 1058 583 1058 q 372 1098 435 1058 q 308 1218 308 1138 q 329 1239 308 1239 q 349 1230 347 1239 q 360 1204 351 1221 q 417 1163 375 1175 q 510 1150 458 1150 q 602 1163 561 1150 q 658 1204 643 1175 q 669 1230 667 1221 q 689 1239 671 1239 z "},"Ô":{"ha":1015,"x_min":79,"x_max":936,"o":"m 507 981 q 826 857 717 981 q 936 489 936 733 q 826 118 936 244 q 507 -8 717 -8 q 189 118 299 -8 q 79 489 79 244 q 189 857 79 733 q 507 981 299 981 m 507 875 q 206 489 206 875 q 507 97 206 97 q 810 489 810 97 q 507 875 810 875 m 525 1243 q 563 1235 546 1243 q 589 1213 579 1228 l 668 1090 q 676 1067 676 1078 q 643 1046 676 1046 l 640 1046 q 615 1050 626 1046 q 594 1064 604 1054 l 507 1167 l 422 1064 q 401 1050 413 1054 q 375 1046 390 1046 l 372 1046 q 340 1065 340 1046 q 349 1090 340 1076 l 426 1213 q 453 1235 438 1228 q 490 1243 469 1243 l 525 1243 z "},"Ố":{"ha":1015,"x_min":79,"x_max":936,"o":"m 507 981 q 826 857 717 981 q 936 489 936 733 q 826 118 936 244 q 507 -8 717 -8 q 189 118 299 -8 q 79 489 79 244 q 189 857 79 733 q 507 981 299 981 m 507 875 q 206 489 206 875 q 507 97 206 97 q 810 489 810 97 q 507 875 810 875 m 531 1243 q 560 1235 547 1243 q 581 1213 572 1226 l 653 1090 q 661 1067 661 1078 q 628 1046 661 1046 l 625 1046 q 598 1050 611 1046 q 579 1064 585 1054 l 513 1167 l 428 1064 q 407 1050 418 1054 q 381 1046 396 1046 l 378 1046 q 346 1065 346 1046 q 354 1090 346 1076 l 432 1213 q 459 1235 443 1228 q 496 1243 475 1243 l 531 1243 m 800 1335 q 843 1317 843 1335 q 826 1283 843 1306 q 740 1169 808 1261 q 719 1151 731 1157 q 690 1144 708 1144 q 658 1158 658 1144 q 672 1195 658 1168 q 725 1299 686 1222 q 756 1326 736 1318 q 800 1335 775 1335 z "},"Ộ":{"ha":1015,"x_min":79,"x_max":936,"o":"m 507 981 q 826 857 717 981 q 936 489 936 733 q 826 118 936 244 q 507 -8 717 -8 q 189 118 299 -8 q 79 489 79 244 q 189 857 79 733 q 507 981 299 981 m 507 875 q 206 489 206 875 q 507 97 206 97 q 810 489 810 97 q 507 875 810 875 m 525 1243 q 563 1235 546 1243 q 589 1213 579 1228 l 668 1090 q 676 1067 676 1078 q 643 1046 676 1046 l 640 1046 q 615 1050 626 1046 q 594 1064 604 1054 l 507 1167 l 422 1064 q 401 1050 413 1054 q 375 1046 390 1046 l 372 1046 q 340 1065 340 1046 q 349 1090 340 1076 l 426 1213 q 453 1235 438 1228 q 490 1243 469 1243 l 525 1243 z "},"Ồ":{"ha":1015,"x_min":79,"x_max":936,"o":"m 507 981 q 826 857 717 981 q 936 489 936 733 q 826 118 936 244 q 507 -8 717 -8 q 189 118 299 -8 q 79 489 79 244 q 189 857 79 733 q 507 981 299 981 m 507 875 q 206 489 206 875 q 507 97 206 97 q 810 489 810 97 q 507 875 810 875 m 531 1243 q 560 1235 547 1243 q 581 1213 572 1226 l 653 1090 q 661 1067 661 1078 q 628 1046 661 1046 l 625 1046 q 598 1050 611 1046 q 579 1064 585 1054 l 513 1167 l 428 1064 q 407 1050 418 1054 q 381 1046 396 1046 l 378 1046 q 346 1065 346 1046 q 354 1090 346 1076 l 432 1213 q 459 1235 443 1228 q 496 1243 475 1243 l 531 1243 m 642 1335 q 683 1326 663 1335 q 711 1299 703 1318 q 753 1195 743 1222 q 764 1158 764 1168 q 732 1144 764 1144 q 704 1151 718 1144 q 682 1169 690 1157 q 608 1283 624 1261 q 593 1317 593 1306 q 642 1335 593 1335 z "},"Ổ":{"ha":1015,"x_min":79,"x_max":936,"o":"m 507 981 q 826 857 717 981 q 936 489 936 733 q 826 118 936 244 q 507 -8 717 -8 q 189 118 299 -8 q 79 489 79 244 q 189 857 79 733 q 507 981 299 981 m 507 875 q 206 489 206 875 q 507 97 206 97 q 810 489 810 97 q 507 875 810 875 m 531 1243 q 560 1235 547 1243 q 581 1213 572 1226 l 653 1090 q 661 1067 661 1078 q 628 1046 661 1046 l 625 1046 q 598 1050 611 1046 q 579 1064 585 1054 l 513 1167 l 428 1064 q 407 1050 418 1054 q 381 1046 396 1046 l 378 1046 q 346 1065 346 1046 q 354 1090 346 1076 l 432 1213 q 459 1235 443 1228 q 496 1243 475 1243 l 531 1243 m 736 1256 q 685 1293 736 1293 q 640 1284 653 1293 q 621 1275 626 1275 q 600 1292 613 1275 q 588 1321 588 1310 q 624 1347 588 1335 q 696 1360 660 1360 q 774 1340 732 1360 q 815 1265 815 1319 q 800 1212 815 1233 q 767 1176 785 1190 q 733 1155 751 1164 q 710 1146 715 1146 q 658 1174 658 1146 q 693 1204 658 1185 q 736 1256 736 1228 z "},"Ỗ":{"ha":1015,"x_min":79,"x_max":936,"o":"m 507 981 q 826 857 717 981 q 936 489 936 733 q 826 118 936 244 q 507 -8 717 -8 q 189 118 299 -8 q 79 489 79 244 q 189 857 79 733 q 507 981 299 981 m 507 875 q 206 489 206 875 q 507 97 206 97 q 810 489 810 97 q 507 875 810 875 m 525 1210 q 589 1179 558 1210 l 668 1090 q 676 1067 676 1078 q 643 1046 676 1046 l 640 1046 q 616 1051 626 1046 q 594 1064 606 1057 l 507 1133 l 422 1064 q 401 1051 413 1057 q 375 1046 390 1046 l 372 1046 q 340 1065 340 1046 q 349 1090 340 1076 l 426 1179 q 455 1201 440 1193 q 490 1210 469 1210 l 525 1210 m 406 1400 q 521 1370 461 1400 q 625 1340 581 1340 q 654 1349 642 1340 q 681 1381 667 1358 q 699 1399 690 1396 q 718 1397 707 1403 l 728 1393 q 742 1380 740 1388 q 738 1357 744 1372 q 688 1284 717 1306 q 622 1263 660 1263 q 503 1292 564 1263 q 399 1322 443 1322 q 372 1313 383 1322 q 346 1281 360 1303 q 329 1262 336 1265 q 310 1264 322 1258 l 297 1269 q 285 1283 286 1275 q 289 1304 283 1290 q 338 1378 310 1357 q 406 1400 367 1400 z "},"Ö":{"ha":1015,"x_min":79,"x_max":936,"o":"m 507 981 q 826 857 717 981 q 936 489 936 733 q 826 118 936 244 q 507 -8 717 -8 q 189 118 299 -8 q 79 489 79 244 q 189 857 79 733 q 507 981 299 981 m 507 875 q 206 489 206 875 q 507 97 206 97 q 810 489 810 97 q 507 875 810 875 m 611 1221 q 667 1190 667 1221 l 667 1119 q 606 1089 667 1089 q 550 1119 550 1089 l 550 1190 q 611 1221 550 1221 m 411 1221 q 467 1190 467 1221 l 467 1119 q 406 1089 467 1089 q 350 1119 350 1089 l 350 1190 q 411 1221 350 1221 z "},"Ọ":{"ha":1015,"x_min":79,"x_max":936,"o":"m 507 981 q 826 857 717 981 q 936 489 936 733 q 826 118 936 244 q 507 -8 717 -8 q 189 118 299 -8 q 79 489 79 244 q 189 857 79 733 q 507 981 299 981 m 507 875 q 206 489 206 875 q 507 97 206 97 q 810 489 810 97 q 507 875 810 875 z "},"Ò":{"ha":1015,"x_min":79,"x_max":936,"o":"m 507 981 q 826 857 717 981 q 936 489 936 733 q 826 118 936 244 q 507 -8 717 -8 q 189 118 299 -8 q 79 489 79 244 q 189 857 79 733 q 507 981 299 981 m 507 875 q 206 489 206 875 q 507 97 206 97 q 810 489 810 97 q 507 875 810 875 m 411 1263 q 465 1254 444 1263 q 497 1226 486 1246 q 561 1113 544 1143 q 578 1072 578 1082 q 546 1058 578 1058 q 505 1065 524 1058 q 475 1083 486 1071 q 389 1181 417 1150 q 353 1225 361 1213 q 344 1244 344 1238 q 411 1263 344 1263 z "},"Ỏ":{"ha":1015,"x_min":79,"x_max":936,"o":"m 507 981 q 826 857 717 981 q 936 489 936 733 q 826 118 936 244 q 507 -8 717 -8 q 189 118 299 -8 q 79 489 79 244 q 189 857 79 733 q 507 981 299 981 m 507 875 q 206 489 206 875 q 507 97 206 97 q 810 489 810 97 q 507 875 810 875 m 558 1179 q 507 1217 558 1217 q 462 1208 475 1217 q 443 1199 449 1199 q 422 1217 435 1199 q 410 1244 410 1235 q 446 1273 410 1258 q 518 1288 482 1288 q 599 1267 553 1288 q 644 1189 644 1246 q 617 1107 644 1143 q 558 1049 589 1071 q 518 1028 526 1028 q 490 1035 508 1028 q 472 1051 472 1042 q 515 1104 472 1082 q 558 1179 558 1126 z "},"Ơ":{"ha":1015,"x_min":79,"x_max":936,"o":"m 507 981 q 826 857 717 981 q 936 489 936 733 q 826 118 936 244 q 507 -8 717 -8 q 189 118 299 -8 q 79 489 79 244 q 189 857 79 733 q 507 981 299 981 m 507 875 q 206 489 206 875 q 507 97 206 97 q 810 489 810 97 q 507 875 810 875 m 803 1124 q 819 1129 810 1129 q 861 1093 843 1129 q 879 1026 879 1057 q 841 936 879 971 q 722 901 803 901 l 669 947 l 718 947 q 778 962 763 947 q 794 993 794 976 q 778 1046 797 1025 q 757 1079 760 1067 q 769 1101 757 1093 l 803 1124 z "},"Ớ":{"ha":1015,"x_min":79,"x_max":936,"o":"m 507 981 q 826 857 717 981 q 936 489 936 733 q 826 118 936 244 q 507 -8 717 -8 q 189 118 299 -8 q 79 489 79 244 q 189 857 79 733 q 507 981 299 981 m 507 875 q 206 489 206 875 q 507 97 206 97 q 810 489 810 97 q 507 875 810 875 m 803 1124 q 819 1129 810 1129 q 861 1093 843 1129 q 879 1026 879 1057 q 841 936 879 971 q 722 901 803 901 l 669 947 l 718 947 q 778 962 763 947 q 794 993 794 976 q 778 1046 797 1025 q 757 1079 760 1067 q 769 1101 757 1093 l 803 1124 m 639 1265 q 706 1247 706 1265 q 697 1228 706 1240 q 661 1184 689 1215 q 575 1086 633 1153 q 545 1067 564 1074 q 504 1061 526 1061 q 472 1075 472 1061 q 489 1115 472 1085 q 553 1229 506 1146 q 585 1257 564 1249 q 639 1265 606 1265 z "},"Ợ":{"ha":1015,"x_min":79,"x_max":936,"o":"m 507 981 q 826 857 717 981 q 936 489 936 733 q 826 118 936 244 q 507 -8 717 -8 q 189 118 299 -8 q 79 489 79 244 q 189 857 79 733 q 507 981 299 981 m 507 875 q 206 489 206 875 q 507 97 206 97 q 810 489 810 97 q 507 875 810 875 m 803 1124 q 819 1129 810 1129 q 861 1093 843 1129 q 879 1026 879 1057 q 841 936 879 971 q 722 901 803 901 l 669 947 l 718 947 q 778 962 763 947 q 794 993 794 976 q 778 1046 797 1025 q 757 1079 760 1067 q 769 1101 757 1093 l 803 1124 z "},"Ờ":{"ha":1015,"x_min":79,"x_max":936,"o":"m 507 981 q 826 857 717 981 q 936 489 936 733 q 826 118 936 244 q 507 -8 717 -8 q 189 118 299 -8 q 79 489 79 244 q 189 857 79 733 q 507 981 299 981 m 507 875 q 206 489 206 875 q 507 97 206 97 q 810 489 810 97 q 507 875 810 875 m 803 1124 q 819 1129 810 1129 q 861 1093 843 1129 q 879 1026 879 1057 q 841 936 879 971 q 722 901 803 901 l 669 947 l 718 947 q 778 962 763 947 q 794 993 794 976 q 778 1046 797 1025 q 757 1079 760 1067 q 769 1101 757 1093 l 803 1124 m 431 1265 q 485 1257 464 1265 q 517 1229 506 1249 q 581 1115 564 1146 q 597 1075 597 1085 q 565 1061 597 1061 q 524 1067 543 1061 q 494 1086 506 1074 q 408 1184 436 1153 q 372 1228 381 1215 q 364 1247 364 1240 q 431 1265 364 1265 z "},"Ở":{"ha":1015,"x_min":79,"x_max":936,"o":"m 507 981 q 826 857 717 981 q 936 489 936 733 q 826 118 936 244 q 507 -8 717 -8 q 189 118 299 -8 q 79 489 79 244 q 189 857 79 733 q 507 981 299 981 m 507 875 q 206 489 206 875 q 507 97 206 97 q 810 489 810 97 q 507 875 810 875 m 803 1124 q 819 1129 810 1129 q 861 1093 843 1129 q 879 1026 879 1057 q 841 936 879 971 q 722 901 803 901 l 669 947 l 718 947 q 778 962 763 947 q 794 993 794 976 q 778 1046 797 1025 q 757 1079 760 1067 q 769 1101 757 1093 l 803 1124 m 578 1182 q 526 1219 578 1219 q 481 1210 494 1219 q 463 1201 468 1201 q 442 1219 454 1201 q 429 1247 429 1238 q 465 1276 429 1261 q 538 1290 501 1290 q 618 1269 572 1290 q 664 1192 664 1249 q 636 1110 664 1146 q 577 1052 608 1074 q 538 1031 546 1031 q 510 1038 528 1031 q 492 1054 492 1044 q 535 1107 492 1085 q 578 1182 578 1129 z "},"Ỡ":{"ha":1015,"x_min":79,"x_max":936,"o":"m 507 981 q 826 857 717 981 q 936 489 936 733 q 826 118 936 244 q 507 -8 717 -8 q 189 118 299 -8 q 79 489 79 244 q 189 857 79 733 q 507 981 299 981 m 507 875 q 206 489 206 875 q 507 97 206 97 q 810 489 810 97 q 507 875 810 875 m 803 1124 q 819 1129 810 1129 q 861 1093 843 1129 q 879 1026 879 1057 q 841 936 879 971 q 722 901 803 901 l 669 947 l 718 947 q 778 962 763 947 q 794 993 794 976 q 778 1046 797 1025 q 757 1079 760 1067 q 769 1101 757 1093 l 803 1124 z "},"Ő":{"ha":1015,"x_min":79,"x_max":936,"o":"m 507 981 q 826 857 717 981 q 936 489 936 733 q 826 118 936 244 q 507 -8 717 -8 q 189 118 299 -8 q 79 489 79 244 q 189 857 79 733 q 507 981 299 981 m 507 875 q 206 489 206 875 q 507 97 206 97 q 810 489 810 97 q 507 875 810 875 m 724 1263 q 790 1244 790 1263 q 782 1225 790 1238 q 746 1181 774 1213 q 660 1083 718 1150 q 630 1065 649 1071 q 589 1058 611 1058 q 557 1072 557 1058 q 574 1113 557 1082 q 638 1226 590 1143 q 669 1254 649 1246 q 724 1263 690 1263 m 519 1263 q 586 1244 586 1263 q 578 1225 586 1238 q 542 1181 569 1213 q 456 1083 514 1150 q 426 1065 444 1071 q 385 1058 407 1058 q 353 1072 353 1058 q 369 1113 353 1082 q 433 1226 385 1143 q 465 1254 444 1246 q 519 1263 486 1263 z "},"Ō":{"ha":1015,"x_min":79,"x_max":936,"o":"m 507 981 q 826 857 717 981 q 936 489 936 733 q 826 118 936 244 q 507 -8 717 -8 q 189 118 299 -8 q 79 489 79 244 q 189 857 79 733 q 507 981 299 981 m 507 875 q 206 489 206 875 q 507 97 206 97 q 810 489 810 97 q 507 875 810 875 m 664 1193 q 692 1151 692 1193 l 692 1138 q 664 1096 692 1096 l 354 1096 q 326 1138 326 1096 l 326 1151 q 354 1193 326 1193 l 664 1193 z "},"Ǫ":{"ha":1015,"x_min":79,"x_max":936,"o":"m 507 981 q 826 857 717 981 q 936 489 936 733 q 826 118 936 244 q 507 -8 717 -8 q 189 118 299 -8 q 79 489 79 244 q 189 857 79 733 q 507 981 299 981 m 507 875 q 206 489 206 875 q 507 97 206 97 q 810 489 810 97 q 507 875 810 875 m 590 19 q 615 -1 615 19 q 607 -39 615 -17 q 599 -86 599 -61 q 630 -147 599 -136 q 685 -157 661 -157 q 720 -150 700 -157 q 757 -143 740 -143 q 783 -178 783 -143 q 753 -240 783 -225 q 669 -254 722 -254 q 560 -227 594 -254 q 515 -167 525 -200 q 506 -112 506 -133 q 519 -32 506 -83 q 590 19 533 19 z "},"Ø":{"ha":1015,"x_min":47,"x_max":936,"o":"m 507 981 q 803 879 693 981 l 879 964 q 899 975 889 975 q 919 965 908 975 q 929 947 929 956 q 921 928 929 939 l 840 839 q 936 489 936 714 q 826 118 936 244 q 507 -8 717 -8 q 190 117 299 -8 l 97 14 q 78 1 86 1 q 58 11 68 1 q 47 31 47 21 q 56 50 47 39 l 157 161 q 79 489 79 285 q 189 857 79 733 q 507 981 299 981 m 754 744 l 274 210 q 507 97 349 97 q 810 489 810 97 q 754 744 810 649 m 507 875 q 206 489 206 875 q 246 260 206 353 l 721 789 q 507 875 646 875 z "},"Ǿ":{"ha":1015,"x_min":47,"x_max":936,"o":"m 507 981 q 803 879 693 981 l 879 964 q 899 975 889 975 q 919 965 908 975 q 929 947 929 956 q 921 928 929 939 l 840 839 q 936 489 936 714 q 826 118 936 244 q 507 -8 717 -8 q 190 117 299 -8 l 97 14 q 78 1 86 1 q 58 11 68 1 q 47 31 47 21 q 56 50 47 39 l 157 161 q 79 489 79 285 q 189 857 79 733 q 507 981 299 981 m 754 744 l 274 210 q 507 97 349 97 q 810 489 810 97 q 754 744 810 649 m 507 875 q 206 489 206 875 q 246 260 206 353 l 721 789 q 507 875 646 875 m 619 1263 q 686 1244 686 1263 q 678 1225 686 1238 q 642 1181 669 1213 q 556 1083 614 1150 q 526 1065 544 1071 q 485 1058 507 1058 q 453 1072 453 1058 q 469 1113 453 1082 q 533 1226 486 1143 q 565 1254 544 1246 q 619 1263 586 1263 z "},"Õ":{"ha":1015,"x_min":79,"x_max":936,"o":"m 507 981 q 826 857 717 981 q 936 489 936 733 q 826 118 936 244 q 507 -8 717 -8 q 189 118 299 -8 q 79 489 79 244 q 189 857 79 733 q 507 981 299 981 m 507 875 q 206 489 206 875 q 507 97 206 97 q 810 489 810 97 q 507 875 810 875 z "},"Œ":{"ha":1418,"x_min":79,"x_max":1372,"o":"m 507 981 q 833 842 726 981 l 813 814 l 813 931 q 854 972 813 972 l 1343 972 q 1371 931 1371 972 l 1371 908 q 1343 867 1371 867 l 935 867 l 935 550 l 1301 550 q 1329 508 1329 550 l 1329 486 q 1301 444 1329 444 l 935 444 l 935 106 l 1344 106 q 1372 64 1372 106 l 1372 42 q 1344 0 1372 0 l 854 0 q 813 42 813 0 l 813 161 l 833 133 q 507 -8 728 -8 q 189 118 299 -8 q 79 489 79 244 q 189 857 79 733 q 507 981 299 981 m 507 875 q 206 489 206 875 q 507 97 206 97 q 810 489 810 97 q 507 875 810 875 z "},"P":{"ha":792,"x_min":118,"x_max":751,"o":"m 442 972 q 574 953 501 972 q 699 875 646 933 q 751 700 751 817 q 716 547 751 604 q 631 462 681 490 q 532 424 581 433 q 456 414 483 414 l 240 414 l 240 28 q 185 -3 240 -3 l 174 -3 q 118 28 118 -3 l 118 931 q 160 972 118 972 l 442 972 m 438 867 l 240 867 l 240 519 l 457 519 q 524 533 485 519 q 594 586 564 547 q 625 700 625 625 q 562 835 625 803 q 438 867 499 867 z "},"Þ":{"ha":788,"x_min":118,"x_max":751,"o":"m 185 975 q 240 944 240 975 l 240 803 l 442 803 q 574 783 501 803 q 699 706 646 764 q 751 531 751 647 q 716 378 751 435 q 631 292 681 321 q 532 254 581 264 q 456 244 483 244 l 240 244 l 240 28 q 185 -3 240 -3 l 174 -3 q 118 28 118 -3 l 118 944 q 174 975 118 975 l 185 975 m 438 697 l 240 697 l 240 350 l 457 350 q 524 364 485 350 q 594 417 564 378 q 625 531 625 456 q 562 665 625 633 q 438 697 499 697 z "},"Q":{"ha":1015,"x_min":79,"x_max":950,"o":"m 507 981 q 826 853 717 981 q 936 482 936 725 q 657 7 936 82 l 657 1 l 931 -85 q 950 -106 950 -92 q 942 -138 950 -114 q 922 -184 935 -162 q 892 -206 908 -206 q 833 -185 886 -206 q 703 -135 781 -165 q 548 -74 626 -106 q 412 -20 469 -43 q 342 8 354 3 q 79 482 79 113 q 189 853 79 726 q 507 981 299 981 m 507 875 q 285 774 364 875 q 206 482 206 672 q 285 192 206 292 q 507 93 364 93 q 731 193 651 93 q 810 482 810 293 q 731 774 810 672 q 507 875 651 875 z "},"R":{"ha":847,"x_min":135,"x_max":822,"o":"m 410 972 q 658 915 572 972 q 744 726 744 858 q 701 578 744 636 q 585 492 658 521 l 585 486 q 656 426 628 472 q 710 313 683 381 l 818 39 q 822 19 822 26 q 764 -3 822 -3 l 750 -3 q 694 19 703 -3 l 589 292 q 511 400 558 372 q 382 428 464 428 l 257 428 l 257 28 q 201 -3 257 -3 l 190 -3 q 135 28 135 -3 l 135 931 q 176 972 135 972 l 410 972 m 431 867 l 257 867 l 257 533 l 440 533 q 567 585 515 533 q 618 704 618 636 q 567 828 618 789 q 431 867 515 867 z "},"Ŕ":{"ha":847,"x_min":135,"x_max":822,"o":"m 410 972 q 658 915 572 972 q 744 726 744 858 q 701 578 744 636 q 585 492 658 521 l 585 486 q 656 426 628 472 q 710 313 683 381 l 818 39 q 822 19 822 26 q 764 -3 822 -3 l 750 -3 q 694 19 703 -3 l 589 292 q 511 400 558 372 q 382 428 464 428 l 257 428 l 257 28 q 201 -3 257 -3 l 190 -3 q 135 28 135 -3 l 135 931 q 176 972 135 972 l 410 972 m 431 867 l 257 867 l 257 533 l 440 533 q 567 585 515 533 q 618 704 618 636 q 567 828 618 789 q 431 867 515 867 m 535 1263 q 601 1244 601 1263 q 593 1225 601 1238 q 557 1181 585 1213 q 471 1083 529 1150 q 441 1065 460 1071 q 400 1058 422 1058 q 368 1072 368 1058 q 385 1113 368 1082 q 449 1226 401 1143 q 481 1254 460 1246 q 535 1263 501 1263 z "},"Ř":{"ha":847,"x_min":135,"x_max":822,"o":"m 410 972 q 658 915 572 972 q 744 726 744 858 q 701 578 744 636 q 585 492 658 521 l 585 486 q 656 426 628 472 q 710 313 683 381 l 818 39 q 822 19 822 26 q 764 -3 822 -3 l 750 -3 q 694 19 703 -3 l 589 292 q 511 400 558 372 q 382 428 464 428 l 257 428 l 257 28 q 201 -3 257 -3 l 190 -3 q 135 28 135 -3 l 135 931 q 176 972 135 972 l 410 972 m 431 867 l 257 867 l 257 533 l 440 533 q 567 585 515 533 q 618 704 618 636 q 567 828 618 789 q 431 867 515 867 m 558 1251 q 592 1231 592 1251 q 583 1207 592 1219 l 504 1085 q 477 1062 493 1069 q 440 1054 461 1054 l 406 1054 q 368 1062 385 1054 q 342 1085 351 1069 l 264 1207 q 256 1232 256 1221 q 288 1251 256 1251 l 290 1251 q 315 1247 304 1251 q 338 1233 326 1243 l 422 1131 l 510 1233 q 531 1247 521 1243 q 556 1251 542 1251 l 558 1251 z "},"Ŗ":{"ha":847,"x_min":135,"x_max":822,"o":"m 410 972 q 658 915 572 972 q 744 726 744 858 q 701 578 744 636 q 585 492 658 521 l 585 486 q 656 426 628 472 q 710 313 683 381 l 818 39 q 822 19 822 26 q 764 -3 822 -3 l 750 -3 q 694 19 703 -3 l 589 292 q 511 400 558 372 q 382 428 464 428 l 257 428 l 257 28 q 201 -3 257 -3 l 190 -3 q 135 28 135 -3 l 135 931 q 176 972 135 972 l 410 972 m 431 867 l 257 867 l 257 533 l 440 533 q 567 585 515 533 q 618 704 618 636 q 567 828 618 789 q 431 867 515 867 m 429 -71 q 485 -110 485 -71 q 458 -225 485 -176 q 398 -300 432 -274 q 342 -326 364 -326 q 316 -322 331 -326 q 301 -306 301 -318 q 331 -238 301 -282 q 361 -115 361 -194 q 417 -71 361 -71 l 429 -71 z "},"Ṛ":{"ha":847,"x_min":135,"x_max":822,"o":"m 410 972 q 658 915 572 972 q 744 726 744 858 q 701 578 744 636 q 585 492 658 521 l 585 486 q 656 426 628 472 q 710 313 683 381 l 818 39 q 822 19 822 26 q 764 -3 822 -3 l 750 -3 q 694 19 703 -3 l 589 292 q 511 400 558 372 q 382 428 464 428 l 257 428 l 257 28 q 201 -3 257 -3 l 190 -3 q 135 28 135 -3 l 135 931 q 176 972 135 972 l 410 972 m 431 867 l 257 867 l 257 533 l 440 533 q 567 585 515 533 q 618 704 618 636 q 567 828 618 789 q 431 867 515 867 z "},"S":{"ha":694,"x_min":51,"x_max":647,"o":"m 378 981 q 469 969 417 981 q 562 940 522 958 q 601 896 601 921 q 584 851 601 881 q 557 822 567 822 q 499 849 542 822 q 375 875 457 875 q 247 835 297 875 q 196 718 196 794 q 253 611 196 642 q 385 553 310 581 q 508 498 447 529 q 608 411 568 467 q 647 261 647 356 q 609 117 647 178 q 502 24 571 57 q 339 -8 433 -8 q 134 28 217 -8 q 51 93 51 65 q 70 139 51 110 q 100 168 89 168 q 173 133 114 168 q 339 97 232 97 q 469 142 418 97 q 521 261 521 188 q 456 382 521 344 q 311 450 392 419 q 197 501 253 472 q 106 582 142 531 q 69 724 69 633 q 154 908 69 836 q 378 981 239 981 z "},"Ś":{"ha":694,"x_min":51,"x_max":647,"o":"m 378 981 q 469 969 417 981 q 562 940 522 958 q 601 896 601 921 q 584 851 601 881 q 557 822 567 822 q 499 849 542 822 q 375 875 457 875 q 247 835 297 875 q 196 718 196 794 q 253 611 196 642 q 385 553 310 581 q 508 498 447 529 q 608 411 568 467 q 647 261 647 356 q 609 117 647 178 q 502 24 571 57 q 339 -8 433 -8 q 134 28 217 -8 q 51 93 51 65 q 70 139 51 110 q 100 168 89 168 q 173 133 114 168 q 339 97 232 97 q 469 142 418 97 q 521 261 521 188 q 456 382 521 344 q 311 450 392 419 q 197 501 253 472 q 106 582 142 531 q 69 724 69 633 q 154 908 69 836 q 378 981 239 981 m 458 1263 q 525 1244 525 1263 q 517 1225 525 1238 q 481 1181 508 1213 q 394 1083 453 1150 q 365 1065 383 1071 q 324 1058 346 1058 q 292 1072 292 1058 q 308 1113 292 1082 q 372 1226 325 1143 q 404 1254 383 1246 q 458 1263 425 1263 z "},"Š":{"ha":694,"x_min":51,"x_max":647,"o":"m 378 981 q 469 969 417 981 q 562 940 522 958 q 601 896 601 921 q 584 851 601 881 q 557 822 567 822 q 499 849 542 822 q 375 875 457 875 q 247 835 297 875 q 196 718 196 794 q 253 611 196 642 q 385 553 310 581 q 508 498 447 529 q 608 411 568 467 q 647 261 647 356 q 609 117 647 178 q 502 24 571 57 q 339 -8 433 -8 q 134 28 217 -8 q 51 93 51 65 q 70 139 51 110 q 100 168 89 168 q 173 133 114 168 q 339 97 232 97 q 469 142 418 97 q 521 261 521 188 q 456 382 521 344 q 311 450 392 419 q 197 501 253 472 q 106 582 142 531 q 69 724 69 633 q 154 908 69 836 q 378 981 239 981 m 482 1251 q 515 1231 515 1251 q 507 1207 515 1219 l 428 1085 q 401 1062 417 1069 q 364 1054 385 1054 l 329 1054 q 292 1062 308 1054 q 265 1085 275 1069 l 188 1207 q 179 1232 179 1221 q 211 1251 179 1251 l 214 1251 q 239 1247 228 1251 q 261 1233 250 1243 l 346 1131 l 433 1233 q 455 1247 444 1243 q 479 1251 465 1251 l 482 1251 z "},"Ş":{"ha":694,"x_min":51,"x_max":647,"o":"m 378 981 q 469 969 417 981 q 562 940 522 958 q 601 896 601 921 q 584 851 601 881 q 557 822 567 822 q 499 849 542 822 q 375 875 457 875 q 247 835 297 875 q 196 718 196 794 q 253 611 196 642 q 385 553 310 581 q 508 498 447 529 q 608 411 568 467 q 647 261 647 356 q 609 117 647 178 q 502 24 571 57 q 339 -8 433 -8 q 134 28 217 -8 q 51 93 51 65 q 70 139 51 110 q 100 168 89 168 q 173 133 114 168 q 339 97 232 97 q 469 142 418 97 q 521 261 521 188 q 456 382 521 344 q 311 450 392 419 q 197 501 253 472 q 106 582 142 531 q 69 724 69 633 q 154 908 69 836 q 378 981 239 981 m 381 0 l 357 -82 l 344 -68 l 367 -68 q 437 -84 389 -68 q 485 -168 485 -100 q 431 -271 485 -250 q 325 -292 378 -292 q 222 -276 278 -292 q 165 -232 165 -260 q 171 -208 165 -219 q 192 -196 176 -196 q 238 -210 208 -196 q 307 -224 267 -224 q 359 -215 332 -224 q 386 -175 386 -207 q 363 -135 386 -144 q 317 -119 340 -125 q 294 -94 294 -114 q 299 -71 294 -86 q 321 0 303 -56 l 381 0 z "},"Ŝ":{"ha":694,"x_min":51,"x_max":647,"o":"m 378 981 q 469 969 417 981 q 562 940 522 958 q 601 896 601 921 q 584 851 601 881 q 557 822 567 822 q 499 849 542 822 q 375 875 457 875 q 247 835 297 875 q 196 718 196 794 q 253 611 196 642 q 385 553 310 581 q 508 498 447 529 q 608 411 568 467 q 647 261 647 356 q 609 117 647 178 q 502 24 571 57 q 339 -8 433 -8 q 134 28 217 -8 q 51 93 51 65 q 70 139 51 110 q 100 168 89 168 q 173 133 114 168 q 339 97 232 97 q 469 142 418 97 q 521 261 521 188 q 456 382 521 344 q 311 450 392 419 q 197 501 253 472 q 106 582 142 531 q 69 724 69 633 q 154 908 69 836 q 378 981 239 981 m 364 1243 q 401 1235 385 1243 q 428 1213 418 1228 l 507 1090 q 515 1067 515 1078 q 482 1046 515 1046 l 479 1046 q 454 1050 465 1046 q 433 1064 443 1054 l 346 1167 l 261 1064 q 240 1050 251 1054 q 214 1046 229 1046 l 211 1046 q 179 1065 179 1046 q 188 1090 179 1076 l 265 1213 q 292 1235 276 1228 q 329 1243 308 1243 l 364 1243 z "},"Ș":{"ha":694,"x_min":51,"x_max":647,"o":"m 378 981 q 469 969 417 981 q 562 940 522 958 q 601 896 601 921 q 584 851 601 881 q 557 822 567 822 q 499 849 542 822 q 375 875 457 875 q 247 835 297 875 q 196 718 196 794 q 253 611 196 642 q 385 553 310 581 q 508 498 447 529 q 608 411 568 467 q 647 261 647 356 q 609 117 647 178 q 502 24 571 57 q 339 -8 433 -8 q 134 28 217 -8 q 51 93 51 65 q 70 139 51 110 q 100 168 89 168 q 173 133 114 168 q 339 97 232 97 q 469 142 418 97 q 521 261 521 188 q 456 382 521 344 q 311 450 392 419 q 197 501 253 472 q 106 582 142 531 q 69 724 69 633 q 154 908 69 836 q 378 981 239 981 m 353 -71 q 408 -110 408 -71 q 382 -225 408 -176 q 322 -300 356 -274 q 265 -326 288 -326 q 240 -322 254 -326 q 225 -306 225 -318 q 255 -238 225 -282 q 285 -115 285 -194 q 340 -71 285 -71 l 353 -71 z "},"Ṣ":{"ha":694,"x_min":51,"x_max":647,"o":"m 378 981 q 469 969 417 981 q 562 940 522 958 q 601 896 601 921 q 584 851 601 881 q 557 822 567 822 q 499 849 542 822 q 375 875 457 875 q 247 835 297 875 q 196 718 196 794 q 253 611 196 642 q 385 553 310 581 q 508 498 447 529 q 608 411 568 467 q 647 261 647 356 q 609 117 647 178 q 502 24 571 57 q 339 -8 433 -8 q 134 28 217 -8 q 51 93 51 65 q 70 139 51 110 q 100 168 89 168 q 173 133 114 168 q 339 97 232 97 q 469 142 418 97 q 521 261 521 188 q 456 382 521 344 q 311 450 392 419 q 197 501 253 472 q 106 582 142 531 q 69 724 69 633 q 154 908 69 836 q 378 981 239 981 z "},"ẞ":{"ha":972,"x_min":128,"x_max":917,"o":"m 647 557 q 841 474 765 539 q 917 282 917 408 q 865 111 917 175 q 739 19 814 47 q 593 -8 664 -8 q 479 4 525 -8 q 404 35 433 17 q 356 71 375 53 q 374 115 356 90 q 404 140 393 140 q 478 116 447 140 q 582 92 508 92 q 722 131 649 92 q 796 283 796 169 q 735 428 796 389 q 574 467 674 467 l 525 467 q 503 493 514 467 q 492 540 492 519 q 496 557 492 550 l 707 846 q 624 866 672 857 q 511 875 575 875 q 314 809 378 875 q 250 596 250 743 l 250 28 q 194 -3 250 -3 l 183 -3 q 128 28 128 -3 l 128 597 q 508 981 128 983 q 692 963 607 978 q 829 932 776 947 q 848 906 836 931 q 860 858 860 881 q 856 842 860 847 l 647 557 z "},"Ə":{"ha":933,"x_min":63,"x_max":811,"o":"m 418 -12 q 219 39 299 -12 q 101 192 140 90 q 63 447 63 294 q 79 482 63 460 q 108 504 96 504 l 686 504 q 609 790 674 700 q 417 881 544 881 q 218 838 289 881 q 131 794 147 794 q 99 824 117 794 q 82 864 82 853 q 126 913 82 886 q 244 960 169 940 q 415 981 319 981 q 714 854 617 981 q 811 461 811 728 q 713 106 811 225 q 418 -12 614 -12 m 422 88 q 612 166 544 88 q 686 404 679 244 l 186 404 q 244 166 186 244 q 422 88 303 88 z "},"T":{"ha":763,"x_min":28,"x_max":735,"o":"m 707 972 q 735 931 735 972 l 735 908 q 707 867 735 867 l 444 867 l 444 28 q 389 -3 444 -3 l 378 -3 q 322 28 322 -3 l 322 867 l 56 867 q 28 908 28 867 l 28 931 q 56 972 28 972 l 707 972 z "},"Ŧ":{"ha":763,"x_min":28,"x_max":735,"o":"m 707 972 q 735 931 735 972 l 735 908 q 707 867 735 867 l 444 867 l 444 28 q 389 -3 444 -3 l 378 -3 q 322 28 322 -3 l 322 867 l 56 867 q 28 908 28 867 l 28 931 q 56 972 28 972 l 707 972 m 639 539 q 667 497 667 539 l 667 483 q 639 442 667 442 l 135 442 q 107 483 107 442 l 107 497 q 135 539 107 539 l 639 539 z "},"Ť":{"ha":763,"x_min":28,"x_max":735,"o":"m 707 972 q 735 931 735 972 l 735 908 q 707 867 735 867 l 444 867 l 444 28 q 389 -3 444 -3 l 378 -3 q 322 28 322 -3 l 322 867 l 56 867 q 28 908 28 867 l 28 931 q 56 972 28 972 l 707 972 m 517 1251 q 550 1231 550 1251 q 542 1207 550 1219 l 463 1085 q 435 1062 451 1069 q 399 1054 419 1054 l 364 1054 q 326 1062 343 1054 q 300 1085 310 1069 l 222 1207 q 214 1232 214 1221 q 246 1251 214 1251 l 249 1251 q 274 1247 263 1251 q 296 1233 285 1243 l 381 1131 l 468 1233 q 490 1247 479 1243 q 514 1251 500 1251 l 517 1251 z "},"Ţ":{"ha":763,"x_min":28,"x_max":735,"o":"m 707 972 q 735 931 735 972 l 735 908 q 707 867 735 867 l 444 867 l 444 28 q 389 -3 444 -3 l 378 -3 q 322 28 322 -3 l 322 867 l 56 867 q 28 908 28 867 l 28 931 q 56 972 28 972 l 707 972 m 415 0 l 392 -82 l 379 -68 l 401 -68 q 472 -84 424 -68 q 519 -168 519 -100 q 466 -271 519 -250 q 360 -292 413 -292 q 256 -276 313 -292 q 200 -232 200 -260 q 206 -208 200 -219 q 226 -196 211 -196 q 272 -210 243 -196 q 342 -224 301 -224 q 394 -215 367 -224 q 421 -175 421 -207 q 398 -135 421 -144 q 352 -119 375 -125 q 329 -94 329 -114 q 333 -71 329 -86 q 356 0 338 -56 l 415 0 z "},"Ț":{"ha":763,"x_min":28,"x_max":735,"o":"m 707 972 q 735 931 735 972 l 735 908 q 707 867 735 867 l 444 867 l 444 28 q 389 -3 444 -3 l 378 -3 q 322 28 322 -3 l 322 867 l 56 867 q 28 908 28 867 l 28 931 q 56 972 28 972 l 707 972 m 388 -71 q 443 -110 443 -71 q 417 -225 443 -176 q 356 -300 390 -274 q 300 -326 322 -326 q 274 -322 289 -326 q 260 -306 260 -318 q 290 -238 260 -282 q 319 -115 319 -194 q 375 -71 319 -71 l 388 -71 z "},"Ṭ":{"ha":763,"x_min":28,"x_max":735,"o":"m 707 972 q 735 931 735 972 l 735 908 q 707 867 735 867 l 444 867 l 444 28 q 389 -3 444 -3 l 378 -3 q 322 28 322 -3 l 322 867 l 56 867 q 28 908 28 867 l 28 931 q 56 972 28 972 l 707 972 z "},"U":{"ha":989,"x_min":115,"x_max":874,"o":"m 818 975 q 874 944 874 975 l 874 311 q 776 76 874 161 q 494 -8 678 -8 q 213 76 310 -8 q 115 311 115 161 l 115 944 q 171 975 115 975 l 182 975 q 238 944 238 975 l 238 307 q 310 156 238 214 q 494 97 383 97 q 678 156 606 97 q 751 307 751 215 l 751 944 q 807 975 751 975 l 818 975 z "},"Ú":{"ha":989,"x_min":115,"x_max":874,"o":"m 818 975 q 874 944 874 975 l 874 311 q 776 76 874 161 q 494 -8 678 -8 q 213 76 310 -8 q 115 311 115 161 l 115 944 q 171 975 115 975 l 182 975 q 238 944 238 975 l 238 307 q 310 156 238 214 q 494 97 383 97 q 678 156 606 97 q 751 307 751 215 l 751 944 q 807 975 751 975 l 818 975 m 606 1263 q 672 1244 672 1263 q 664 1225 672 1238 q 628 1181 656 1213 q 542 1083 600 1150 q 512 1065 531 1071 q 471 1058 493 1058 q 439 1072 439 1058 q 456 1113 439 1082 q 519 1226 472 1143 q 551 1254 531 1246 q 606 1263 572 1263 z "},"Ŭ":{"ha":989,"x_min":115,"x_max":874,"o":"m 818 975 q 874 944 874 975 l 874 311 q 776 76 874 161 q 494 -8 678 -8 q 213 76 310 -8 q 115 311 115 161 l 115 944 q 171 975 115 975 l 182 975 q 238 944 238 975 l 238 307 q 310 156 238 214 q 494 97 383 97 q 678 156 606 97 q 751 307 751 215 l 751 944 q 807 975 751 975 l 818 975 m 675 1239 q 696 1218 696 1239 q 633 1098 696 1138 q 496 1058 569 1058 q 358 1098 421 1058 q 294 1218 294 1138 q 315 1239 294 1239 q 335 1230 333 1239 q 346 1204 338 1221 q 403 1163 361 1175 q 496 1150 444 1150 q 588 1163 547 1150 q 644 1204 629 1175 q 655 1230 653 1221 q 675 1239 657 1239 z "},"Û":{"ha":989,"x_min":115,"x_max":874,"o":"m 818 975 q 874 944 874 975 l 874 311 q 776 76 874 161 q 494 -8 678 -8 q 213 76 310 -8 q 115 311 115 161 l 115 944 q 171 975 115 975 l 182 975 q 238 944 238 975 l 238 307 q 310 156 238 214 q 494 97 383 97 q 678 156 606 97 q 751 307 751 215 l 751 944 q 807 975 751 975 l 818 975 m 511 1243 q 549 1235 532 1243 q 575 1213 565 1228 l 654 1090 q 663 1067 663 1078 q 629 1046 663 1046 l 626 1046 q 601 1050 613 1046 q 581 1064 590 1054 l 493 1167 l 408 1064 q 388 1050 399 1054 q 361 1046 376 1046 l 358 1046 q 326 1065 326 1046 q 335 1090 326 1076 l 413 1213 q 440 1235 424 1228 q 476 1243 456 1243 l 511 1243 z "},"Ü":{"ha":989,"x_min":115,"x_max":874,"o":"m 818 975 q 874 944 874 975 l 874 311 q 776 76 874 161 q 494 -8 678 -8 q 213 76 310 -8 q 115 311 115 161 l 115 944 q 171 975 115 975 l 182 975 q 238 944 238 975 l 238 307 q 310 156 238 214 q 494 97 383 97 q 678 156 606 97 q 751 307 751 215 l 751 944 q 807 975 751 975 l 818 975 m 597 1221 q 653 1190 653 1221 l 653 1119 q 592 1089 653 1089 q 536 1119 536 1089 l 536 1190 q 597 1221 536 1221 m 397 1221 q 453 1190 453 1221 l 453 1119 q 392 1089 453 1089 q 336 1119 336 1089 l 336 1190 q 397 1221 336 1221 z "},"Ụ":{"ha":989,"x_min":115,"x_max":874,"o":"m 818 975 q 874 944 874 975 l 874 311 q 776 76 874 161 q 494 -8 678 -8 q 213 76 310 -8 q 115 311 115 161 l 115 944 q 171 975 115 975 l 182 975 q 238 944 238 975 l 238 307 q 310 156 238 214 q 494 97 383 97 q 678 156 606 97 q 751 307 751 215 l 751 944 q 807 975 751 975 l 818 975 z "},"Ù":{"ha":989,"x_min":115,"x_max":874,"o":"m 818 975 q 874 944 874 975 l 874 311 q 776 76 874 161 q 494 -8 678 -8 q 213 76 310 -8 q 115 311 115 161 l 115 944 q 171 975 115 975 l 182 975 q 238 944 238 975 l 238 307 q 310 156 238 214 q 494 97 383 97 q 678 156 606 97 q 751 307 751 215 l 751 944 q 807 975 751 975 l 818 975 m 397 1263 q 451 1254 431 1263 q 483 1226 472 1246 q 547 1113 531 1143 q 564 1072 564 1082 q 532 1058 564 1058 q 491 1065 510 1058 q 461 1083 472 1071 q 375 1181 403 1150 q 339 1225 347 1213 q 331 1244 331 1238 q 397 1263 331 1263 z "},"Ủ":{"ha":989,"x_min":115,"x_max":874,"o":"m 818 975 q 874 944 874 975 l 874 311 q 776 76 874 161 q 494 -8 678 -8 q 213 76 310 -8 q 115 311 115 161 l 115 944 q 171 975 115 975 l 182 975 q 238 944 238 975 l 238 307 q 310 156 238 214 q 494 97 383 97 q 678 156 606 97 q 751 307 751 215 l 751 944 q 807 975 751 975 l 818 975 m 544 1179 q 493 1217 544 1217 q 448 1208 461 1217 q 429 1199 435 1199 q 408 1217 421 1199 q 396 1244 396 1235 q 432 1273 396 1258 q 504 1288 468 1288 q 585 1267 539 1288 q 631 1189 631 1246 q 603 1107 631 1143 q 544 1049 575 1071 q 504 1028 513 1028 q 476 1035 494 1028 q 458 1051 458 1042 q 501 1104 458 1082 q 544 1179 544 1126 z "},"Ư":{"ha":989,"x_min":115,"x_max":1017,"o":"m 818 975 q 874 944 874 975 l 874 311 q 776 76 874 161 q 494 -8 678 -8 q 213 76 310 -8 q 115 311 115 161 l 115 944 q 171 975 115 975 l 182 975 q 238 944 238 975 l 238 307 q 310 156 238 214 q 494 97 383 97 q 678 156 606 97 q 751 307 751 215 l 751 944 q 807 975 751 975 l 818 975 m 940 1151 q 957 1157 947 1157 q 999 1121 981 1157 q 1017 1054 1017 1085 q 978 964 1017 999 q 860 929 940 929 l 807 975 l 856 975 q 916 990 900 975 q 932 1021 932 1004 q 916 1074 935 1053 q 894 1107 897 1094 q 907 1129 894 1121 l 940 1151 z "},"Ứ":{"ha":989,"x_min":115,"x_max":1017,"o":"m 818 975 q 874 944 874 975 l 874 311 q 776 76 874 161 q 494 -8 678 -8 q 213 76 310 -8 q 115 311 115 161 l 115 944 q 171 975 115 975 l 182 975 q 238 944 238 975 l 238 307 q 310 156 238 214 q 494 97 383 97 q 678 156 606 97 q 751 307 751 215 l 751 944 q 807 975 751 975 l 818 975 m 606 1263 q 672 1244 672 1263 q 664 1225 672 1238 q 628 1181 656 1213 q 542 1083 600 1150 q 512 1065 531 1071 q 471 1058 493 1058 q 439 1072 439 1058 q 456 1113 439 1082 q 519 1226 472 1143 q 551 1254 531 1246 q 606 1263 572 1263 m 940 1151 q 957 1157 947 1157 q 999 1121 981 1157 q 1017 1054 1017 1085 q 978 964 1017 999 q 860 929 940 929 l 807 975 l 856 975 q 916 990 900 975 q 932 1021 932 1004 q 916 1074 935 1053 q 894 1107 897 1094 q 907 1129 894 1121 l 940 1151 z "},"Ự":{"ha":989,"x_min":115,"x_max":1017,"o":"m 818 975 q 874 944 874 975 l 874 311 q 776 76 874 161 q 494 -8 678 -8 q 213 76 310 -8 q 115 311 115 161 l 115 944 q 171 975 115 975 l 182 975 q 238 944 238 975 l 238 307 q 310 156 238 214 q 494 97 383 97 q 678 156 606 97 q 751 307 751 215 l 751 944 q 807 975 751 975 l 818 975 m 940 1151 q 957 1157 947 1157 q 999 1121 981 1157 q 1017 1054 1017 1085 q 978 964 1017 999 q 860 929 940 929 l 807 975 l 856 975 q 916 990 900 975 q 932 1021 932 1004 q 916 1074 935 1053 q 894 1107 897 1094 q 907 1129 894 1121 l 940 1151 z "},"Ừ":{"ha":989,"x_min":115,"x_max":1017,"o":"m 818 975 q 874 944 874 975 l 874 311 q 776 76 874 161 q 494 -8 678 -8 q 213 76 310 -8 q 115 311 115 161 l 115 944 q 171 975 115 975 l 182 975 q 238 944 238 975 l 238 307 q 310 156 238 214 q 494 97 383 97 q 678 156 606 97 q 751 307 751 215 l 751 944 q 807 975 751 975 l 818 975 m 397 1263 q 451 1254 431 1263 q 483 1226 472 1246 q 547 1113 531 1143 q 564 1072 564 1082 q 532 1058 564 1058 q 491 1065 510 1058 q 461 1083 472 1071 q 375 1181 403 1150 q 339 1225 347 1213 q 331 1244 331 1238 q 397 1263 331 1263 m 940 1151 q 957 1157 947 1157 q 999 1121 981 1157 q 1017 1054 1017 1085 q 978 964 1017 999 q 860 929 940 929 l 807 975 l 856 975 q 916 990 900 975 q 932 1021 932 1004 q 916 1074 935 1053 q 894 1107 897 1094 q 907 1129 894 1121 l 940 1151 z "},"Ử":{"ha":989,"x_min":115,"x_max":1017,"o":"m 818 975 q 874 944 874 975 l 874 311 q 776 76 874 161 q 494 -8 678 -8 q 213 76 310 -8 q 115 311 115 161 l 115 944 q 171 975 115 975 l 182 975 q 238 944 238 975 l 238 307 q 310 156 238 214 q 494 97 383 97 q 678 156 606 97 q 751 307 751 215 l 751 944 q 807 975 751 975 l 818 975 m 544 1179 q 493 1217 544 1217 q 448 1208 461 1217 q 429 1199 435 1199 q 408 1217 421 1199 q 396 1244 396 1235 q 432 1273 396 1258 q 504 1288 468 1288 q 585 1267 539 1288 q 631 1189 631 1246 q 603 1107 631 1143 q 544 1049 575 1071 q 504 1028 513 1028 q 476 1035 494 1028 q 458 1051 458 1042 q 501 1104 458 1082 q 544 1179 544 1126 m 940 1151 q 957 1157 947 1157 q 999 1121 981 1157 q 1017 1054 1017 1085 q 978 964 1017 999 q 860 929 940 929 l 807 975 l 856 975 q 916 990 900 975 q 932 1021 932 1004 q 916 1074 935 1053 q 894 1107 897 1094 q 907 1129 894 1121 l 940 1151 z "},"Ữ":{"ha":989,"x_min":115,"x_max":1017,"o":"m 818 975 q 874 944 874 975 l 874 311 q 776 76 874 161 q 494 -8 678 -8 q 213 76 310 -8 q 115 311 115 161 l 115 944 q 171 975 115 975 l 182 975 q 238 944 238 975 l 238 307 q 310 156 238 214 q 494 97 383 97 q 678 156 606 97 q 751 307 751 215 l 751 944 q 807 975 751 975 l 818 975 m 940 1151 q 957 1157 947 1157 q 999 1121 981 1157 q 1017 1054 1017 1085 q 978 964 1017 999 q 860 929 940 929 l 807 975 l 856 975 q 916 990 900 975 q 932 1021 932 1004 q 916 1074 935 1053 q 894 1107 897 1094 q 907 1129 894 1121 l 940 1151 z "},"Ű":{"ha":989,"x_min":115,"x_max":874,"o":"m 818 975 q 874 944 874 975 l 874 311 q 776 76 874 161 q 494 -8 678 -8 q 213 76 310 -8 q 115 311 115 161 l 115 944 q 171 975 115 975 l 182 975 q 238 944 238 975 l 238 307 q 310 156 238 214 q 494 97 383 97 q 678 156 606 97 q 751 307 751 215 l 751 944 q 807 975 751 975 l 818 975 m 710 1263 q 776 1244 776 1263 q 768 1225 776 1238 q 732 1181 760 1213 q 646 1083 704 1150 q 616 1065 635 1071 q 575 1058 597 1058 q 543 1072 543 1058 q 560 1113 543 1082 q 624 1226 576 1143 q 656 1254 635 1246 q 710 1263 676 1263 m 506 1263 q 572 1244 572 1263 q 564 1225 572 1238 q 528 1181 556 1213 q 442 1083 500 1150 q 412 1065 431 1071 q 371 1058 393 1058 q 339 1072 339 1058 q 355 1113 339 1082 q 419 1226 371 1143 q 451 1254 431 1246 q 506 1263 472 1263 z "},"Ū":{"ha":989,"x_min":115,"x_max":874,"o":"m 818 975 q 874 944 874 975 l 874 311 q 776 76 874 161 q 494 -8 678 -8 q 213 76 310 -8 q 115 311 115 161 l 115 944 q 171 975 115 975 l 182 975 q 238 944 238 975 l 238 307 q 310 156 238 214 q 494 97 383 97 q 678 156 606 97 q 751 307 751 215 l 751 944 q 807 975 751 975 l 818 975 m 650 1193 q 678 1151 678 1193 l 678 1138 q 650 1096 678 1096 l 340 1096 q 313 1138 313 1096 l 313 1151 q 340 1193 313 1193 l 650 1193 z "},"Ų":{"ha":989,"x_min":115,"x_max":874,"o":"m 818 975 q 874 944 874 975 l 874 311 q 776 76 874 161 q 494 -8 678 -8 q 213 76 310 -8 q 115 311 115 161 l 115 944 q 171 975 115 975 l 182 975 q 238 944 238 975 l 238 307 q 310 156 238 214 q 494 97 383 97 q 678 156 606 97 q 751 307 751 215 l 751 944 q 807 975 751 975 l 818 975 m 574 19 q 599 -1 599 19 q 590 -39 599 -17 q 582 -86 582 -61 q 613 -147 582 -136 q 668 -157 644 -157 q 703 -150 683 -157 q 740 -143 724 -143 q 767 -178 767 -143 q 736 -240 767 -225 q 653 -254 706 -254 q 543 -227 578 -254 q 499 -167 508 -200 q 489 -112 489 -133 q 503 -32 489 -83 q 574 19 517 19 z "},"Ů":{"ha":989,"x_min":115,"x_max":874,"o":"m 818 975 q 874 944 874 975 l 874 311 q 776 76 874 161 q 494 -8 678 -8 q 213 76 310 -8 q 115 311 115 161 l 115 944 q 171 975 115 975 l 182 975 q 238 944 238 975 l 238 307 q 310 156 238 214 q 494 97 383 97 q 678 156 606 97 q 751 307 751 215 l 751 944 q 807 975 751 975 l 818 975 m 494 1264 q 578 1229 543 1264 q 613 1146 613 1194 q 578 1063 613 1097 q 494 1029 543 1029 q 412 1063 446 1029 q 378 1146 378 1097 q 412 1229 378 1194 q 494 1264 446 1264 m 494 1215 q 446 1195 465 1215 q 426 1146 426 1175 q 494 1078 426 1078 q 544 1097 524 1078 q 564 1146 564 1117 q 544 1195 564 1175 q 494 1215 524 1215 z "},"Ũ":{"ha":989,"x_min":115,"x_max":874,"o":"m 818 975 q 874 944 874 975 l 874 311 q 776 76 874 161 q 494 -8 678 -8 q 213 76 310 -8 q 115 311 115 161 l 115 944 q 171 975 115 975 l 182 975 q 238 944 238 975 l 238 307 q 310 156 238 214 q 494 97 383 97 q 678 156 606 97 q 751 307 751 215 l 751 944 q 807 975 751 975 l 818 975 z "},"V":{"ha":857,"x_min":29,"x_max":828,"o":"m 768 975 q 828 951 828 975 q 824 932 828 944 l 506 19 q 450 -3 499 -3 l 407 -3 q 351 19 358 -3 l 33 933 q 29 951 29 944 q 89 975 29 975 l 101 975 q 157 953 150 975 l 414 211 l 428 139 l 432 139 l 447 213 l 704 953 q 760 975 711 975 l 768 975 z "},"W":{"ha":1225,"x_min":21,"x_max":1204,"o":"m 1144 975 q 1204 951 1204 975 q 1200 932 1204 949 l 960 19 q 904 -3 954 -3 l 847 -3 q 810 2 826 -3 q 792 19 794 7 l 640 585 l 611 765 l 582 585 l 431 19 q 375 -3 425 -3 l 318 -3 q 263 19 268 -3 l 25 932 q 22 942 24 936 q 21 951 21 947 q 81 975 21 975 l 94 975 q 150 953 144 975 l 326 269 q 342 192 333 242 q 351 140 350 143 q 368 207 360 174 q 385 274 376 240 l 553 951 q 607 975 558 975 l 629 975 q 683 951 678 975 l 856 268 q 872 186 865 232 q 879 140 879 140 q 896 206 888 174 q 913 272 904 239 l 1081 953 q 1136 975 1086 975 l 1144 975 z "},"Ẃ":{"ha":1225,"x_min":21,"x_max":1204,"o":"m 1144 975 q 1204 951 1204 975 q 1200 932 1204 949 l 960 19 q 904 -3 954 -3 l 847 -3 q 810 2 826 -3 q 792 19 794 7 l 640 585 l 611 765 l 582 585 l 431 19 q 375 -3 425 -3 l 318 -3 q 263 19 268 -3 l 25 932 q 22 942 24 936 q 21 951 21 947 q 81 975 21 975 l 94 975 q 150 953 144 975 l 326 269 q 342 192 333 242 q 351 140 350 143 q 368 207 360 174 q 385 274 376 240 l 553 951 q 607 975 558 975 l 629 975 q 683 951 678 975 l 856 268 q 872 186 865 232 q 879 140 879 140 q 896 206 888 174 q 913 272 904 239 l 1081 953 q 1136 975 1086 975 l 1144 975 m 724 1263 q 790 1244 790 1263 q 782 1225 790 1238 q 746 1181 774 1213 q 660 1083 718 1150 q 630 1065 649 1071 q 589 1058 611 1058 q 557 1072 557 1058 q 574 1113 557 1082 q 638 1226 590 1143 q 669 1254 649 1246 q 724 1263 690 1263 z "},"Ŵ":{"ha":1225,"x_min":21,"x_max":1204,"o":"m 1144 975 q 1204 951 1204 975 q 1200 932 1204 949 l 960 19 q 904 -3 954 -3 l 847 -3 q 810 2 826 -3 q 792 19 794 7 l 640 585 l 611 765 l 582 585 l 431 19 q 375 -3 425 -3 l 318 -3 q 263 19 268 -3 l 25 932 q 22 942 24 936 q 21 951 21 947 q 81 975 21 975 l 94 975 q 150 953 144 975 l 326 269 q 342 192 333 242 q 351 140 350 143 q 368 207 360 174 q 385 274 376 240 l 553 951 q 607 975 558 975 l 629 975 q 683 951 678 975 l 856 268 q 872 186 865 232 q 879 140 879 140 q 896 206 888 174 q 913 272 904 239 l 1081 953 q 1136 975 1086 975 l 1144 975 m 629 1243 q 667 1235 650 1243 q 693 1213 683 1228 l 772 1090 q 781 1067 781 1078 q 747 1046 781 1046 l 744 1046 q 719 1050 731 1046 q 699 1064 708 1054 l 611 1167 l 526 1064 q 506 1050 517 1054 q 479 1046 494 1046 l 476 1046 q 444 1065 444 1046 q 453 1090 444 1076 l 531 1213 q 558 1235 542 1228 q 594 1243 574 1243 l 629 1243 z "},"Ẅ":{"ha":1225,"x_min":21,"x_max":1204,"o":"m 1144 975 q 1204 951 1204 975 q 1200 932 1204 949 l 960 19 q 904 -3 954 -3 l 847 -3 q 810 2 826 -3 q 792 19 794 7 l 640 585 l 611 765 l 582 585 l 431 19 q 375 -3 425 -3 l 318 -3 q 263 19 268 -3 l 25 932 q 22 942 24 936 q 21 951 21 947 q 81 975 21 975 l 94 975 q 150 953 144 975 l 326 269 q 342 192 333 242 q 351 140 350 143 q 368 207 360 174 q 385 274 376 240 l 553 951 q 607 975 558 975 l 629 975 q 683 951 678 975 l 856 268 q 872 186 865 232 q 879 140 879 140 q 896 206 888 174 q 913 272 904 239 l 1081 953 q 1136 975 1086 975 l 1144 975 m 715 1221 q 771 1190 771 1221 l 771 1119 q 710 1089 771 1089 q 654 1119 654 1089 l 654 1190 q 715 1221 654 1221 m 515 1221 q 571 1190 571 1221 l 571 1119 q 510 1089 571 1089 q 454 1119 454 1089 l 454 1190 q 515 1221 454 1221 z "},"Ẁ":{"ha":1225,"x_min":21,"x_max":1204,"o":"m 1144 975 q 1204 951 1204 975 q 1200 932 1204 949 l 960 19 q 904 -3 954 -3 l 847 -3 q 810 2 826 -3 q 792 19 794 7 l 640 585 l 611 765 l 582 585 l 431 19 q 375 -3 425 -3 l 318 -3 q 263 19 268 -3 l 25 932 q 22 942 24 936 q 21 951 21 947 q 81 975 21 975 l 94 975 q 150 953 144 975 l 326 269 q 342 192 333 242 q 351 140 350 143 q 368 207 360 174 q 385 274 376 240 l 553 951 q 607 975 558 975 l 629 975 q 683 951 678 975 l 856 268 q 872 186 865 232 q 879 140 879 140 q 896 206 888 174 q 913 272 904 239 l 1081 953 q 1136 975 1086 975 l 1144 975 m 515 1263 q 569 1254 549 1263 q 601 1226 590 1246 q 665 1113 649 1143 q 682 1072 682 1082 q 650 1058 682 1058 q 609 1065 628 1058 q 579 1083 590 1071 q 493 1181 521 1150 q 457 1225 465 1213 q 449 1244 449 1238 q 515 1263 449 1263 z "},"X":{"ha":849,"x_min":28,"x_max":822,"o":"m 724 975 q 788 951 788 975 q 776 926 788 946 l 499 514 l 811 46 q 822 21 822 31 q 758 -3 822 -3 l 736 -3 q 676 18 690 -3 l 421 400 l 163 17 q 139 1 156 6 q 103 -3 122 -3 l 92 -3 q 28 21 28 -3 q 39 46 28 31 l 350 507 l 72 926 q 61 951 61 942 q 125 975 61 975 l 144 975 q 204 954 190 975 l 426 619 l 656 956 q 680 971 663 967 q 715 975 697 975 l 724 975 z "},"Y":{"ha":776,"x_min":25,"x_max":751,"o":"m 688 975 l 697 975 q 751 951 751 974 q 740 926 751 946 l 449 494 l 449 28 q 393 -3 449 -3 l 382 -3 q 326 28 326 -3 l 326 499 l 36 926 q 25 951 25 942 q 89 975 25 975 l 104 975 q 164 954 150 975 l 392 613 l 625 956 q 688 975 638 975 z "},"Ý":{"ha":776,"x_min":25,"x_max":751,"o":"m 688 975 l 697 975 q 751 951 751 974 q 740 926 751 946 l 449 494 l 449 28 q 393 -3 449 -3 l 382 -3 q 326 28 326 -3 l 326 499 l 36 926 q 25 951 25 942 q 89 975 25 975 l 104 975 q 164 954 150 975 l 392 613 l 625 956 q 688 975 638 975 m 500 1263 q 567 1244 567 1263 q 558 1225 567 1238 q 522 1181 550 1213 q 436 1083 494 1150 q 406 1065 425 1071 q 365 1058 388 1058 q 333 1072 333 1058 q 350 1113 333 1082 q 414 1226 367 1143 q 446 1254 425 1246 q 500 1263 467 1263 z "},"Ŷ":{"ha":776,"x_min":25,"x_max":751,"o":"m 688 975 l 697 975 q 751 951 751 974 q 740 926 751 946 l 449 494 l 449 28 q 393 -3 449 -3 l 382 -3 q 326 28 326 -3 l 326 499 l 36 926 q 25 951 25 942 q 89 975 25 975 l 104 975 q 164 954 150 975 l 392 613 l 625 956 q 688 975 638 975 m 406 1243 q 443 1235 426 1243 q 469 1213 460 1228 l 549 1090 q 557 1067 557 1078 q 524 1046 557 1046 l 521 1046 q 496 1050 507 1046 q 475 1064 485 1054 l 388 1167 l 303 1064 q 282 1050 293 1054 q 256 1046 271 1046 l 253 1046 q 221 1065 221 1046 q 229 1090 221 1076 l 307 1213 q 334 1235 318 1228 q 371 1243 350 1243 l 406 1243 z "},"Ÿ":{"ha":776,"x_min":25,"x_max":751,"o":"m 688 975 l 697 975 q 751 951 751 974 q 740 926 751 946 l 449 494 l 449 28 q 393 -3 449 -3 l 382 -3 q 326 28 326 -3 l 326 499 l 36 926 q 25 951 25 942 q 89 975 25 975 l 104 975 q 164 954 150 975 l 392 613 l 625 956 q 688 975 638 975 m 492 1221 q 547 1190 547 1221 l 547 1119 q 486 1089 547 1089 q 431 1119 431 1089 l 431 1190 q 492 1221 431 1221 m 292 1221 q 347 1190 347 1221 l 347 1119 q 286 1089 347 1089 q 231 1119 231 1089 l 231 1190 q 292 1221 231 1221 z "},"Ỵ":{"ha":776,"x_min":25,"x_max":751,"o":"m 688 975 l 697 975 q 751 951 751 974 q 740 926 751 946 l 449 494 l 449 28 q 393 -3 449 -3 l 382 -3 q 326 28 326 -3 l 326 499 l 36 926 q 25 951 25 942 q 89 975 25 975 l 104 975 q 164 954 150 975 l 392 613 l 625 956 q 688 975 638 975 z "},"Ỳ":{"ha":776,"x_min":25,"x_max":751,"o":"m 688 975 l 697 975 q 751 951 751 974 q 740 926 751 946 l 449 494 l 449 28 q 393 -3 449 -3 l 382 -3 q 326 28 326 -3 l 326 499 l 36 926 q 25 951 25 942 q 89 975 25 975 l 104 975 q 164 954 150 975 l 392 613 l 625 956 q 688 975 638 975 m 292 1263 q 346 1254 325 1263 q 378 1226 367 1246 q 442 1113 425 1143 q 458 1072 458 1082 q 426 1058 458 1058 q 385 1065 404 1058 q 356 1083 367 1071 q 269 1181 297 1150 q 233 1225 242 1213 q 225 1244 225 1238 q 292 1263 225 1263 z "},"Ỷ":{"ha":776,"x_min":25,"x_max":751,"o":"m 688 975 l 697 975 q 751 951 751 974 q 740 926 751 946 l 449 494 l 449 28 q 393 -3 449 -3 l 382 -3 q 326 28 326 -3 l 326 499 l 36 926 q 25 951 25 942 q 89 975 25 975 l 104 975 q 164 954 150 975 l 392 613 l 625 956 q 688 975 638 975 m 439 1179 q 388 1217 439 1217 q 342 1208 356 1217 q 324 1199 329 1199 q 303 1217 315 1199 q 290 1244 290 1235 q 326 1273 290 1258 q 399 1288 363 1288 q 479 1267 433 1288 q 525 1189 525 1246 q 497 1107 525 1143 q 438 1049 469 1071 q 399 1028 407 1028 q 371 1035 389 1028 q 353 1051 353 1042 q 396 1104 353 1082 q 439 1179 439 1126 z "},"Ỹ":{"ha":776,"x_min":25,"x_max":751,"o":"m 688 975 l 697 975 q 751 951 751 974 q 740 926 751 946 l 449 494 l 449 28 q 393 -3 449 -3 l 382 -3 q 326 28 326 -3 l 326 499 l 36 926 q 25 951 25 942 q 89 975 25 975 l 104 975 q 164 954 150 975 l 392 613 l 625 956 q 688 975 638 975 z "},"Z":{"ha":856,"x_min":53,"x_max":793,"o":"m 763 972 q 781 947 769 972 q 793 899 793 921 q 789 882 793 889 l 219 106 l 763 106 q 790 58 790 106 l 790 47 q 763 0 790 0 l 86 0 q 64 26 75 0 q 53 74 53 53 q 57 90 53 83 l 626 867 l 126 867 q 99 914 99 867 l 99 925 q 126 972 99 972 l 763 972 z "},"Ź":{"ha":856,"x_min":53,"x_max":793,"o":"m 763 972 q 781 947 769 972 q 793 899 793 921 q 789 882 793 889 l 219 106 l 763 106 q 790 58 790 106 l 790 47 q 763 0 790 0 l 86 0 q 64 26 75 0 q 53 74 53 53 q 57 90 53 83 l 626 867 l 126 867 q 99 914 99 867 l 99 925 q 126 972 99 972 l 763 972 m 539 1263 q 606 1244 606 1263 q 597 1225 606 1238 q 561 1181 589 1213 q 475 1083 533 1150 q 445 1065 464 1071 q 404 1058 426 1058 q 372 1072 372 1058 q 389 1113 372 1082 q 453 1226 406 1143 q 485 1254 464 1246 q 539 1263 506 1263 z "},"Ž":{"ha":856,"x_min":53,"x_max":793,"o":"m 763 972 q 781 947 769 972 q 793 899 793 921 q 789 882 793 889 l 219 106 l 763 106 q 790 58 790 106 l 790 47 q 763 0 790 0 l 86 0 q 64 26 75 0 q 53 74 53 53 q 57 90 53 83 l 626 867 l 126 867 q 99 914 99 867 l 99 925 q 126 972 99 972 l 763 972 m 563 1251 q 596 1231 596 1251 q 588 1207 596 1219 l 508 1085 q 481 1062 497 1069 q 444 1054 465 1054 l 410 1054 q 372 1062 389 1054 q 346 1085 356 1069 l 268 1207 q 260 1232 260 1221 q 292 1251 260 1251 l 294 1251 q 319 1247 308 1251 q 342 1233 331 1243 l 426 1131 l 514 1233 q 535 1247 525 1243 q 560 1251 546 1251 l 563 1251 z "},"Ż":{"ha":856,"x_min":53,"x_max":793,"o":"m 763 972 q 781 947 769 972 q 793 899 793 921 q 789 882 793 889 l 219 106 l 763 106 q 790 58 790 106 l 790 47 q 763 0 790 0 l 86 0 q 64 26 75 0 q 53 74 53 53 q 57 90 53 83 l 626 867 l 126 867 q 99 914 99 867 l 99 925 q 126 972 99 972 l 763 972 m 431 1221 q 486 1190 486 1221 l 486 1119 q 425 1089 486 1089 q 369 1119 369 1089 l 369 1190 q 431 1221 369 1221 z "},"Ẓ":{"ha":856,"x_min":53,"x_max":793,"o":"m 763 972 q 781 947 769 972 q 793 899 793 921 q 789 882 793 889 l 219 106 l 763 106 q 790 58 790 106 l 790 47 q 763 0 790 0 l 86 0 q 64 26 75 0 q 53 74 53 53 q 57 90 53 83 l 626 867 l 126 867 q 99 914 99 867 l 99 925 q 126 972 99 972 l 763 972 z "},"a":{"ha":757,"x_min":68,"x_max":663,"o":"m 372 735 q 574 677 501 735 q 646 517 646 619 l 646 206 q 654 78 646 119 q 663 31 663 36 q 647 10 663 17 q 615 1 632 4 q 588 -1 597 -1 q 553 33 563 -1 q 539 96 544 67 q 442 22 500 53 q 306 -8 383 -8 q 136 42 204 -8 q 68 200 68 93 q 139 370 68 317 q 316 438 210 424 q 529 453 422 451 l 529 518 q 496 600 529 565 q 376 635 463 635 q 226 606 282 635 q 160 576 169 576 q 128 606 144 576 q 111 646 111 635 q 190 703 111 672 q 372 735 268 735 m 529 353 q 379 346 457 353 q 247 309 301 339 q 193 207 193 279 q 311 93 193 93 q 438 122 388 93 q 529 189 488 151 l 529 353 z "},"á":{"ha":757,"x_min":68,"x_max":663,"o":"m 372 735 q 574 677 501 735 q 646 517 646 619 l 646 206 q 654 78 646 119 q 663 31 663 36 q 647 10 663 17 q 615 1 632 4 q 588 -1 597 -1 q 553 33 563 -1 q 539 96 544 67 q 442 22 500 53 q 306 -8 383 -8 q 136 42 204 -8 q 68 200 68 93 q 139 370 68 317 q 316 438 210 424 q 529 453 422 451 l 529 518 q 496 600 529 565 q 376 635 463 635 q 226 606 282 635 q 160 576 169 576 q 128 606 144 576 q 111 646 111 635 q 190 703 111 672 q 372 735 268 735 m 529 353 q 379 346 457 353 q 247 309 301 339 q 193 207 193 279 q 311 93 193 93 q 438 122 388 93 q 529 189 488 151 l 529 353 m 490 1017 q 557 999 557 1017 q 549 979 557 992 q 513 935 540 967 q 426 838 485 904 q 397 819 415 825 q 356 813 378 813 q 324 826 324 813 q 340 867 324 836 q 404 981 357 897 q 436 1008 415 1000 q 490 1017 457 1017 z "},"ă":{"ha":757,"x_min":68,"x_max":663,"o":"m 372 735 q 574 677 501 735 q 646 517 646 619 l 646 206 q 654 78 646 119 q 663 31 663 36 q 647 10 663 17 q 615 1 632 4 q 588 -1 597 -1 q 553 33 563 -1 q 539 96 544 67 q 442 22 500 53 q 306 -8 383 -8 q 136 42 204 -8 q 68 200 68 93 q 139 370 68 317 q 316 438 210 424 q 529 453 422 451 l 529 518 q 496 600 529 565 q 376 635 463 635 q 226 606 282 635 q 160 576 169 576 q 128 606 144 576 q 111 646 111 635 q 190 703 111 672 q 372 735 268 735 m 529 353 q 379 346 457 353 q 247 309 301 339 q 193 207 193 279 q 311 93 193 93 q 438 122 388 93 q 529 189 488 151 l 529 353 m 560 993 q 581 972 581 993 q 517 852 581 892 q 381 813 454 813 q 242 852 306 813 q 179 972 179 892 q 200 993 179 993 q 220 984 218 993 q 231 958 222 975 q 288 917 246 929 q 381 904 329 904 q 473 917 432 904 q 529 958 514 929 q 540 984 538 975 q 560 993 542 993 z "},"ắ":{"ha":757,"x_min":68,"x_max":663,"o":"m 372 735 q 574 677 501 735 q 646 517 646 619 l 646 206 q 654 78 646 119 q 663 31 663 36 q 647 10 663 17 q 615 1 632 4 q 588 -1 597 -1 q 553 33 563 -1 q 539 96 544 67 q 442 22 500 53 q 306 -8 383 -8 q 136 42 204 -8 q 68 200 68 93 q 139 370 68 317 q 316 438 210 424 q 529 453 422 451 l 529 518 q 496 600 529 565 q 376 635 463 635 q 226 606 282 635 q 160 576 169 576 q 128 606 144 576 q 111 646 111 635 q 190 703 111 672 q 372 735 268 735 m 529 353 q 379 346 457 353 q 247 309 301 339 q 193 207 193 279 q 311 93 193 93 q 438 122 388 93 q 529 189 488 151 l 529 353 m 560 993 q 581 972 581 993 q 517 852 581 892 q 381 813 454 813 q 242 852 306 813 q 179 972 179 892 q 200 993 179 993 q 220 984 218 993 q 231 958 222 975 q 288 917 246 929 q 381 904 329 904 q 473 917 432 904 q 529 958 514 929 q 540 984 538 975 q 560 993 542 993 m 492 1222 q 558 1204 558 1222 q 550 1185 558 1197 q 514 1141 542 1172 q 428 1043 486 1110 q 398 1024 417 1031 q 357 1018 379 1018 q 325 1032 325 1018 q 342 1072 325 1042 q 406 1186 358 1103 q 438 1214 417 1206 q 492 1222 458 1222 z "},"ặ":{"ha":757,"x_min":68,"x_max":663,"o":"m 372 735 q 574 677 501 735 q 646 517 646 619 l 646 206 q 654 78 646 119 q 663 31 663 36 q 647 10 663 17 q 615 1 632 4 q 588 -1 597 -1 q 553 33 563 -1 q 539 96 544 67 q 442 22 500 53 q 306 -8 383 -8 q 136 42 204 -8 q 68 200 68 93 q 139 370 68 317 q 316 438 210 424 q 529 453 422 451 l 529 518 q 496 600 529 565 q 376 635 463 635 q 226 606 282 635 q 160 576 169 576 q 128 606 144 576 q 111 646 111 635 q 190 703 111 672 q 372 735 268 735 m 529 353 q 379 346 457 353 q 247 309 301 339 q 193 207 193 279 q 311 93 193 93 q 438 122 388 93 q 529 189 488 151 l 529 353 m 560 993 q 581 972 581 993 q 517 852 581 892 q 381 813 454 813 q 242 852 306 813 q 179 972 179 892 q 200 993 179 993 q 220 984 218 993 q 231 958 222 975 q 288 917 246 929 q 381 904 329 904 q 473 917 432 904 q 529 958 514 929 q 540 984 538 975 q 560 993 542 993 z "},"ằ":{"ha":757,"x_min":68,"x_max":663,"o":"m 372 735 q 574 677 501 735 q 646 517 646 619 l 646 206 q 654 78 646 119 q 663 31 663 36 q 647 10 663 17 q 615 1 632 4 q 588 -1 597 -1 q 553 33 563 -1 q 539 96 544 67 q 442 22 500 53 q 306 -8 383 -8 q 136 42 204 -8 q 68 200 68 93 q 139 370 68 317 q 316 438 210 424 q 529 453 422 451 l 529 518 q 496 600 529 565 q 376 635 463 635 q 226 606 282 635 q 160 576 169 576 q 128 606 144 576 q 111 646 111 635 q 190 703 111 672 q 372 735 268 735 m 529 353 q 379 346 457 353 q 247 309 301 339 q 193 207 193 279 q 311 93 193 93 q 438 122 388 93 q 529 189 488 151 l 529 353 m 560 993 q 581 972 581 993 q 517 852 581 892 q 381 813 454 813 q 242 852 306 813 q 179 972 179 892 q 200 993 179 993 q 220 984 218 993 q 231 958 222 975 q 288 917 246 929 q 381 904 329 904 q 473 917 432 904 q 529 958 514 929 q 540 984 538 975 q 560 993 542 993 m 283 1222 q 338 1214 317 1222 q 369 1186 358 1206 q 433 1072 417 1103 q 450 1032 450 1042 q 418 1018 450 1018 q 377 1024 396 1018 q 347 1043 358 1031 q 261 1141 289 1110 q 225 1185 233 1172 q 217 1204 217 1197 q 283 1222 217 1222 z "},"ẳ":{"ha":757,"x_min":68,"x_max":663,"o":"m 372 735 q 574 677 501 735 q 646 517 646 619 l 646 206 q 654 78 646 119 q 663 31 663 36 q 647 10 663 17 q 615 1 632 4 q 588 -1 597 -1 q 553 33 563 -1 q 539 96 544 67 q 442 22 500 53 q 306 -8 383 -8 q 136 42 204 -8 q 68 200 68 93 q 139 370 68 317 q 316 438 210 424 q 529 453 422 451 l 529 518 q 496 600 529 565 q 376 635 463 635 q 226 606 282 635 q 160 576 169 576 q 128 606 144 576 q 111 646 111 635 q 190 703 111 672 q 372 735 268 735 m 529 353 q 379 346 457 353 q 247 309 301 339 q 193 207 193 279 q 311 93 193 93 q 438 122 388 93 q 529 189 488 151 l 529 353 m 560 993 q 581 972 581 993 q 517 852 581 892 q 381 813 454 813 q 242 852 306 813 q 179 972 179 892 q 200 993 179 993 q 220 984 218 993 q 231 958 222 975 q 288 917 246 929 q 381 904 329 904 q 473 917 432 904 q 529 958 514 929 q 540 984 538 975 q 560 993 542 993 m 431 1139 q 379 1176 431 1176 q 334 1167 347 1176 q 315 1158 321 1158 q 294 1176 307 1158 q 282 1204 282 1194 q 318 1233 282 1218 q 390 1247 354 1247 q 471 1226 425 1247 q 517 1149 517 1206 q 489 1067 517 1103 q 430 1009 461 1031 q 390 988 399 988 q 363 994 381 988 q 344 1011 344 1001 q 388 1064 344 1042 q 431 1139 431 1086 z "},"ẵ":{"ha":757,"x_min":68,"x_max":663,"o":"m 372 735 q 574 677 501 735 q 646 517 646 619 l 646 206 q 654 78 646 119 q 663 31 663 36 q 647 10 663 17 q 615 1 632 4 q 588 -1 597 -1 q 553 33 563 -1 q 539 96 544 67 q 442 22 500 53 q 306 -8 383 -8 q 136 42 204 -8 q 68 200 68 93 q 139 370 68 317 q 316 438 210 424 q 529 453 422 451 l 529 518 q 496 600 529 565 q 376 635 463 635 q 226 606 282 635 q 160 576 169 576 q 128 606 144 576 q 111 646 111 635 q 190 703 111 672 q 372 735 268 735 m 529 353 q 379 346 457 353 q 247 309 301 339 q 193 207 193 279 q 311 93 193 93 q 438 122 388 93 q 529 189 488 151 l 529 353 m 560 993 q 581 972 581 993 q 517 852 581 892 q 381 813 454 813 q 242 852 306 813 q 179 972 179 892 q 200 993 179 993 q 220 984 218 993 q 231 958 222 975 q 288 917 246 929 q 381 904 329 904 q 473 917 432 904 q 529 958 514 929 q 540 984 538 975 q 560 993 542 993 m 281 1231 q 396 1201 336 1231 q 500 1171 456 1171 q 529 1180 517 1171 q 556 1211 542 1189 q 574 1230 565 1226 q 593 1228 582 1233 l 603 1224 q 617 1210 615 1218 q 613 1188 619 1203 q 563 1115 592 1136 q 497 1093 535 1093 q 378 1123 439 1093 q 274 1153 318 1153 q 247 1143 258 1153 q 221 1111 235 1133 q 204 1092 211 1096 q 185 1094 197 1089 l 172 1100 q 160 1113 161 1106 q 164 1135 158 1121 q 213 1209 185 1188 q 281 1231 242 1231 z "},"â":{"ha":757,"x_min":68,"x_max":663,"o":"m 372 735 q 574 677 501 735 q 646 517 646 619 l 646 206 q 654 78 646 119 q 663 31 663 36 q 647 10 663 17 q 615 1 632 4 q 588 -1 597 -1 q 553 33 563 -1 q 539 96 544 67 q 442 22 500 53 q 306 -8 383 -8 q 136 42 204 -8 q 68 200 68 93 q 139 370 68 317 q 316 438 210 424 q 529 453 422 451 l 529 518 q 496 600 529 565 q 376 635 463 635 q 226 606 282 635 q 160 576 169 576 q 128 606 144 576 q 111 646 111 635 q 190 703 111 672 q 372 735 268 735 m 529 353 q 379 346 457 353 q 247 309 301 339 q 193 207 193 279 q 311 93 193 93 q 438 122 388 93 q 529 189 488 151 l 529 353 m 396 997 q 433 990 417 997 q 460 967 450 982 l 539 844 q 547 821 547 832 q 514 800 547 800 l 511 800 q 486 804 497 800 q 465 818 475 808 l 378 921 l 293 818 q 272 804 283 808 q 246 800 261 800 l 243 800 q 211 819 211 800 q 219 844 211 831 l 297 967 q 324 990 308 982 q 361 997 340 997 l 396 997 z "},"ấ":{"ha":757,"x_min":68,"x_max":753,"o":"m 372 735 q 574 677 501 735 q 646 517 646 619 l 646 206 q 654 78 646 119 q 663 31 663 36 q 647 10 663 17 q 615 1 632 4 q 588 -1 597 -1 q 553 33 563 -1 q 539 96 544 67 q 442 22 500 53 q 306 -8 383 -8 q 136 42 204 -8 q 68 200 68 93 q 139 370 68 317 q 316 438 210 424 q 529 453 422 451 l 529 518 q 496 600 529 565 q 376 635 463 635 q 226 606 282 635 q 160 576 169 576 q 128 606 144 576 q 111 646 111 635 q 190 703 111 672 q 372 735 268 735 m 529 353 q 379 346 457 353 q 247 309 301 339 q 193 207 193 279 q 311 93 193 93 q 438 122 388 93 q 529 189 488 151 l 529 353 m 401 997 q 431 989 418 997 q 451 967 443 981 l 524 844 q 532 821 532 832 q 499 800 532 800 l 496 800 q 469 804 482 800 q 450 818 456 808 l 383 921 l 299 818 q 278 804 289 808 q 251 800 267 800 l 249 800 q 217 819 217 800 q 225 844 217 831 l 303 967 q 330 990 314 982 q 367 997 346 997 l 401 997 m 686 1196 q 753 1178 753 1196 q 744 1158 753 1171 q 708 1115 736 1146 q 622 1017 681 1083 q 592 998 611 1004 q 551 992 574 992 q 519 1006 519 992 q 536 1046 519 1015 q 600 1160 553 1076 q 632 1188 611 1179 q 686 1196 653 1196 z "},"ậ":{"ha":757,"x_min":68,"x_max":663,"o":"m 372 735 q 574 677 501 735 q 646 517 646 619 l 646 206 q 654 78 646 119 q 663 31 663 36 q 647 10 663 17 q 615 1 632 4 q 588 -1 597 -1 q 553 33 563 -1 q 539 96 544 67 q 442 22 500 53 q 306 -8 383 -8 q 136 42 204 -8 q 68 200 68 93 q 139 370 68 317 q 316 438 210 424 q 529 453 422 451 l 529 518 q 496 600 529 565 q 376 635 463 635 q 226 606 282 635 q 160 576 169 576 q 128 606 144 576 q 111 646 111 635 q 190 703 111 672 q 372 735 268 735 m 529 353 q 379 346 457 353 q 247 309 301 339 q 193 207 193 279 q 311 93 193 93 q 438 122 388 93 q 529 189 488 151 l 529 353 m 396 997 q 433 990 417 997 q 460 967 450 982 l 539 844 q 547 821 547 832 q 514 800 547 800 l 511 800 q 486 804 497 800 q 465 818 475 808 l 378 921 l 293 818 q 272 804 283 808 q 246 800 261 800 l 243 800 q 211 819 211 800 q 219 844 211 831 l 297 967 q 324 990 308 982 q 361 997 340 997 l 396 997 z "},"ầ":{"ha":757,"x_min":68,"x_max":663,"o":"m 372 735 q 574 677 501 735 q 646 517 646 619 l 646 206 q 654 78 646 119 q 663 31 663 36 q 647 10 663 17 q 615 1 632 4 q 588 -1 597 -1 q 553 33 563 -1 q 539 96 544 67 q 442 22 500 53 q 306 -8 383 -8 q 136 42 204 -8 q 68 200 68 93 q 139 370 68 317 q 316 438 210 424 q 529 453 422 451 l 529 518 q 496 600 529 565 q 376 635 463 635 q 226 606 282 635 q 160 576 169 576 q 128 606 144 576 q 111 646 111 635 q 190 703 111 672 q 372 735 268 735 m 529 353 q 379 346 457 353 q 247 309 301 339 q 193 207 193 279 q 311 93 193 93 q 438 122 388 93 q 529 189 488 151 l 529 353 m 401 997 q 431 989 418 997 q 451 967 443 981 l 524 844 q 532 821 532 832 q 499 800 532 800 l 496 800 q 469 804 482 800 q 450 818 456 808 l 383 921 l 299 818 q 278 804 289 808 q 251 800 267 800 l 249 800 q 217 819 217 800 q 225 844 217 831 l 303 967 q 330 990 314 982 q 367 997 346 997 l 401 997 m 478 1196 q 532 1188 511 1196 q 564 1160 553 1179 q 628 1046 611 1076 q 644 1006 644 1015 q 613 992 644 992 q 572 998 590 992 q 542 1017 553 1004 q 456 1115 483 1083 q 419 1158 428 1146 q 411 1178 411 1171 q 478 1196 411 1196 z "},"ẩ":{"ha":757,"x_min":68,"x_max":711,"o":"m 372 735 q 574 677 501 735 q 646 517 646 619 l 646 206 q 654 78 646 119 q 663 31 663 36 q 647 10 663 17 q 615 1 632 4 q 588 -1 597 -1 q 553 33 563 -1 q 539 96 544 67 q 442 22 500 53 q 306 -8 383 -8 q 136 42 204 -8 q 68 200 68 93 q 139 370 68 317 q 316 438 210 424 q 529 453 422 451 l 529 518 q 496 600 529 565 q 376 635 463 635 q 226 606 282 635 q 160 576 169 576 q 128 606 144 576 q 111 646 111 635 q 190 703 111 672 q 372 735 268 735 m 529 353 q 379 346 457 353 q 247 309 301 339 q 193 207 193 279 q 311 93 193 93 q 438 122 388 93 q 529 189 488 151 l 529 353 m 401 997 q 431 989 418 997 q 451 967 443 981 l 524 844 q 532 821 532 832 q 499 800 532 800 l 496 800 q 469 804 482 800 q 450 818 456 808 l 383 921 l 299 818 q 278 804 289 808 q 251 800 267 800 l 249 800 q 217 819 217 800 q 225 844 217 831 l 303 967 q 330 990 314 982 q 367 997 346 997 l 401 997 m 625 1113 q 574 1150 625 1150 q 528 1141 542 1150 q 510 1132 515 1132 q 489 1150 501 1132 q 476 1178 476 1168 q 513 1206 476 1192 q 585 1221 549 1221 q 665 1200 619 1221 q 711 1122 711 1179 q 683 1040 711 1076 q 624 983 656 1004 q 585 961 593 961 q 557 968 575 961 q 539 985 539 975 q 582 1038 539 1015 q 625 1113 625 1060 z "},"ẫ":{"ha":757,"x_min":68,"x_max":663,"o":"m 372 735 q 574 677 501 735 q 646 517 646 619 l 646 206 q 654 78 646 119 q 663 31 663 36 q 647 10 663 17 q 615 1 632 4 q 588 -1 597 -1 q 553 33 563 -1 q 539 96 544 67 q 442 22 500 53 q 306 -8 383 -8 q 136 42 204 -8 q 68 200 68 93 q 139 370 68 317 q 316 438 210 424 q 529 453 422 451 l 529 518 q 496 600 529 565 q 376 635 463 635 q 226 606 282 635 q 160 576 169 576 q 128 606 144 576 q 111 646 111 635 q 190 703 111 672 q 372 735 268 735 m 529 353 q 379 346 457 353 q 247 309 301 339 q 193 207 193 279 q 311 93 193 93 q 438 122 388 93 q 529 189 488 151 l 529 353 m 396 997 q 433 990 417 997 q 460 967 450 982 l 539 844 q 547 821 547 832 q 514 800 547 800 l 511 800 q 486 804 497 800 q 465 818 475 808 l 378 921 l 293 818 q 272 804 283 808 q 246 800 261 800 l 243 800 q 211 819 211 800 q 219 844 211 831 l 297 967 q 324 990 308 982 q 361 997 340 997 l 396 997 m 275 1222 q 390 1192 331 1222 q 494 1163 450 1163 q 524 1172 511 1163 q 550 1203 536 1181 q 568 1222 560 1218 q 588 1219 576 1225 l 597 1215 q 612 1202 610 1210 q 607 1179 614 1194 q 558 1106 586 1128 q 492 1085 529 1085 q 373 1115 433 1085 q 268 1144 313 1144 q 241 1135 253 1144 q 215 1103 229 1125 q 199 1084 206 1088 q 179 1086 192 1081 l 167 1092 q 154 1105 156 1097 q 158 1126 153 1113 q 208 1201 179 1179 q 275 1222 236 1222 z "},"ä":{"ha":757,"x_min":68,"x_max":663,"o":"m 372 735 q 574 677 501 735 q 646 517 646 619 l 646 206 q 654 78 646 119 q 663 31 663 36 q 647 10 663 17 q 615 1 632 4 q 588 -1 597 -1 q 553 33 563 -1 q 539 96 544 67 q 442 22 500 53 q 306 -8 383 -8 q 136 42 204 -8 q 68 200 68 93 q 139 370 68 317 q 316 438 210 424 q 529 453 422 451 l 529 518 q 496 600 529 565 q 376 635 463 635 q 226 606 282 635 q 160 576 169 576 q 128 606 144 576 q 111 646 111 635 q 190 703 111 672 q 372 735 268 735 m 529 353 q 379 346 457 353 q 247 309 301 339 q 193 207 193 279 q 311 93 193 93 q 438 122 388 93 q 529 189 488 151 l 529 353 m 482 975 q 538 944 538 975 l 538 874 q 476 843 538 843 q 421 874 421 843 l 421 944 q 482 975 421 975 m 282 975 q 338 944 338 975 l 338 874 q 276 843 338 843 q 221 874 221 843 l 221 944 q 282 975 221 975 z "},"ạ":{"ha":757,"x_min":68,"x_max":663,"o":"m 372 735 q 574 677 501 735 q 646 517 646 619 l 646 206 q 654 78 646 119 q 663 31 663 36 q 647 10 663 17 q 615 1 632 4 q 588 -1 597 -1 q 553 33 563 -1 q 539 96 544 67 q 442 22 500 53 q 306 -8 383 -8 q 136 42 204 -8 q 68 200 68 93 q 139 370 68 317 q 316 438 210 424 q 529 453 422 451 l 529 518 q 496 600 529 565 q 376 635 463 635 q 226 606 282 635 q 160 576 169 576 q 128 606 144 576 q 111 646 111 635 q 190 703 111 672 q 372 735 268 735 m 529 353 q 379 346 457 353 q 247 309 301 339 q 193 207 193 279 q 311 93 193 93 q 438 122 388 93 q 529 189 488 151 l 529 353 z "},"à":{"ha":757,"x_min":68,"x_max":663,"o":"m 372 735 q 574 677 501 735 q 646 517 646 619 l 646 206 q 654 78 646 119 q 663 31 663 36 q 647 10 663 17 q 615 1 632 4 q 588 -1 597 -1 q 553 33 563 -1 q 539 96 544 67 q 442 22 500 53 q 306 -8 383 -8 q 136 42 204 -8 q 68 200 68 93 q 139 370 68 317 q 316 438 210 424 q 529 453 422 451 l 529 518 q 496 600 529 565 q 376 635 463 635 q 226 606 282 635 q 160 576 169 576 q 128 606 144 576 q 111 646 111 635 q 190 703 111 672 q 372 735 268 735 m 529 353 q 379 346 457 353 q 247 309 301 339 q 193 207 193 279 q 311 93 193 93 q 438 122 388 93 q 529 189 488 151 l 529 353 m 282 1017 q 336 1008 315 1017 q 368 981 357 1000 q 432 867 415 897 q 449 826 449 836 q 417 813 449 813 q 376 819 394 813 q 346 838 357 825 q 260 935 288 904 q 224 979 232 967 q 215 999 215 992 q 282 1017 215 1017 z "},"ả":{"ha":757,"x_min":68,"x_max":663,"o":"m 372 735 q 574 677 501 735 q 646 517 646 619 l 646 206 q 654 78 646 119 q 663 31 663 36 q 647 10 663 17 q 615 1 632 4 q 588 -1 597 -1 q 553 33 563 -1 q 539 96 544 67 q 442 22 500 53 q 306 -8 383 -8 q 136 42 204 -8 q 68 200 68 93 q 139 370 68 317 q 316 438 210 424 q 529 453 422 451 l 529 518 q 496 600 529 565 q 376 635 463 635 q 226 606 282 635 q 160 576 169 576 q 128 606 144 576 q 111 646 111 635 q 190 703 111 672 q 372 735 268 735 m 529 353 q 379 346 457 353 q 247 309 301 339 q 193 207 193 279 q 311 93 193 93 q 438 122 388 93 q 529 189 488 151 l 529 353 m 429 933 q 378 971 429 971 q 333 962 346 971 q 314 953 319 953 q 293 971 306 953 q 281 999 281 989 q 317 1027 281 1013 q 389 1042 353 1042 q 469 1021 424 1042 q 515 943 515 1000 q 488 861 515 897 q 428 803 460 825 q 389 782 397 782 q 361 789 379 782 q 343 806 343 796 q 386 858 343 836 q 429 933 429 881 z "},"ā":{"ha":757,"x_min":68,"x_max":663,"o":"m 372 735 q 574 677 501 735 q 646 517 646 619 l 646 206 q 654 78 646 119 q 663 31 663 36 q 647 10 663 17 q 615 1 632 4 q 588 -1 597 -1 q 553 33 563 -1 q 539 96 544 67 q 442 22 500 53 q 306 -8 383 -8 q 136 42 204 -8 q 68 200 68 93 q 139 370 68 317 q 316 438 210 424 q 529 453 422 451 l 529 518 q 496 600 529 565 q 376 635 463 635 q 226 606 282 635 q 160 576 169 576 q 128 606 144 576 q 111 646 111 635 q 190 703 111 672 q 372 735 268 735 m 529 353 q 379 346 457 353 q 247 309 301 339 q 193 207 193 279 q 311 93 193 93 q 438 122 388 93 q 529 189 488 151 l 529 353 m 535 947 q 563 906 563 947 l 563 892 q 535 850 563 850 l 225 850 q 197 892 197 850 l 197 906 q 225 947 197 947 l 535 947 z "},"ą":{"ha":757,"x_min":68,"x_max":828,"o":"m 372 735 q 574 677 501 735 q 646 517 646 619 l 646 206 q 654 78 646 119 q 663 31 663 36 q 647 10 663 17 q 615 1 632 4 q 588 -1 597 -1 q 553 33 563 -1 q 539 96 544 67 q 442 22 500 53 q 306 -8 383 -8 q 136 42 204 -8 q 68 200 68 93 q 139 370 68 317 q 316 438 210 424 q 529 453 422 451 l 529 518 q 496 600 529 565 q 376 635 463 635 q 226 606 282 635 q 160 576 169 576 q 128 606 144 576 q 111 646 111 635 q 190 703 111 672 q 372 735 268 735 m 529 353 q 379 346 457 353 q 247 309 301 339 q 193 207 193 279 q 311 93 193 93 q 438 122 388 93 q 529 189 488 151 l 529 353 m 635 43 q 660 22 660 43 q 651 -15 660 7 q 643 -62 643 -37 q 674 -123 643 -112 q 729 -133 706 -133 q 765 -126 744 -133 q 801 -119 785 -119 q 828 -154 828 -119 q 797 -216 828 -201 q 714 -231 767 -231 q 604 -203 639 -231 q 560 -143 569 -176 q 550 -89 550 -110 q 564 -8 550 -60 q 635 43 578 43 z "},"å":{"ha":757,"x_min":68,"x_max":663,"o":"m 372 735 q 574 677 501 735 q 646 517 646 619 l 646 206 q 654 78 646 119 q 663 31 663 36 q 647 10 663 17 q 615 1 632 4 q 588 -1 597 -1 q 553 33 563 -1 q 539 96 544 67 q 442 22 500 53 q 306 -8 383 -8 q 136 42 204 -8 q 68 200 68 93 q 139 370 68 317 q 316 438 210 424 q 529 453 422 451 l 529 518 q 496 600 529 565 q 376 635 463 635 q 226 606 282 635 q 160 576 169 576 q 128 606 144 576 q 111 646 111 635 q 190 703 111 672 q 372 735 268 735 m 529 353 q 379 346 457 353 q 247 309 301 339 q 193 207 193 279 q 311 93 193 93 q 438 122 388 93 q 529 189 488 151 l 529 353 m 379 1018 q 463 983 428 1018 q 497 900 497 949 q 463 817 497 851 q 379 783 428 783 q 297 817 331 783 q 263 900 263 851 q 297 983 263 949 q 379 1018 331 1018 m 379 969 q 331 949 350 969 q 311 900 311 929 q 379 832 311 832 q 428 851 408 832 q 449 900 449 871 q 428 949 449 929 q 379 969 408 969 z "},"ǻ":{"ha":757,"x_min":68,"x_max":663,"o":"m 372 735 q 574 677 501 735 q 646 517 646 619 l 646 206 q 654 78 646 119 q 663 31 663 36 q 647 10 663 17 q 615 1 632 4 q 588 -1 597 -1 q 553 33 563 -1 q 539 96 544 67 q 442 22 500 53 q 306 -8 383 -8 q 136 42 204 -8 q 68 200 68 93 q 139 370 68 317 q 316 438 210 424 q 529 453 422 451 l 529 518 q 496 600 529 565 q 376 635 463 635 q 226 606 282 635 q 160 576 169 576 q 128 606 144 576 q 111 646 111 635 q 190 703 111 672 q 372 735 268 735 m 529 353 q 379 346 457 353 q 247 309 301 339 q 193 207 193 279 q 311 93 193 93 q 438 122 388 93 q 529 189 488 151 l 529 353 m 379 1018 q 463 983 428 1018 q 497 900 497 949 q 463 817 497 851 q 379 783 428 783 q 297 817 331 783 q 263 900 263 851 q 297 983 263 949 q 379 1018 331 1018 m 379 969 q 331 949 350 969 q 311 900 311 929 q 379 832 311 832 q 428 851 408 832 q 449 900 449 871 q 428 949 449 929 q 379 969 408 969 m 503 1281 q 569 1263 569 1281 q 561 1243 569 1256 q 525 1199 553 1231 q 439 1101 497 1168 q 409 1083 428 1089 q 368 1076 390 1076 q 336 1090 336 1076 q 353 1131 336 1100 q 417 1244 369 1161 q 449 1272 428 1264 q 503 1281 469 1281 z "},"ã":{"ha":757,"x_min":68,"x_max":663,"o":"m 372 735 q 574 677 501 735 q 646 517 646 619 l 646 206 q 654 78 646 119 q 663 31 663 36 q 647 10 663 17 q 615 1 632 4 q 588 -1 597 -1 q 553 33 563 -1 q 539 96 544 67 q 442 22 500 53 q 306 -8 383 -8 q 136 42 204 -8 q 68 200 68 93 q 139 370 68 317 q 316 438 210 424 q 529 453 422 451 l 529 518 q 496 600 529 565 q 376 635 463 635 q 226 606 282 635 q 160 576 169 576 q 128 606 144 576 q 111 646 111 635 q 190 703 111 672 q 372 735 268 735 m 529 353 q 379 346 457 353 q 247 309 301 339 q 193 207 193 279 q 311 93 193 93 q 438 122 388 93 q 529 189 488 151 l 529 353 z "},"æ":{"ha":1151,"x_min":63,"x_max":1075,"o":"m 789 735 q 1003 647 932 735 q 1075 392 1075 558 q 1058 357 1075 379 q 1029 335 1042 335 l 590 335 q 650 150 599 208 q 804 92 701 92 q 946 121 894 92 q 1007 150 997 150 q 1039 121 1022 150 q 1056 81 1056 92 q 1022 43 1056 64 q 932 7 989 22 q 806 -8 875 -8 q 551 79 635 -8 q 444 18 508 44 q 300 -8 381 -8 q 131 42 199 -8 q 63 200 63 93 q 123 349 63 300 q 276 414 183 397 q 469 433 369 431 q 508 578 478 519 q 460 619 493 603 q 371 635 428 635 q 220 606 276 635 q 154 576 164 576 q 122 606 139 576 q 106 646 106 635 q 184 703 106 672 q 367 735 263 735 q 578 668 504 735 q 789 735 657 735 m 465 333 q 276 310 365 331 q 188 207 188 289 q 306 93 188 93 q 415 114 369 93 q 497 165 460 135 q 465 333 467 236 m 785 635 q 646 584 694 635 q 590 435 597 533 l 951 435 q 785 635 951 635 z "},"ǽ":{"ha":1151,"x_min":63,"x_max":1075,"o":"m 789 735 q 1003 647 932 735 q 1075 392 1075 558 q 1058 357 1075 379 q 1029 335 1042 335 l 590 335 q 650 150 599 208 q 804 92 701 92 q 946 121 894 92 q 1007 150 997 150 q 1039 121 1022 150 q 1056 81 1056 92 q 1022 43 1056 64 q 932 7 989 22 q 806 -8 875 -8 q 551 79 635 -8 q 444 18 508 44 q 300 -8 381 -8 q 131 42 199 -8 q 63 200 63 93 q 123 349 63 300 q 276 414 183 397 q 469 433 369 431 q 508 578 478 519 q 460 619 493 603 q 371 635 428 635 q 220 606 276 635 q 154 576 164 576 q 122 606 139 576 q 106 646 106 635 q 184 703 106 672 q 367 735 263 735 q 578 668 504 735 q 789 735 657 735 m 465 333 q 276 310 365 331 q 188 207 188 289 q 306 93 188 93 q 415 114 369 93 q 497 165 460 135 q 465 333 467 236 m 785 635 q 646 584 694 635 q 590 435 597 533 l 951 435 q 785 635 951 635 m 688 1017 q 754 999 754 1017 q 746 979 754 992 q 710 935 738 967 q 624 838 682 904 q 594 819 613 825 q 553 813 575 813 q 521 826 521 813 q 538 867 521 836 q 601 981 554 897 q 633 1008 613 1000 q 688 1017 654 1017 z "},"b":{"ha":790,"x_min":118,"x_max":715,"o":"m 179 1044 q 235 1014 235 1044 l 235 664 q 322 715 275 694 q 433 735 369 735 q 636 640 557 735 q 715 364 715 544 q 643 97 715 201 q 446 -8 571 -8 q 331 17 386 -8 q 225 96 276 43 q 217 55 222 75 q 203 14 211 35 q 165 -3 196 -3 l 160 -3 q 118 28 118 -3 l 118 1014 q 174 1044 118 1044 l 179 1044 m 407 632 q 317 616 363 632 q 235 569 272 600 l 235 189 q 327 117 278 142 q 422 93 376 93 q 549 166 504 93 q 593 374 593 239 q 407 632 593 628 z "},"c":{"ha":674,"x_min":72,"x_max":632,"o":"m 401 735 q 546 715 482 735 q 610 671 610 696 q 594 625 610 654 q 565 596 579 596 q 550 601 567 596 q 493 622 531 610 q 399 635 456 635 q 252 574 307 635 q 197 369 197 514 q 246 158 197 224 q 413 92 294 92 q 510 105 471 92 q 569 128 550 118 q 585 133 586 133 q 616 106 600 133 q 632 63 632 78 q 603 31 632 47 q 524 3 574 14 q 414 -8 475 -8 q 158 78 244 -8 q 72 367 72 165 q 122 592 72 511 q 247 703 171 672 q 401 735 322 735 z "},"ć":{"ha":674,"x_min":72,"x_max":632,"o":"m 401 735 q 546 715 482 735 q 610 671 610 696 q 594 625 610 654 q 565 596 579 596 q 550 601 567 596 q 493 622 531 610 q 399 635 456 635 q 252 574 307 635 q 197 369 197 514 q 246 158 197 224 q 413 92 294 92 q 510 105 471 92 q 569 128 550 118 q 585 133 586 133 q 616 106 600 133 q 632 63 632 78 q 603 31 632 47 q 524 3 574 14 q 414 -8 475 -8 q 158 78 244 -8 q 72 367 72 165 q 122 592 72 511 q 247 703 171 672 q 401 735 322 735 m 496 1017 q 563 999 563 1017 q 554 979 563 992 q 518 935 546 967 q 432 838 490 904 q 402 819 421 825 q 361 813 383 813 q 329 826 329 813 q 346 867 329 836 q 410 981 363 897 q 442 1008 421 1000 q 496 1017 463 1017 z "},"č":{"ha":674,"x_min":72,"x_max":632,"o":"m 401 735 q 546 715 482 735 q 610 671 610 696 q 594 625 610 654 q 565 596 579 596 q 550 601 567 596 q 493 622 531 610 q 399 635 456 635 q 252 574 307 635 q 197 369 197 514 q 246 158 197 224 q 413 92 294 92 q 510 105 471 92 q 569 128 550 118 q 585 133 586 133 q 616 106 600 133 q 632 63 632 78 q 603 31 632 47 q 524 3 574 14 q 414 -8 475 -8 q 158 78 244 -8 q 72 367 72 165 q 122 592 72 511 q 247 703 171 672 q 401 735 322 735 m 519 1006 q 553 985 553 1006 q 544 961 553 974 l 465 839 q 438 816 454 824 q 401 808 422 808 l 367 808 q 329 816 346 808 q 303 839 313 824 l 225 961 q 217 986 217 975 q 249 1006 217 1006 l 251 1006 q 276 1001 265 1006 q 299 988 288 997 l 383 885 l 471 988 q 492 1001 482 997 q 517 1006 503 1006 l 519 1006 z "},"ç":{"ha":674,"x_min":72,"x_max":632,"o":"m 401 735 q 546 715 482 735 q 610 671 610 696 q 594 625 610 654 q 565 596 579 596 q 550 601 567 596 q 493 622 531 610 q 399 635 456 635 q 252 574 307 635 q 197 369 197 514 q 246 158 197 224 q 413 92 294 92 q 510 105 471 92 q 569 128 550 118 q 585 133 586 133 q 616 106 600 133 q 632 63 632 78 q 603 31 632 47 q 524 3 574 14 q 414 -8 475 -8 q 158 78 244 -8 q 72 367 72 165 q 122 592 72 511 q 247 703 171 672 q 401 735 322 735 m 431 0 l 407 -82 l 394 -68 l 417 -68 q 487 -84 439 -68 q 535 -168 535 -100 q 481 -271 535 -250 q 375 -292 428 -292 q 272 -276 328 -292 q 215 -232 215 -260 q 221 -208 215 -219 q 242 -196 226 -196 q 288 -210 258 -196 q 357 -224 317 -224 q 409 -215 382 -224 q 436 -175 436 -207 q 413 -135 436 -144 q 367 -119 390 -125 q 344 -94 344 -114 q 349 -71 344 -86 q 371 0 353 -56 l 431 0 z "},"ĉ":{"ha":674,"x_min":72,"x_max":632,"o":"m 401 735 q 546 715 482 735 q 610 671 610 696 q 594 625 610 654 q 565 596 579 596 q 550 601 567 596 q 493 622 531 610 q 399 635 456 635 q 252 574 307 635 q 197 369 197 514 q 246 158 197 224 q 413 92 294 92 q 510 105 471 92 q 569 128 550 118 q 585 133 586 133 q 616 106 600 133 q 632 63 632 78 q 603 31 632 47 q 524 3 574 14 q 414 -8 475 -8 q 158 78 244 -8 q 72 367 72 165 q 122 592 72 511 q 247 703 171 672 q 401 735 322 735 m 401 997 q 439 990 422 997 q 465 967 456 982 l 544 844 q 553 821 553 832 q 519 800 553 800 l 517 800 q 492 804 503 800 q 471 818 481 808 l 383 921 l 299 818 q 278 804 289 808 q 251 800 267 800 l 249 800 q 217 819 217 800 q 225 844 217 831 l 303 967 q 330 990 314 982 q 367 997 346 997 l 401 997 z "},"ċ":{"ha":674,"x_min":72,"x_max":632,"o":"m 401 735 q 546 715 482 735 q 610 671 610 696 q 594 625 610 654 q 565 596 579 596 q 550 601 567 596 q 493 622 531 610 q 399 635 456 635 q 252 574 307 635 q 197 369 197 514 q 246 158 197 224 q 413 92 294 92 q 510 105 471 92 q 569 128 550 118 q 585 133 586 133 q 616 106 600 133 q 632 63 632 78 q 603 31 632 47 q 524 3 574 14 q 414 -8 475 -8 q 158 78 244 -8 q 72 367 72 165 q 122 592 72 511 q 247 703 171 672 q 401 735 322 735 m 388 975 q 443 944 443 975 l 443 874 q 382 843 443 843 q 326 874 326 843 l 326 944 q 388 975 326 975 z "},"d":{"ha":785,"x_min":72,"x_max":686,"o":"m 614 1044 q 669 1014 669 1044 l 669 206 q 678 78 669 119 q 686 31 686 36 q 671 10 686 17 q 638 1 656 4 q 611 -1 619 -1 q 578 33 586 -1 q 563 96 569 67 q 456 17 511 43 q 342 -8 401 -8 q 144 97 217 -8 q 72 363 72 201 q 151 640 72 544 q 354 735 231 735 q 466 715 419 735 q 553 664 513 694 l 553 1014 q 608 1044 553 1044 l 614 1044 m 382 632 q 194 374 194 628 q 239 166 194 239 q 365 93 283 93 q 460 117 411 93 q 553 189 510 142 l 553 569 q 472 616 515 600 q 382 632 429 632 z "},"ð":{"ha":790,"x_min":76,"x_max":714,"o":"m 435 992 q 471 975 457 992 q 492 949 481 963 q 517 917 503 936 q 610 930 596 928 q 625 932 624 932 q 652 913 644 932 q 660 888 660 893 q 639 869 660 872 l 556 858 q 669 622 625 749 q 714 360 714 494 q 634 85 714 179 q 399 -8 554 -8 q 159 86 242 -8 q 76 360 76 181 q 160 638 76 540 q 399 735 243 735 q 457 731 429 735 q 510 718 485 726 q 478 785 494 753 q 446 843 461 817 q 344 829 361 832 q 326 826 328 826 q 301 841 311 826 q 290 871 290 856 q 311 889 290 885 l 411 903 q 385 942 396 925 q 375 969 375 958 q 397 989 375 985 q 414 991 404 990 q 435 992 424 992 m 394 635 q 196 363 196 635 q 394 92 196 92 q 593 363 593 92 q 394 635 593 635 z "},"ď":{"ha":785,"x_min":72,"x_max":878,"o":"m 614 1044 q 669 1014 669 1044 l 669 206 q 678 78 669 119 q 686 31 686 36 q 671 10 686 17 q 638 1 656 4 q 611 -1 619 -1 q 578 33 586 -1 q 563 96 569 67 q 456 17 511 43 q 342 -8 401 -8 q 144 97 217 -8 q 72 363 72 201 q 151 640 72 544 q 354 735 231 735 q 466 715 419 735 q 553 664 513 694 l 553 1014 q 608 1044 553 1044 l 614 1044 m 382 632 q 194 374 194 628 q 239 166 194 239 q 365 93 283 93 q 460 117 411 93 q 553 189 510 142 l 553 569 q 472 616 515 600 q 382 632 429 632 m 822 972 q 878 933 878 972 q 840 785 878 839 q 776 731 801 731 q 751 735 765 731 q 736 751 736 739 q 745 814 736 774 q 754 928 754 854 q 810 972 754 972 l 822 972 z "},"đ":{"ha":785,"x_min":72,"x_max":760,"o":"m 614 1044 q 669 1014 669 1044 l 669 206 q 678 78 669 119 q 686 31 686 36 q 671 10 686 17 q 638 1 656 4 q 611 -1 619 -1 q 578 33 586 -1 q 563 96 569 67 q 456 17 511 43 q 342 -8 401 -8 q 144 97 217 -8 q 72 363 72 201 q 151 640 72 544 q 354 735 231 735 q 466 715 419 735 q 553 664 513 694 l 553 1014 q 608 1044 553 1044 l 614 1044 m 382 632 q 194 374 194 628 q 239 166 194 239 q 365 93 283 93 q 460 117 411 93 q 553 189 510 142 l 553 569 q 472 616 515 600 q 382 632 429 632 z "},"ḍ":{"ha":785,"x_min":72,"x_max":686,"o":"m 614 1044 q 669 1014 669 1044 l 669 206 q 678 78 669 119 q 686 31 686 36 q 671 10 686 17 q 638 1 656 4 q 611 -1 619 -1 q 578 33 586 -1 q 563 96 569 67 q 456 17 511 43 q 342 -8 401 -8 q 144 97 217 -8 q 72 363 72 201 q 151 640 72 544 q 354 735 231 735 q 466 715 419 735 q 553 664 513 694 l 553 1014 q 608 1044 553 1044 l 614 1044 m 382 632 q 194 374 194 628 q 239 166 194 239 q 365 93 283 93 q 460 117 411 93 q 553 189 510 142 l 553 569 q 472 616 515 600 q 382 632 429 632 z "},"ǳ":{"ha":1464,"x_min":72,"x_max":1408,"o":"m 614 1044 q 669 1014 669 1044 l 669 206 q 678 78 669 119 q 686 31 686 36 q 671 10 686 17 q 638 1 656 4 q 611 -1 619 -1 q 578 33 586 -1 q 563 96 569 67 q 456 17 511 43 q 342 -8 401 -8 q 144 97 217 -8 q 72 363 72 201 q 151 640 72 544 q 354 735 231 735 q 466 715 419 735 q 553 664 513 694 l 553 1014 q 608 1044 553 1044 l 614 1044 m 382 632 q 194 374 194 628 q 239 166 194 239 q 365 93 283 93 q 460 117 411 93 q 553 189 510 142 l 553 569 q 472 616 515 600 q 382 632 429 632 m 1379 726 q 1399 699 1390 726 q 1407 654 1407 672 q 1404 640 1407 646 l 999 100 l 1381 100 q 1408 58 1408 100 l 1408 42 q 1381 0 1408 0 l 867 0 q 847 25 858 0 q 836 71 836 50 q 840 86 836 81 l 1247 626 l 892 626 q 864 668 864 626 l 864 685 q 892 726 864 726 l 1379 726 z "},"ǆ":{"ha":1464,"x_min":72,"x_max":1408,"o":"m 614 1044 q 669 1014 669 1044 l 669 206 q 678 78 669 119 q 686 31 686 36 q 671 10 686 17 q 638 1 656 4 q 611 -1 619 -1 q 578 33 586 -1 q 563 96 569 67 q 456 17 511 43 q 342 -8 401 -8 q 144 97 217 -8 q 72 363 72 201 q 151 640 72 544 q 354 735 231 735 q 466 715 419 735 q 553 664 513 694 l 553 1014 q 608 1044 553 1044 l 614 1044 m 382 632 q 194 374 194 628 q 239 166 194 239 q 365 93 283 93 q 460 117 411 93 q 553 189 510 142 l 553 569 q 472 616 515 600 q 382 632 429 632 m 1379 726 q 1399 699 1390 726 q 1407 654 1407 672 q 1404 640 1407 646 l 999 100 l 1381 100 q 1408 58 1408 100 l 1408 42 q 1381 0 1408 0 l 867 0 q 847 25 858 0 q 836 71 836 50 q 840 86 836 81 l 1247 626 l 892 626 q 864 668 864 626 l 864 685 q 892 726 864 726 l 1379 726 m 1260 1006 q 1293 985 1293 1006 q 1285 961 1293 974 l 1206 839 q 1178 816 1194 824 q 1142 808 1163 808 l 1107 808 q 1069 816 1086 808 q 1043 839 1053 824 l 965 961 q 957 986 957 975 q 989 1006 957 1006 l 992 1006 q 1017 1001 1006 1006 q 1039 988 1028 997 l 1124 885 l 1211 988 q 1233 1001 1222 997 q 1257 1006 1243 1006 l 1260 1006 z "},"e":{"ha":749,"x_min":76,"x_max":686,"o":"m 400 735 q 615 642 543 735 q 686 372 686 550 q 669 338 686 360 q 640 315 653 315 l 201 315 q 261 146 210 200 q 415 92 313 92 q 557 121 506 92 q 618 150 608 150 q 650 121 633 150 q 667 81 667 92 q 633 43 667 64 q 543 7 600 22 q 417 -8 486 -8 q 160 82 244 -8 q 76 358 76 172 q 158 639 76 543 q 400 735 240 735 m 396 635 q 257 580 306 635 q 201 415 208 525 l 563 415 q 521 580 563 525 q 396 635 479 635 z "},"é":{"ha":749,"x_min":76,"x_max":686,"o":"m 400 735 q 615 642 543 735 q 686 372 686 550 q 669 338 686 360 q 640 315 653 315 l 201 315 q 261 146 210 200 q 415 92 313 92 q 557 121 506 92 q 618 150 608 150 q 650 121 633 150 q 667 81 667 92 q 633 43 667 64 q 543 7 600 22 q 417 -8 486 -8 q 160 82 244 -8 q 76 358 76 172 q 158 639 76 543 q 400 735 240 735 m 396 635 q 257 580 306 635 q 201 415 208 525 l 563 415 q 521 580 563 525 q 396 635 479 635 m 486 1017 q 553 999 553 1017 q 544 979 553 992 q 508 935 536 967 q 422 838 481 904 q 392 819 411 825 q 351 813 374 813 q 319 826 319 813 q 336 867 319 836 q 400 981 353 897 q 432 1008 411 1000 q 486 1017 453 1017 z "},"ĕ":{"ha":749,"x_min":76,"x_max":686,"o":"m 400 735 q 615 642 543 735 q 686 372 686 550 q 669 338 686 360 q 640 315 653 315 l 201 315 q 261 146 210 200 q 415 92 313 92 q 557 121 506 92 q 618 150 608 150 q 650 121 633 150 q 667 81 667 92 q 633 43 667 64 q 543 7 600 22 q 417 -8 486 -8 q 160 82 244 -8 q 76 358 76 172 q 158 639 76 543 q 400 735 240 735 m 396 635 q 257 580 306 635 q 201 415 208 525 l 563 415 q 521 580 563 525 q 396 635 479 635 m 556 993 q 576 972 576 993 q 513 852 576 892 q 376 813 450 813 q 238 852 301 813 q 175 972 175 892 q 196 993 175 993 q 216 984 214 993 q 226 958 218 975 q 283 917 242 929 q 376 904 325 904 q 469 917 428 904 q 525 958 510 929 q 535 984 533 975 q 556 993 538 993 z "},"ě":{"ha":749,"x_min":76,"x_max":686,"o":"m 400 735 q 615 642 543 735 q 686 372 686 550 q 669 338 686 360 q 640 315 653 315 l 201 315 q 261 146 210 200 q 415 92 313 92 q 557 121 506 92 q 618 150 608 150 q 650 121 633 150 q 667 81 667 92 q 633 43 667 64 q 543 7 600 22 q 417 -8 486 -8 q 160 82 244 -8 q 76 358 76 172 q 158 639 76 543 q 400 735 240 735 m 396 635 q 257 580 306 635 q 201 415 208 525 l 563 415 q 521 580 563 525 q 396 635 479 635 m 510 1006 q 543 985 543 1006 q 535 961 543 974 l 456 839 q 428 816 444 824 q 392 808 413 808 l 357 808 q 319 816 336 808 q 293 839 303 824 l 215 961 q 207 986 207 975 q 239 1006 207 1006 l 242 1006 q 267 1001 256 1006 q 289 988 278 997 l 374 885 l 461 988 q 483 1001 472 997 q 507 1006 493 1006 l 510 1006 z "},"ê":{"ha":749,"x_min":76,"x_max":686,"o":"m 400 735 q 615 642 543 735 q 686 372 686 550 q 669 338 686 360 q 640 315 653 315 l 201 315 q 261 146 210 200 q 415 92 313 92 q 557 121 506 92 q 618 150 608 150 q 650 121 633 150 q 667 81 667 92 q 633 43 667 64 q 543 7 600 22 q 417 -8 486 -8 q 160 82 244 -8 q 76 358 76 172 q 158 639 76 543 q 400 735 240 735 m 396 635 q 257 580 306 635 q 201 415 208 525 l 563 415 q 521 580 563 525 q 396 635 479 635 m 392 997 q 429 990 413 997 q 456 967 446 982 l 535 844 q 543 821 543 832 q 510 800 543 800 l 507 800 q 482 804 493 800 q 461 818 471 808 l 374 921 l 289 818 q 268 804 279 808 q 242 800 257 800 l 239 800 q 207 819 207 800 q 215 844 207 831 l 293 967 q 320 990 304 982 q 357 997 336 997 l 392 997 z "},"ế":{"ha":749,"x_min":76,"x_max":749,"o":"m 400 735 q 615 642 543 735 q 686 372 686 550 q 669 338 686 360 q 640 315 653 315 l 201 315 q 261 146 210 200 q 415 92 313 92 q 557 121 506 92 q 618 150 608 150 q 650 121 633 150 q 667 81 667 92 q 633 43 667 64 q 543 7 600 22 q 417 -8 486 -8 q 160 82 244 -8 q 76 358 76 172 q 158 639 76 543 q 400 735 240 735 m 396 635 q 257 580 306 635 q 201 415 208 525 l 563 415 q 521 580 563 525 q 396 635 479 635 m 397 997 q 426 989 414 997 q 447 967 439 981 l 519 844 q 528 821 528 832 q 494 800 528 800 l 492 800 q 465 804 478 800 q 446 818 451 808 l 379 921 l 294 818 q 274 804 285 808 q 247 800 263 800 l 244 800 q 213 819 213 800 q 221 844 213 831 l 299 967 q 326 990 310 982 q 363 997 342 997 l 397 997 m 682 1196 q 749 1178 749 1196 q 740 1158 749 1171 q 704 1115 732 1146 q 618 1017 676 1083 q 588 998 607 1004 q 547 992 569 992 q 515 1006 515 992 q 532 1046 515 1015 q 596 1160 549 1076 q 628 1188 607 1179 q 682 1196 649 1196 z "},"ệ":{"ha":749,"x_min":76,"x_max":686,"o":"m 400 735 q 615 642 543 735 q 686 372 686 550 q 669 338 686 360 q 640 315 653 315 l 201 315 q 261 146 210 200 q 415 92 313 92 q 557 121 506 92 q 618 150 608 150 q 650 121 633 150 q 667 81 667 92 q 633 43 667 64 q 543 7 600 22 q 417 -8 486 -8 q 160 82 244 -8 q 76 358 76 172 q 158 639 76 543 q 400 735 240 735 m 396 635 q 257 580 306 635 q 201 415 208 525 l 563 415 q 521 580 563 525 q 396 635 479 635 m 392 997 q 429 990 413 997 q 456 967 446 982 l 535 844 q 543 821 543 832 q 510 800 543 800 l 507 800 q 482 804 493 800 q 461 818 471 808 l 374 921 l 289 818 q 268 804 279 808 q 242 800 257 800 l 239 800 q 207 819 207 800 q 215 844 207 831 l 293 967 q 320 990 304 982 q 357 997 336 997 l 392 997 z "},"ề":{"ha":749,"x_min":76,"x_max":686,"o":"m 400 735 q 615 642 543 735 q 686 372 686 550 q 669 338 686 360 q 640 315 653 315 l 201 315 q 261 146 210 200 q 415 92 313 92 q 557 121 506 92 q 618 150 608 150 q 650 121 633 150 q 667 81 667 92 q 633 43 667 64 q 543 7 600 22 q 417 -8 486 -8 q 160 82 244 -8 q 76 358 76 172 q 158 639 76 543 q 400 735 240 735 m 396 635 q 257 580 306 635 q 201 415 208 525 l 563 415 q 521 580 563 525 q 396 635 479 635 m 397 997 q 426 989 414 997 q 447 967 439 981 l 519 844 q 528 821 528 832 q 494 800 528 800 l 492 800 q 465 804 478 800 q 446 818 451 808 l 379 921 l 294 818 q 274 804 285 808 q 247 800 263 800 l 244 800 q 213 819 213 800 q 221 844 213 831 l 299 967 q 326 990 310 982 q 363 997 342 997 l 397 997 m 474 1196 q 528 1188 507 1196 q 560 1160 549 1179 q 624 1046 607 1076 q 640 1006 640 1015 q 608 992 640 992 q 567 998 586 992 q 538 1017 549 1004 q 451 1115 479 1083 q 415 1158 424 1146 q 407 1178 407 1171 q 474 1196 407 1196 z "},"ể":{"ha":749,"x_min":76,"x_max":707,"o":"m 400 735 q 615 642 543 735 q 686 372 686 550 q 669 338 686 360 q 640 315 653 315 l 201 315 q 261 146 210 200 q 415 92 313 92 q 557 121 506 92 q 618 150 608 150 q 650 121 633 150 q 667 81 667 92 q 633 43 667 64 q 543 7 600 22 q 417 -8 486 -8 q 160 82 244 -8 q 76 358 76 172 q 158 639 76 543 q 400 735 240 735 m 396 635 q 257 580 306 635 q 201 415 208 525 l 563 415 q 521 580 563 525 q 396 635 479 635 m 397 997 q 426 989 414 997 q 447 967 439 981 l 519 844 q 528 821 528 832 q 494 800 528 800 l 492 800 q 465 804 478 800 q 446 818 451 808 l 379 921 l 294 818 q 274 804 285 808 q 247 800 263 800 l 244 800 q 213 819 213 800 q 221 844 213 831 l 299 967 q 326 990 310 982 q 363 997 342 997 l 397 997 m 621 1113 q 569 1150 621 1150 q 524 1141 538 1150 q 506 1132 511 1132 q 485 1150 497 1132 q 472 1178 472 1168 q 508 1206 472 1192 q 581 1221 544 1221 q 661 1200 615 1221 q 707 1122 707 1179 q 679 1040 707 1076 q 620 983 651 1004 q 581 961 589 961 q 553 968 571 961 q 535 985 535 975 q 578 1038 535 1015 q 621 1113 621 1060 z "},"ễ":{"ha":749,"x_min":76,"x_max":686,"o":"m 400 735 q 615 642 543 735 q 686 372 686 550 q 669 338 686 360 q 640 315 653 315 l 201 315 q 261 146 210 200 q 415 92 313 92 q 557 121 506 92 q 618 150 608 150 q 650 121 633 150 q 667 81 667 92 q 633 43 667 64 q 543 7 600 22 q 417 -8 486 -8 q 160 82 244 -8 q 76 358 76 172 q 158 639 76 543 q 400 735 240 735 m 396 635 q 257 580 306 635 q 201 415 208 525 l 563 415 q 521 580 563 525 q 396 635 479 635 m 392 997 q 429 990 413 997 q 456 967 446 982 l 535 844 q 543 821 543 832 q 510 800 543 800 l 507 800 q 482 804 493 800 q 461 818 471 808 l 374 921 l 289 818 q 268 804 279 808 q 242 800 257 800 l 239 800 q 207 819 207 800 q 215 844 207 831 l 293 967 q 320 990 304 982 q 357 997 336 997 l 392 997 m 271 1222 q 386 1192 326 1222 q 490 1163 446 1163 q 519 1172 507 1163 q 546 1203 532 1181 q 564 1222 556 1218 q 583 1219 572 1225 l 593 1215 q 608 1202 606 1210 q 603 1179 610 1194 q 553 1106 582 1128 q 488 1085 525 1085 q 369 1115 429 1085 q 264 1144 308 1144 q 237 1135 249 1144 q 211 1103 225 1125 q 194 1084 201 1088 q 175 1086 188 1081 l 163 1092 q 150 1105 151 1097 q 154 1126 149 1113 q 203 1201 175 1179 q 271 1222 232 1222 z "},"ë":{"ha":749,"x_min":76,"x_max":686,"o":"m 400 735 q 615 642 543 735 q 686 372 686 550 q 669 338 686 360 q 640 315 653 315 l 201 315 q 261 146 210 200 q 415 92 313 92 q 557 121 506 92 q 618 150 608 150 q 650 121 633 150 q 667 81 667 92 q 633 43 667 64 q 543 7 600 22 q 417 -8 486 -8 q 160 82 244 -8 q 76 358 76 172 q 158 639 76 543 q 400 735 240 735 m 396 635 q 257 580 306 635 q 201 415 208 525 l 563 415 q 521 580 563 525 q 396 635 479 635 m 478 975 q 533 944 533 975 l 533 874 q 472 843 533 843 q 417 874 417 843 l 417 944 q 478 975 417 975 m 278 975 q 333 944 333 975 l 333 874 q 272 843 333 843 q 217 874 217 843 l 217 944 q 278 975 217 975 z "},"ė":{"ha":749,"x_min":76,"x_max":686,"o":"m 400 735 q 615 642 543 735 q 686 372 686 550 q 669 338 686 360 q 640 315 653 315 l 201 315 q 261 146 210 200 q 415 92 313 92 q 557 121 506 92 q 618 150 608 150 q 650 121 633 150 q 667 81 667 92 q 633 43 667 64 q 543 7 600 22 q 417 -8 486 -8 q 160 82 244 -8 q 76 358 76 172 q 158 639 76 543 q 400 735 240 735 m 396 635 q 257 580 306 635 q 201 415 208 525 l 563 415 q 521 580 563 525 q 396 635 479 635 m 378 975 q 433 944 433 975 l 433 874 q 372 843 433 843 q 317 874 317 843 l 317 944 q 378 975 317 975 z "},"ẹ":{"ha":749,"x_min":76,"x_max":686,"o":"m 400 735 q 615 642 543 735 q 686 372 686 550 q 669 338 686 360 q 640 315 653 315 l 201 315 q 261 146 210 200 q 415 92 313 92 q 557 121 506 92 q 618 150 608 150 q 650 121 633 150 q 667 81 667 92 q 633 43 667 64 q 543 7 600 22 q 417 -8 486 -8 q 160 82 244 -8 q 76 358 76 172 q 158 639 76 543 q 400 735 240 735 m 396 635 q 257 580 306 635 q 201 415 208 525 l 563 415 q 521 580 563 525 q 396 635 479 635 z "},"è":{"ha":749,"x_min":76,"x_max":686,"o":"m 400 735 q 615 642 543 735 q 686 372 686 550 q 669 338 686 360 q 640 315 653 315 l 201 315 q 261 146 210 200 q 415 92 313 92 q 557 121 506 92 q 618 150 608 150 q 650 121 633 150 q 667 81 667 92 q 633 43 667 64 q 543 7 600 22 q 417 -8 486 -8 q 160 82 244 -8 q 76 358 76 172 q 158 639 76 543 q 400 735 240 735 m 396 635 q 257 580 306 635 q 201 415 208 525 l 563 415 q 521 580 563 525 q 396 635 479 635 m 278 1017 q 332 1008 311 1017 q 364 981 353 1000 q 428 867 411 897 q 444 826 444 836 q 413 813 444 813 q 372 819 390 813 q 342 838 353 825 q 256 935 283 904 q 219 979 228 967 q 211 999 211 992 q 278 1017 211 1017 z "},"ẻ":{"ha":749,"x_min":76,"x_max":686,"o":"m 400 735 q 615 642 543 735 q 686 372 686 550 q 669 338 686 360 q 640 315 653 315 l 201 315 q 261 146 210 200 q 415 92 313 92 q 557 121 506 92 q 618 150 608 150 q 650 121 633 150 q 667 81 667 92 q 633 43 667 64 q 543 7 600 22 q 417 -8 486 -8 q 160 82 244 -8 q 76 358 76 172 q 158 639 76 543 q 400 735 240 735 m 396 635 q 257 580 306 635 q 201 415 208 525 l 563 415 q 521 580 563 525 q 396 635 479 635 m 425 933 q 374 971 425 971 q 328 962 342 971 q 310 953 315 953 q 289 971 301 953 q 276 999 276 989 q 313 1027 276 1013 q 385 1042 349 1042 q 465 1021 419 1042 q 511 943 511 1000 q 483 861 511 897 q 424 803 456 825 q 385 782 393 782 q 357 789 375 782 q 339 806 339 796 q 382 858 339 836 q 425 933 425 881 z "},"ē":{"ha":749,"x_min":76,"x_max":686,"o":"m 400 735 q 615 642 543 735 q 686 372 686 550 q 669 338 686 360 q 640 315 653 315 l 201 315 q 261 146 210 200 q 415 92 313 92 q 557 121 506 92 q 618 150 608 150 q 650 121 633 150 q 667 81 667 92 q 633 43 667 64 q 543 7 600 22 q 417 -8 486 -8 q 160 82 244 -8 q 76 358 76 172 q 158 639 76 543 q 400 735 240 735 m 396 635 q 257 580 306 635 q 201 415 208 525 l 563 415 q 521 580 563 525 q 396 635 479 635 m 531 947 q 558 906 558 947 l 558 892 q 531 850 558 850 l 221 850 q 193 892 193 850 l 193 906 q 221 947 193 947 l 531 947 z "},"ę":{"ha":749,"x_min":76,"x_max":769,"o":"m 400 735 q 615 642 543 735 q 686 372 686 550 q 669 338 686 360 q 640 315 653 315 l 201 315 q 261 146 210 200 q 415 92 313 92 q 557 121 506 92 q 618 150 608 150 q 650 121 633 150 q 667 81 667 92 q 633 43 667 64 q 543 7 600 22 q 417 -8 486 -8 q 160 82 244 -8 q 76 358 76 172 q 158 639 76 543 q 400 735 240 735 m 396 635 q 257 580 306 635 q 201 415 208 525 l 563 415 q 521 580 563 525 q 396 635 479 635 m 576 33 q 601 13 601 33 q 593 -25 601 -3 q 585 -72 585 -47 q 616 -133 585 -122 q 671 -143 647 -143 q 706 -136 686 -143 q 743 -129 726 -129 q 769 -164 769 -129 q 739 -226 769 -211 q 656 -240 708 -240 q 546 -213 581 -240 q 501 -153 511 -186 q 492 -99 492 -119 q 506 -18 492 -69 q 576 33 519 33 z "},"ẽ":{"ha":749,"x_min":76,"x_max":686,"o":"m 400 735 q 615 642 543 735 q 686 372 686 550 q 669 338 686 360 q 640 315 653 315 l 201 315 q 261 146 210 200 q 415 92 313 92 q 557 121 506 92 q 618 150 608 150 q 650 121 633 150 q 667 81 667 92 q 633 43 667 64 q 543 7 600 22 q 417 -8 486 -8 q 160 82 244 -8 q 76 358 76 172 q 158 639 76 543 q 400 735 240 735 m 396 635 q 257 580 306 635 q 201 415 208 525 l 563 415 q 521 580 563 525 q 396 635 479 635 z "},"f":{"ha":451,"x_min":67,"x_max":431,"o":"m 329 1050 q 394 1043 357 1050 q 431 1008 431 1036 q 424 972 431 1000 q 401 943 417 943 q 382 947 392 943 q 342 950 372 950 q 289 933 311 950 q 267 847 267 917 l 267 726 l 388 726 q 415 685 415 726 l 415 668 q 388 626 415 626 l 267 626 l 267 28 q 211 -3 267 -3 l 206 -3 q 150 28 150 -3 l 150 626 l 94 626 q 67 668 67 626 l 67 685 q 94 726 67 726 l 150 726 l 150 858 q 214 1016 150 982 q 329 1050 278 1050 z "},"g":{"ha":758,"x_min":64,"x_max":731,"o":"m 368 735 q 450 726 413 735 l 703 726 q 731 685 731 726 l 731 668 q 703 626 731 626 q 647 627 669 626 q 606 631 625 628 l 604 628 q 640 508 640 576 q 571 347 640 413 q 367 281 501 281 q 269 257 304 278 q 235 185 235 236 q 305 105 235 118 q 458 82 375 92 q 603 42 538 72 q 668 -85 668 11 q 588 -240 668 -185 q 351 -294 508 -294 q 145 -256 226 -294 q 64 -122 64 -217 q 101 -15 64 -58 q 190 51 138 29 l 192 54 q 151 101 167 74 q 136 168 136 128 q 214 313 136 258 q 124 394 154 342 q 94 508 94 446 q 164 669 94 603 q 368 735 233 735 m 260 13 q 195 -29 222 -3 q 168 -100 168 -56 q 234 -182 168 -164 q 367 -200 300 -200 q 557 -97 557 -200 q 504 -28 557 -44 q 381 -8 451 -12 q 260 13 311 -3 m 367 642 q 249 613 297 642 q 201 507 201 583 q 249 402 201 431 q 367 374 297 374 q 485 402 436 374 q 533 507 533 431 q 485 613 533 583 q 367 642 436 642 z "},"ğ":{"ha":758,"x_min":64,"x_max":731,"o":"m 368 735 q 450 726 413 735 l 703 726 q 731 685 731 726 l 731 668 q 703 626 731 626 q 647 627 669 626 q 606 631 625 628 l 604 628 q 640 508 640 576 q 571 347 640 413 q 367 281 501 281 q 269 257 304 278 q 235 185 235 236 q 305 105 235 118 q 458 82 375 92 q 603 42 538 72 q 668 -85 668 11 q 588 -240 668 -185 q 351 -294 508 -294 q 145 -256 226 -294 q 64 -122 64 -217 q 101 -15 64 -58 q 190 51 138 29 l 192 54 q 151 101 167 74 q 136 168 136 128 q 214 313 136 258 q 124 394 154 342 q 94 508 94 446 q 164 669 94 603 q 368 735 233 735 m 260 13 q 195 -29 222 -3 q 168 -100 168 -56 q 234 -182 168 -164 q 367 -200 300 -200 q 557 -97 557 -200 q 504 -28 557 -44 q 381 -8 451 -12 q 260 13 311 -3 m 367 642 q 249 613 297 642 q 201 507 201 583 q 249 402 201 431 q 367 374 297 374 q 485 402 436 374 q 533 507 533 431 q 485 613 533 583 q 367 642 436 642 m 560 993 q 581 972 581 993 q 517 852 581 892 q 381 813 454 813 q 242 852 306 813 q 179 972 179 892 q 200 993 179 993 q 220 984 218 993 q 231 958 222 975 q 288 917 246 929 q 381 904 329 904 q 473 917 432 904 q 529 958 514 929 q 540 984 538 975 q 560 993 542 993 z "},"ĝ":{"ha":758,"x_min":64,"x_max":731,"o":"m 368 735 q 450 726 413 735 l 703 726 q 731 685 731 726 l 731 668 q 703 626 731 626 q 647 627 669 626 q 606 631 625 628 l 604 628 q 640 508 640 576 q 571 347 640 413 q 367 281 501 281 q 269 257 304 278 q 235 185 235 236 q 305 105 235 118 q 458 82 375 92 q 603 42 538 72 q 668 -85 668 11 q 588 -240 668 -185 q 351 -294 508 -294 q 145 -256 226 -294 q 64 -122 64 -217 q 101 -15 64 -58 q 190 51 138 29 l 192 54 q 151 101 167 74 q 136 168 136 128 q 214 313 136 258 q 124 394 154 342 q 94 508 94 446 q 164 669 94 603 q 368 735 233 735 m 260 13 q 195 -29 222 -3 q 168 -100 168 -56 q 234 -182 168 -164 q 367 -200 300 -200 q 557 -97 557 -200 q 504 -28 557 -44 q 381 -8 451 -12 q 260 13 311 -3 m 367 642 q 249 613 297 642 q 201 507 201 583 q 249 402 201 431 q 367 374 297 374 q 485 402 436 374 q 533 507 533 431 q 485 613 533 583 q 367 642 436 642 m 396 997 q 433 990 417 997 q 460 967 450 982 l 539 844 q 547 821 547 832 q 514 800 547 800 l 511 800 q 486 804 497 800 q 465 818 475 808 l 378 921 l 293 818 q 272 804 283 808 q 246 800 261 800 l 243 800 q 211 819 211 800 q 219 844 211 831 l 297 967 q 324 990 308 982 q 361 997 340 997 l 396 997 z "},"ģ":{"ha":758,"x_min":64,"x_max":731,"o":"m 368 735 q 450 726 413 735 l 703 726 q 731 685 731 726 l 731 668 q 703 626 731 626 q 647 627 669 626 q 606 631 625 628 l 604 628 q 640 508 640 576 q 571 347 640 413 q 367 281 501 281 q 269 257 304 278 q 235 185 235 236 q 305 105 235 118 q 458 82 375 92 q 603 42 538 72 q 668 -85 668 11 q 588 -240 668 -185 q 351 -294 508 -294 q 145 -256 226 -294 q 64 -122 64 -217 q 101 -15 64 -58 q 190 51 138 29 l 192 54 q 151 101 167 74 q 136 168 136 128 q 214 313 136 258 q 124 394 154 342 q 94 508 94 446 q 164 669 94 603 q 368 735 233 735 m 260 13 q 195 -29 222 -3 q 168 -100 168 -56 q 234 -182 168 -164 q 367 -200 300 -200 q 557 -97 557 -200 q 504 -28 557 -44 q 381 -8 451 -12 q 260 13 311 -3 m 367 642 q 249 613 297 642 q 201 507 201 583 q 249 402 201 431 q 367 374 297 374 q 485 402 436 374 q 533 507 533 431 q 485 613 533 583 q 367 642 436 642 z "},"ġ":{"ha":758,"x_min":64,"x_max":731,"o":"m 368 735 q 450 726 413 735 l 703 726 q 731 685 731 726 l 731 668 q 703 626 731 626 q 647 627 669 626 q 606 631 625 628 l 604 628 q 640 508 640 576 q 571 347 640 413 q 367 281 501 281 q 269 257 304 278 q 235 185 235 236 q 305 105 235 118 q 458 82 375 92 q 603 42 538 72 q 668 -85 668 11 q 588 -240 668 -185 q 351 -294 508 -294 q 145 -256 226 -294 q 64 -122 64 -217 q 101 -15 64 -58 q 190 51 138 29 l 192 54 q 151 101 167 74 q 136 168 136 128 q 214 313 136 258 q 124 394 154 342 q 94 508 94 446 q 164 669 94 603 q 368 735 233 735 m 260 13 q 195 -29 222 -3 q 168 -100 168 -56 q 234 -182 168 -164 q 367 -200 300 -200 q 557 -97 557 -200 q 504 -28 557 -44 q 381 -8 451 -12 q 260 13 311 -3 m 367 642 q 249 613 297 642 q 201 507 201 583 q 249 402 201 431 q 367 374 297 374 q 485 402 436 374 q 533 507 533 431 q 485 613 533 583 q 367 642 436 642 m 382 975 q 438 944 438 975 l 438 874 q 376 843 438 843 q 321 874 321 843 l 321 944 q 382 975 321 975 z "},"h":{"ha":785,"x_min":128,"x_max":678,"o":"m 189 1044 q 244 1014 244 1044 l 244 639 q 335 705 281 675 q 457 735 390 735 q 553 718 501 735 q 641 653 604 701 q 678 510 678 604 l 678 28 q 622 -3 678 -3 l 617 -3 q 561 28 561 -3 l 561 499 q 526 597 561 560 q 419 633 490 633 q 328 609 367 633 q 267 560 289 585 q 244 536 244 536 l 244 28 q 189 -3 244 -3 l 183 -3 q 128 28 128 -3 l 128 1014 q 183 1044 128 1044 l 189 1044 z "},"ħ":{"ha":785,"x_min":49,"x_max":678,"o":"m 189 1044 q 244 1014 244 1044 l 244 639 q 335 705 281 675 q 457 735 390 735 q 553 718 501 735 q 641 653 604 701 q 678 510 678 604 l 678 28 q 622 -3 678 -3 l 617 -3 q 561 28 561 -3 l 561 499 q 526 597 561 560 q 419 633 490 633 q 328 609 367 633 q 267 560 289 585 q 244 536 244 536 l 244 28 q 189 -3 244 -3 l 183 -3 q 128 28 128 -3 l 128 1014 q 183 1044 128 1044 l 189 1044 z "},"ĥ":{"ha":785,"x_min":18,"x_max":678,"o":"m 189 1044 q 244 1014 244 1044 l 244 639 q 335 705 281 675 q 457 735 390 735 q 553 718 501 735 q 641 653 604 701 q 678 510 678 604 l 678 28 q 622 -3 678 -3 l 617 -3 q 561 28 561 -3 l 561 499 q 526 597 561 560 q 419 633 490 633 q 328 609 367 633 q 267 560 289 585 q 244 536 244 536 l 244 28 q 189 -3 244 -3 l 183 -3 q 128 28 128 -3 l 128 1014 q 183 1044 128 1044 l 189 1044 m 203 1285 q 240 1277 224 1285 q 267 1254 257 1269 l 346 1132 q 354 1108 354 1119 q 321 1088 354 1088 l 318 1088 q 293 1092 304 1088 q 272 1106 282 1096 l 185 1208 l 100 1106 q 79 1092 90 1096 q 53 1088 68 1088 l 50 1088 q 18 1107 18 1088 q 26 1132 18 1118 l 104 1254 q 131 1277 115 1269 q 168 1285 147 1285 l 203 1285 z "},"ḥ":{"ha":785,"x_min":128,"x_max":678,"o":"m 189 1044 q 244 1014 244 1044 l 244 639 q 335 705 281 675 q 457 735 390 735 q 553 718 501 735 q 641 653 604 701 q 678 510 678 604 l 678 28 q 622 -3 678 -3 l 617 -3 q 561 28 561 -3 l 561 499 q 526 597 561 560 q 419 633 490 633 q 328 609 367 633 q 267 560 289 585 q 244 536 244 536 l 244 28 q 189 -3 244 -3 l 183 -3 q 128 28 128 -3 l 128 1014 q 183 1044 128 1044 l 189 1044 z "},"i":{"ha":368,"x_min":121,"x_max":249,"o":"m 188 729 q 243 699 243 729 l 243 28 q 188 -3 243 -3 l 182 -3 q 126 28 126 -3 l 126 699 q 182 729 126 729 l 188 729 m 193 1044 q 249 1014 249 1044 l 249 932 q 193 901 249 901 l 176 901 q 121 932 121 901 l 121 1014 q 176 1044 121 1044 l 193 1044 z "},"ı":{"ha":368,"x_min":126,"x_max":243,"o":"m 188 729 q 243 699 243 729 l 243 28 q 188 -3 243 -3 l 182 -3 q 126 28 126 -3 l 126 699 q 182 729 126 729 l 188 729 z "},"í":{"ha":368,"x_min":126,"x_max":363,"o":"m 188 729 q 243 699 243 729 l 243 28 q 188 -3 243 -3 l 182 -3 q 126 28 126 -3 l 126 699 q 182 729 126 729 l 188 729 m 296 1017 q 363 999 363 1017 q 354 979 363 992 q 318 935 346 967 q 232 838 290 904 q 202 819 221 825 q 161 813 183 813 q 129 826 129 813 q 146 867 129 836 q 210 981 163 897 q 242 1008 221 1000 q 296 1017 263 1017 z "},"ĭ":{"ha":368,"x_min":-17,"x_max":385,"o":"m 188 729 q 243 699 243 729 l 243 28 q 188 -3 243 -3 l 182 -3 q 126 28 126 -3 l 126 699 q 182 729 126 729 l 188 729 m 364 993 q 385 972 385 993 q 322 852 385 892 q 185 813 258 813 q 47 852 110 813 q -17 972 -17 892 q 4 993 -17 993 q 24 984 22 993 q 35 958 26 975 q 92 917 50 929 q 185 904 133 904 q 277 917 236 904 q 333 958 318 929 q 344 984 342 975 q 364 993 346 993 z "},"î":{"ha":368,"x_min":17,"x_max":353,"o":"m 188 729 q 243 699 243 729 l 243 28 q 188 -3 243 -3 l 182 -3 q 126 28 126 -3 l 126 699 q 182 729 126 729 l 188 729 m 201 997 q 239 990 222 997 q 265 967 256 982 l 344 844 q 353 821 353 832 q 319 800 353 800 l 317 800 q 292 804 303 800 q 271 818 281 808 l 183 921 l 99 818 q 78 804 89 808 q 51 800 67 800 l 49 800 q 17 819 17 800 q 25 844 17 831 l 103 967 q 130 990 114 982 q 167 997 146 997 l 201 997 z "},"ï":{"ha":368,"x_min":26,"x_max":343,"o":"m 188 729 q 243 699 243 729 l 243 28 q 188 -3 243 -3 l 182 -3 q 126 28 126 -3 l 126 699 q 182 729 126 729 l 188 729 m 288 975 q 343 944 343 975 l 343 874 q 282 843 343 843 q 226 874 226 843 l 226 944 q 288 975 226 975 m 88 975 q 143 944 143 975 l 143 874 q 82 843 143 843 q 26 874 26 843 l 26 944 q 88 975 26 975 z "},"ị":{"ha":368,"x_min":121,"x_max":249,"o":"m 188 729 q 243 699 243 729 l 243 28 q 188 -3 243 -3 l 182 -3 q 126 28 126 -3 l 126 699 q 182 729 126 729 l 188 729 m 193 1044 q 249 1014 249 1044 l 249 932 q 193 901 249 901 l 176 901 q 121 932 121 901 l 121 1014 q 176 1044 121 1044 l 193 1044 z "},"ì":{"ha":368,"x_min":21,"x_max":254,"o":"m 188 729 q 243 699 243 729 l 243 28 q 188 -3 243 -3 l 182 -3 q 126 28 126 -3 l 126 699 q 182 729 126 729 l 188 729 m 88 1017 q 142 1008 121 1017 q 174 981 163 1000 q 238 867 221 897 q 254 826 254 836 q 222 813 254 813 q 181 819 200 813 q 151 838 163 825 q 65 935 93 904 q 29 979 38 967 q 21 999 21 992 q 88 1017 21 1017 z "},"ỉ":{"ha":368,"x_min":86,"x_max":321,"o":"m 188 729 q 243 699 243 729 l 243 28 q 188 -3 243 -3 l 182 -3 q 126 28 126 -3 l 126 699 q 182 729 126 729 l 188 729 m 235 933 q 183 971 235 971 q 138 962 151 971 q 119 953 125 953 q 99 971 111 953 q 86 999 86 989 q 122 1027 86 1013 q 194 1042 158 1042 q 275 1021 229 1042 q 321 943 321 1000 q 293 861 321 897 q 234 803 265 825 q 194 782 203 782 q 167 789 185 782 q 149 806 149 796 q 192 858 149 836 q 235 933 235 881 z "},"ĳ":{"ha":751,"x_min":121,"x_max":631,"o":"m 188 729 q 243 699 243 729 l 243 28 q 188 -3 243 -3 l 182 -3 q 126 28 126 -3 l 126 699 q 182 729 126 729 l 188 729 m 193 1044 q 249 1014 249 1044 l 249 932 q 193 901 249 901 l 176 901 q 121 932 121 901 l 121 1014 q 176 1044 121 1044 l 193 1044 m 569 729 q 625 699 625 729 l 625 -103 q 562 -259 625 -224 q 446 -294 499 -294 q 381 -287 418 -294 q 344 -253 344 -281 q 352 -216 344 -244 q 374 -187 360 -187 q 393 -191 383 -187 q 433 -194 403 -194 q 486 -174 464 -194 q 508 -92 508 -154 l 508 699 q 564 729 508 729 l 569 729 m 575 1044 q 631 1014 631 1044 l 631 932 q 575 901 631 901 l 558 901 q 503 932 503 901 l 503 1014 q 558 1044 503 1044 l 575 1044 z "},"ī":{"ha":368,"x_min":1,"x_max":367,"o":"m 188 729 q 243 699 243 729 l 243 28 q 188 -3 243 -3 l 182 -3 q 126 28 126 -3 l 126 699 q 182 729 126 729 l 188 729 m 339 947 q 367 906 367 947 l 367 892 q 339 850 367 850 l 29 850 q 1 892 1 850 l 1 906 q 29 947 1 947 l 339 947 z "},"į":{"ha":368,"x_min":110,"x_max":388,"o":"m 188 729 q 243 699 243 729 l 243 28 q 188 -3 243 -3 l 182 -3 q 126 28 126 -3 l 126 699 q 182 729 126 729 l 188 729 m 193 1044 q 249 1014 249 1044 l 249 932 q 193 901 249 901 l 176 901 q 121 932 121 901 l 121 1014 q 176 1044 121 1044 l 193 1044 m 194 19 q 219 -1 219 19 q 211 -39 219 -17 q 203 -86 203 -61 q 234 -147 203 -136 q 289 -157 265 -157 q 324 -150 304 -157 q 361 -143 344 -143 q 388 -178 388 -143 q 357 -240 388 -225 q 274 -254 326 -254 q 164 -227 199 -254 q 119 -167 129 -200 q 110 -112 110 -133 q 124 -32 110 -83 q 194 19 138 19 z "},"ĩ":{"ha":368,"x_min":-33,"x_max":422,"o":"m 188 729 q 243 699 243 729 l 243 28 q 188 -3 243 -3 l 182 -3 q 126 28 126 -3 l 126 699 q 182 729 126 729 l 188 729 z "},"j":{"ha":383,"x_min":-24,"x_max":263,"o":"m 201 729 q 257 699 257 729 l 257 -103 q 194 -259 257 -224 q 78 -294 131 -294 q 13 -287 50 -294 q -24 -253 -24 -281 q -16 -216 -24 -244 q 6 -187 -8 -187 q 25 -191 15 -187 q 65 -194 35 -194 q 118 -174 96 -194 q 140 -92 140 -154 l 140 699 q 196 729 140 729 l 201 729 m 207 1044 q 263 1014 263 1044 l 263 932 q 207 901 263 901 l 190 901 q 135 932 135 901 l 135 1014 q 190 1044 135 1044 l 207 1044 z "},"ȷ":{"ha":383,"x_min":-24,"x_max":257,"o":"m 201 729 q 257 699 257 729 l 257 -103 q 194 -259 257 -224 q 78 -294 131 -294 q 13 -287 50 -294 q -24 -253 -24 -281 q -16 -216 -24 -244 q 6 -187 -8 -187 q 25 -191 15 -187 q 65 -194 35 -194 q 118 -174 96 -194 q 140 -92 140 -154 l 140 699 q 196 729 140 729 l 201 729 z "},"ĵ":{"ha":383,"x_min":-24,"x_max":367,"o":"m 201 729 q 257 699 257 729 l 257 -103 q 194 -259 257 -224 q 78 -294 131 -294 q 13 -287 50 -294 q -24 -253 -24 -281 q -16 -216 -24 -244 q 6 -187 -8 -187 q 25 -191 15 -187 q 65 -194 35 -194 q 118 -174 96 -194 q 140 -92 140 -154 l 140 699 q 196 729 140 729 l 201 729 m 215 997 q 253 990 236 997 q 279 967 269 982 l 358 844 q 367 821 367 832 q 333 800 367 800 l 331 800 q 306 804 317 800 q 285 818 294 808 l 197 921 l 113 818 q 92 804 103 808 q 65 800 81 800 l 63 800 q 31 819 31 800 q 39 844 31 831 l 117 967 q 144 990 128 982 q 181 997 160 997 l 215 997 z "},"k":{"ha":724,"x_min":131,"x_max":672,"o":"m 192 1044 q 247 1014 247 1044 l 247 393 l 253 393 l 518 710 q 549 725 528 721 q 592 729 569 729 l 597 729 q 646 711 646 729 q 632 683 646 699 l 374 378 l 660 39 q 672 17 672 25 q 611 -3 672 -3 l 606 -3 q 563 0 583 -3 q 531 15 542 3 l 253 344 l 247 344 l 247 28 q 192 -3 247 -3 l 186 -3 q 131 28 131 -3 l 131 1014 q 186 1044 131 1044 l 192 1044 z "},"ķ":{"ha":724,"x_min":131,"x_max":672,"o":"m 192 1044 q 247 1014 247 1044 l 247 393 l 253 393 l 518 710 q 549 725 528 721 q 592 729 569 729 l 597 729 q 646 711 646 729 q 632 683 646 699 l 374 378 l 660 39 q 672 17 672 25 q 611 -3 672 -3 l 606 -3 q 563 0 583 -3 q 531 15 542 3 l 253 344 l 247 344 l 247 28 q 192 -3 247 -3 l 186 -3 q 131 28 131 -3 l 131 1014 q 186 1044 131 1044 l 192 1044 m 368 -71 q 424 -110 424 -71 q 397 -225 424 -176 q 337 -300 371 -274 q 281 -326 303 -326 q 255 -322 269 -326 q 240 -306 240 -318 q 270 -238 240 -282 q 300 -115 300 -194 q 356 -71 300 -71 l 368 -71 z "},"ĸ":{"ha":724,"x_min":131,"x_max":672,"o":"m 192 731 q 247 700 247 731 l 247 393 l 253 393 l 518 710 q 549 725 528 721 q 592 729 569 729 l 597 729 q 646 711 646 729 q 632 683 646 699 l 374 378 l 660 39 q 672 17 672 25 q 611 -3 672 -3 l 606 -3 q 563 0 583 -3 q 531 15 542 3 l 253 344 l 247 344 l 247 28 q 192 -3 247 -3 l 186 -3 q 131 28 131 -3 l 131 700 q 186 731 131 731 l 192 731 z "},"l":{"ha":413,"x_min":114,"x_max":394,"o":"m 175 1044 q 231 1014 231 1044 l 231 194 q 253 112 231 132 q 306 92 275 92 q 346 95 336 92 q 365 99 356 99 q 388 70 381 99 q 394 33 394 42 q 358 -1 394 6 q 293 -8 321 -8 q 178 27 242 -8 q 114 183 114 63 l 114 1014 q 169 1044 114 1044 l 175 1044 z "},"ĺ":{"ha":413,"x_min":114,"x_max":394,"o":"m 175 1044 q 231 1014 231 1044 l 231 194 q 253 112 231 132 q 306 92 275 92 q 346 95 336 92 q 365 99 356 99 q 388 70 381 99 q 394 33 394 42 q 358 -1 394 6 q 293 -8 321 -8 q 178 27 242 -8 q 114 183 114 63 l 114 1014 q 169 1044 114 1044 l 175 1044 m 285 1290 q 351 1272 351 1290 q 343 1253 351 1265 q 307 1209 335 1240 q 221 1111 279 1178 q 191 1092 210 1099 q 150 1086 172 1086 q 118 1100 118 1086 q 135 1140 118 1110 q 199 1254 151 1171 q 231 1282 210 1274 q 285 1290 251 1290 z "},"ľ":{"ha":413,"x_min":114,"x_max":440,"o":"m 175 1044 q 231 1014 231 1044 l 231 194 q 253 112 231 132 q 306 92 275 92 q 346 95 336 92 q 365 99 356 99 q 388 70 381 99 q 394 33 394 42 q 358 -1 394 6 q 293 -8 321 -8 q 178 27 242 -8 q 114 183 114 63 l 114 1014 q 169 1044 114 1044 l 175 1044 m 385 975 q 440 936 440 975 q 402 788 440 842 q 339 733 364 733 q 313 738 328 733 q 299 754 299 742 q 308 817 299 776 q 317 931 317 857 q 372 975 317 975 l 385 975 z "},"ļ":{"ha":413,"x_min":114,"x_max":394,"o":"m 175 1044 q 231 1014 231 1044 l 231 194 q 253 112 231 132 q 306 92 275 92 q 346 95 336 92 q 365 99 356 99 q 388 70 381 99 q 394 33 394 42 q 358 -1 394 6 q 293 -8 321 -8 q 178 27 242 -8 q 114 183 114 63 l 114 1014 q 169 1044 114 1044 l 175 1044 m 254 -71 q 310 -110 310 -71 q 283 -225 310 -176 q 223 -300 257 -274 q 167 -326 189 -326 q 141 -322 156 -326 q 126 -306 126 -318 q 156 -238 126 -282 q 186 -115 186 -194 q 242 -71 186 -71 l 254 -71 z "},"ŀ":{"ha":413,"x_min":114,"x_max":461,"o":"m 175 1044 q 231 1014 231 1044 l 231 194 q 253 112 231 132 q 306 92 275 92 q 346 95 336 92 q 365 99 356 99 q 388 70 381 99 q 394 33 394 42 q 358 -1 394 6 q 293 -8 321 -8 q 178 27 242 -8 q 114 183 114 63 l 114 1014 q 169 1044 114 1044 l 175 1044 m 389 572 q 440 551 419 572 q 461 500 461 531 q 440 449 461 469 q 389 429 419 429 q 338 449 358 429 q 318 500 318 469 q 338 551 318 531 q 389 572 358 572 z "},"ǉ":{"ha":796,"x_min":114,"x_max":675,"o":"m 175 1044 q 231 1014 231 1044 l 231 194 q 253 112 231 132 q 306 92 275 92 q 346 95 336 92 q 365 99 356 99 q 388 70 381 99 q 394 33 394 42 q 358 -1 394 6 q 293 -8 321 -8 q 178 27 242 -8 q 114 183 114 63 l 114 1014 q 169 1044 114 1044 l 175 1044 m 614 729 q 669 699 669 729 l 669 -103 q 606 -259 669 -224 q 490 -294 543 -294 q 426 -287 463 -294 q 389 -253 389 -281 q 397 -216 389 -244 q 418 -187 404 -187 q 438 -191 428 -187 q 478 -194 447 -194 q 531 -174 508 -194 q 553 -92 553 -154 l 553 699 q 608 729 553 729 l 614 729 m 619 1044 q 675 1014 675 1044 l 675 932 q 619 901 675 901 l 603 901 q 547 932 547 901 l 547 1014 q 603 1044 547 1044 l 619 1044 z "},"ł":{"ha":407,"x_min":26,"x_max":392,"o":"m 172 1044 q 228 1014 228 1044 l 228 622 l 286 657 q 300 663 297 663 q 313 643 313 663 l 313 635 q 286 593 313 608 l 228 558 l 228 194 q 250 112 228 132 q 303 92 272 92 q 343 95 333 92 q 363 99 353 99 q 385 70 378 99 q 392 33 392 42 q 355 -1 392 6 q 290 -8 318 -8 q 175 27 239 -8 q 111 183 111 63 l 111 490 l 53 456 q 39 450 46 450 q 26 469 26 450 l 26 478 q 53 519 26 504 l 111 553 l 111 1014 q 167 1044 111 1044 l 172 1044 z "},"m":{"ha":1178,"x_min":101,"x_max":1074,"o":"m 856 735 q 951 718 900 735 q 1038 653 1001 701 q 1074 510 1074 604 l 1074 28 q 1018 -3 1074 -3 l 1013 -3 q 957 28 957 -3 l 957 499 q 924 597 957 560 q 824 633 890 633 q 735 608 774 633 q 672 557 696 583 q 646 526 649 531 l 644 574 q 652 541 650 558 q 654 508 654 524 l 654 28 q 599 -3 654 -3 l 593 -3 q 538 28 538 -3 l 538 499 q 504 597 538 560 q 404 633 471 633 q 315 610 353 633 q 256 562 278 586 q 235 538 235 538 l 235 28 q 179 -3 235 -3 l 174 -3 q 118 28 118 -3 l 118 515 q 110 642 118 600 q 101 690 101 685 q 117 710 101 703 q 149 719 132 717 q 176 722 167 722 q 210 690 201 722 q 225 631 219 658 q 315 702 260 669 q 436 735 369 735 q 547 713 488 735 q 635 619 606 690 q 733 701 675 667 q 856 735 790 735 z "},"n":{"ha":774,"x_min":103,"x_max":669,"o":"m 443 735 q 610 675 550 735 q 669 510 669 615 l 669 28 q 614 -3 669 -3 l 608 -3 q 553 28 553 -3 l 553 499 q 411 633 553 633 q 317 607 364 633 q 236 536 271 581 l 236 28 q 181 -3 236 -3 l 175 -3 q 119 28 119 -3 l 119 515 q 111 642 119 600 q 103 690 103 685 q 118 710 103 703 q 151 719 133 717 q 178 722 169 722 q 211 690 203 722 q 226 631 219 658 q 327 707 269 679 q 443 735 385 735 z "},"ń":{"ha":774,"x_min":103,"x_max":669,"o":"m 443 735 q 610 675 550 735 q 669 510 669 615 l 669 28 q 614 -3 669 -3 l 608 -3 q 553 28 553 -3 l 553 499 q 411 633 553 633 q 317 607 364 633 q 236 536 271 581 l 236 28 q 181 -3 236 -3 l 175 -3 q 119 28 119 -3 l 119 515 q 111 642 119 600 q 103 690 103 685 q 118 710 103 703 q 151 719 133 717 q 178 722 169 722 q 211 690 203 722 q 226 631 219 658 q 327 707 269 679 q 443 735 385 735 m 499 1017 q 565 999 565 1017 q 557 979 565 992 q 521 935 549 967 q 435 838 493 904 q 405 819 424 825 q 364 813 386 813 q 332 826 332 813 q 349 867 332 836 q 413 981 365 897 q 444 1008 424 1000 q 499 1017 465 1017 z "},"ŉ":{"ha":774,"x_min":-19,"x_max":669,"o":"m 443 735 q 610 675 550 735 q 669 510 669 615 l 669 28 q 614 -3 669 -3 l 608 -3 q 553 28 553 -3 l 553 499 q 411 633 553 633 q 317 607 364 633 q 236 536 271 581 l 236 28 q 181 -3 236 -3 l 175 -3 q 119 28 119 -3 l 119 515 q 111 642 119 600 q 103 690 103 685 q 118 710 103 703 q 151 719 133 717 q 178 722 169 722 q 211 690 203 722 q 226 631 219 658 q 327 707 269 679 q 443 735 385 735 z "},"ň":{"ha":774,"x_min":103,"x_max":669,"o":"m 443 735 q 610 675 550 735 q 669 510 669 615 l 669 28 q 614 -3 669 -3 l 608 -3 q 553 28 553 -3 l 553 499 q 411 633 553 633 q 317 607 364 633 q 236 536 271 581 l 236 28 q 181 -3 236 -3 l 175 -3 q 119 28 119 -3 l 119 515 q 111 642 119 600 q 103 690 103 685 q 118 710 103 703 q 151 719 133 717 q 178 722 169 722 q 211 690 203 722 q 226 631 219 658 q 327 707 269 679 q 443 735 385 735 m 522 1006 q 556 985 556 1006 q 547 961 556 974 l 468 839 q 441 816 457 824 q 404 808 425 808 l 369 808 q 332 816 349 808 q 306 839 315 824 l 228 961 q 219 986 219 975 q 251 1006 219 1006 l 254 1006 q 279 1001 268 1006 q 301 988 290 997 l 386 885 l 474 988 q 495 1001 485 997 q 519 1006 506 1006 l 522 1006 z "},"ņ":{"ha":774,"x_min":103,"x_max":669,"o":"m 443 735 q 610 675 550 735 q 669 510 669 615 l 669 28 q 614 -3 669 -3 l 608 -3 q 553 28 553 -3 l 553 499 q 411 633 553 633 q 317 607 364 633 q 236 536 271 581 l 236 28 q 181 -3 236 -3 l 175 -3 q 119 28 119 -3 l 119 515 q 111 642 119 600 q 103 690 103 685 q 118 710 103 703 q 151 719 133 717 q 178 722 169 722 q 211 690 203 722 q 226 631 219 658 q 327 707 269 679 q 443 735 385 735 m 393 -71 q 449 -110 449 -71 q 422 -225 449 -176 q 362 -300 396 -274 q 306 -326 328 -326 q 280 -322 294 -326 q 265 -306 265 -318 q 295 -238 265 -282 q 325 -115 325 -194 q 381 -71 325 -71 l 393 -71 z "},"ṅ":{"ha":774,"x_min":103,"x_max":669,"o":"m 443 735 q 610 675 550 735 q 669 510 669 615 l 669 28 q 614 -3 669 -3 l 608 -3 q 553 28 553 -3 l 553 499 q 411 633 553 633 q 317 607 364 633 q 236 536 271 581 l 236 28 q 181 -3 236 -3 l 175 -3 q 119 28 119 -3 l 119 515 q 111 642 119 600 q 103 690 103 685 q 118 710 103 703 q 151 719 133 717 q 178 722 169 722 q 211 690 203 722 q 226 631 219 658 q 327 707 269 679 q 443 735 385 735 m 390 975 q 446 944 446 975 l 446 874 q 385 843 446 843 q 329 874 329 843 l 329 944 q 390 975 329 975 z "},"ŋ":{"ha":774,"x_min":103,"x_max":669,"o":"m 119 515 q 111 642 119 600 q 103 690 103 685 q 118 710 103 703 q 151 719 133 717 q 178 722 169 722 q 211 690 203 722 q 226 631 219 658 q 327 707 269 679 q 443 735 385 735 q 610 675 550 735 q 669 510 669 615 l 669 -103 q 606 -259 669 -224 q 490 -294 542 -294 q 426 -287 463 -294 q 389 -253 389 -281 q 396 -216 389 -244 q 418 -187 403 -187 q 438 -191 428 -187 q 478 -194 447 -194 q 531 -174 508 -194 q 553 -92 553 -154 l 553 499 q 411 633 553 633 q 317 607 364 633 q 236 536 271 581 l 236 28 q 181 -3 236 -3 l 175 -3 q 119 28 119 -3 l 119 515 z "},"ǌ":{"ha":1157,"x_min":103,"x_max":1036,"o":"m 443 735 q 610 675 550 735 q 669 510 669 615 l 669 28 q 614 -3 669 -3 l 608 -3 q 553 28 553 -3 l 553 499 q 411 633 553 633 q 317 607 364 633 q 236 536 271 581 l 236 28 q 181 -3 236 -3 l 175 -3 q 119 28 119 -3 l 119 515 q 111 642 119 600 q 103 690 103 685 q 118 710 103 703 q 151 719 133 717 q 178 722 169 722 q 211 690 203 722 q 226 631 219 658 q 327 707 269 679 q 443 735 385 735 m 975 729 q 1031 699 1031 729 l 1031 -103 q 967 -259 1031 -224 q 851 -294 904 -294 q 787 -287 824 -294 q 750 -253 750 -281 q 758 -216 750 -244 q 779 -187 765 -187 q 799 -191 789 -187 q 839 -194 808 -194 q 892 -174 869 -194 q 914 -92 914 -154 l 914 699 q 969 729 914 729 l 975 729 m 981 1044 q 1036 1014 1036 1044 l 1036 932 q 981 901 1036 901 l 964 901 q 908 932 908 901 l 908 1014 q 964 1044 908 1044 l 981 1044 z "},"ñ":{"ha":774,"x_min":103,"x_max":669,"o":"m 443 735 q 610 675 550 735 q 669 510 669 615 l 669 28 q 614 -3 669 -3 l 608 -3 q 553 28 553 -3 l 553 499 q 411 633 553 633 q 317 607 364 633 q 236 536 271 581 l 236 28 q 181 -3 236 -3 l 175 -3 q 119 28 119 -3 l 119 515 q 111 642 119 600 q 103 690 103 685 q 118 710 103 703 q 151 719 133 717 q 178 722 169 722 q 211 690 203 722 q 226 631 219 658 q 327 707 269 679 q 443 735 385 735 z "},"o":{"ha":790,"x_min":76,"x_max":714,"o":"m 399 735 q 633 638 551 735 q 714 360 714 542 q 634 85 714 179 q 399 -8 554 -8 q 159 86 242 -8 q 76 360 76 181 q 160 638 76 540 q 399 735 243 735 m 394 635 q 199 363 199 635 q 394 92 199 92 q 593 363 593 92 q 394 635 593 635 z "},"ó":{"ha":790,"x_min":76,"x_max":714,"o":"m 399 735 q 633 638 551 735 q 714 360 714 542 q 634 85 714 179 q 399 -8 554 -8 q 159 86 242 -8 q 76 360 76 181 q 160 638 76 540 q 399 735 243 735 m 394 635 q 199 363 199 635 q 394 92 199 92 q 593 363 593 92 q 394 635 593 635 m 507 1017 q 574 999 574 1017 q 565 979 574 992 q 529 935 557 967 q 443 838 501 904 q 413 819 432 825 q 372 813 394 813 q 340 826 340 813 q 357 867 340 836 q 421 981 374 897 q 453 1008 432 1000 q 507 1017 474 1017 z "},"ŏ":{"ha":790,"x_min":76,"x_max":714,"o":"m 399 735 q 633 638 551 735 q 714 360 714 542 q 634 85 714 179 q 399 -8 554 -8 q 159 86 242 -8 q 76 360 76 181 q 160 638 76 540 q 399 735 243 735 m 394 635 q 199 363 199 635 q 394 92 199 92 q 593 363 593 92 q 394 635 593 635 m 576 993 q 597 972 597 993 q 534 852 597 892 q 397 813 471 813 q 259 852 322 813 q 196 972 196 892 q 217 993 196 993 q 237 984 235 993 q 247 958 239 975 q 304 917 263 929 q 397 904 346 904 q 490 917 449 904 q 546 958 531 929 q 556 984 554 975 q 576 993 558 993 z "},"ô":{"ha":790,"x_min":76,"x_max":714,"o":"m 399 735 q 633 638 551 735 q 714 360 714 542 q 634 85 714 179 q 399 -8 554 -8 q 159 86 242 -8 q 76 360 76 181 q 160 638 76 540 q 399 735 243 735 m 394 635 q 199 363 199 635 q 394 92 199 92 q 593 363 593 92 q 394 635 593 635 m 413 997 q 450 990 433 997 q 476 967 467 982 l 556 844 q 564 821 564 832 q 531 800 564 800 l 528 800 q 503 804 514 800 q 482 818 492 808 l 394 921 l 310 818 q 289 804 300 808 q 263 800 278 800 l 260 800 q 228 819 228 800 q 236 844 228 831 l 314 967 q 341 990 325 982 q 378 997 357 997 l 413 997 z "},"ố":{"ha":790,"x_min":76,"x_max":769,"o":"m 399 735 q 633 638 551 735 q 714 360 714 542 q 634 85 714 179 q 399 -8 554 -8 q 159 86 242 -8 q 76 360 76 181 q 160 638 76 540 q 399 735 243 735 m 394 635 q 199 363 199 635 q 394 92 199 92 q 593 363 593 92 q 394 635 593 635 m 418 997 q 447 989 435 997 q 468 967 460 981 l 540 844 q 549 821 549 832 q 515 800 549 800 l 513 800 q 485 804 499 800 q 467 818 472 808 l 400 921 l 315 818 q 294 804 306 808 q 268 800 283 800 l 265 800 q 233 819 233 800 q 242 844 233 831 l 319 967 q 347 990 331 982 q 383 997 363 997 l 418 997 m 703 1196 q 769 1178 769 1196 q 761 1158 769 1171 q 725 1115 753 1146 q 639 1017 697 1083 q 609 998 628 1004 q 568 992 590 992 q 536 1006 536 992 q 553 1046 536 1015 q 617 1160 569 1076 q 649 1188 628 1179 q 703 1196 669 1196 z "},"ộ":{"ha":790,"x_min":76,"x_max":714,"o":"m 399 735 q 633 638 551 735 q 714 360 714 542 q 634 85 714 179 q 399 -8 554 -8 q 159 86 242 -8 q 76 360 76 181 q 160 638 76 540 q 399 735 243 735 m 394 635 q 199 363 199 635 q 394 92 199 92 q 593 363 593 92 q 394 635 593 635 m 413 997 q 450 990 433 997 q 476 967 467 982 l 556 844 q 564 821 564 832 q 531 800 564 800 l 528 800 q 503 804 514 800 q 482 818 492 808 l 394 921 l 310 818 q 289 804 300 808 q 263 800 278 800 l 260 800 q 228 819 228 800 q 236 844 228 831 l 314 967 q 341 990 325 982 q 378 997 357 997 l 413 997 z "},"ồ":{"ha":790,"x_min":76,"x_max":714,"o":"m 399 735 q 633 638 551 735 q 714 360 714 542 q 634 85 714 179 q 399 -8 554 -8 q 159 86 242 -8 q 76 360 76 181 q 160 638 76 540 q 399 735 243 735 m 394 635 q 199 363 199 635 q 394 92 199 92 q 593 363 593 92 q 394 635 593 635 m 418 997 q 447 989 435 997 q 468 967 460 981 l 540 844 q 549 821 549 832 q 515 800 549 800 l 513 800 q 485 804 499 800 q 467 818 472 808 l 400 921 l 315 818 q 294 804 306 808 q 268 800 283 800 l 265 800 q 233 819 233 800 q 242 844 233 831 l 319 967 q 347 990 331 982 q 383 997 363 997 l 418 997 m 494 1196 q 549 1188 528 1196 q 581 1160 569 1179 q 644 1046 628 1076 q 661 1006 661 1015 q 629 992 661 992 q 588 998 607 992 q 558 1017 569 1004 q 472 1115 500 1083 q 436 1158 444 1146 q 428 1178 428 1171 q 494 1196 428 1196 z "},"ổ":{"ha":790,"x_min":76,"x_max":728,"o":"m 399 735 q 633 638 551 735 q 714 360 714 542 q 634 85 714 179 q 399 -8 554 -8 q 159 86 242 -8 q 76 360 76 181 q 160 638 76 540 q 399 735 243 735 m 394 635 q 199 363 199 635 q 394 92 199 92 q 593 363 593 92 q 394 635 593 635 m 418 997 q 447 989 435 997 q 468 967 460 981 l 540 844 q 549 821 549 832 q 515 800 549 800 l 513 800 q 485 804 499 800 q 467 818 472 808 l 400 921 l 315 818 q 294 804 306 808 q 268 800 283 800 l 265 800 q 233 819 233 800 q 242 844 233 831 l 319 967 q 347 990 331 982 q 383 997 363 997 l 418 997 m 642 1113 q 590 1150 642 1150 q 545 1141 558 1150 q 526 1132 532 1132 q 506 1150 518 1132 q 493 1178 493 1168 q 529 1206 493 1192 q 601 1221 565 1221 q 682 1200 636 1221 q 728 1122 728 1179 q 700 1040 728 1076 q 641 983 672 1004 q 601 961 610 961 q 574 968 592 961 q 556 985 556 975 q 599 1038 556 1015 q 642 1113 642 1060 z "},"ỗ":{"ha":790,"x_min":76,"x_max":714,"o":"m 399 735 q 633 638 551 735 q 714 360 714 542 q 634 85 714 179 q 399 -8 554 -8 q 159 86 242 -8 q 76 360 76 181 q 160 638 76 540 q 399 735 243 735 m 394 635 q 199 363 199 635 q 394 92 199 92 q 593 363 593 92 q 394 635 593 635 m 413 997 q 450 990 433 997 q 476 967 467 982 l 556 844 q 564 821 564 832 q 531 800 564 800 l 528 800 q 503 804 514 800 q 482 818 492 808 l 394 921 l 310 818 q 289 804 300 808 q 263 800 278 800 l 260 800 q 228 819 228 800 q 236 844 228 831 l 314 967 q 341 990 325 982 q 378 997 357 997 l 413 997 m 292 1222 q 407 1192 347 1222 q 511 1163 467 1163 q 540 1172 528 1163 q 567 1203 553 1181 q 585 1222 576 1218 q 604 1219 593 1225 l 614 1215 q 628 1202 626 1210 q 624 1179 631 1194 q 574 1106 603 1128 q 508 1085 546 1085 q 390 1115 450 1085 q 285 1144 329 1144 q 258 1135 269 1144 q 232 1103 246 1125 q 215 1084 222 1088 q 196 1086 208 1081 l 183 1092 q 171 1105 172 1097 q 175 1126 169 1113 q 224 1201 196 1179 q 292 1222 253 1222 z "},"ö":{"ha":790,"x_min":76,"x_max":714,"o":"m 399 735 q 633 638 551 735 q 714 360 714 542 q 634 85 714 179 q 399 -8 554 -8 q 159 86 242 -8 q 76 360 76 181 q 160 638 76 540 q 399 735 243 735 m 394 635 q 199 363 199 635 q 394 92 199 92 q 593 363 593 92 q 394 635 593 635 m 499 975 q 554 944 554 975 l 554 874 q 493 843 554 843 q 438 874 438 843 l 438 944 q 499 975 438 975 m 299 975 q 354 944 354 975 l 354 874 q 293 843 354 843 q 238 874 238 843 l 238 944 q 299 975 238 975 z "},"ọ":{"ha":790,"x_min":76,"x_max":714,"o":"m 399 735 q 633 638 551 735 q 714 360 714 542 q 634 85 714 179 q 399 -8 554 -8 q 159 86 242 -8 q 76 360 76 181 q 160 638 76 540 q 399 735 243 735 m 394 635 q 199 363 199 635 q 394 92 199 92 q 593 363 593 92 q 394 635 593 635 z "},"ò":{"ha":790,"x_min":76,"x_max":714,"o":"m 399 735 q 633 638 551 735 q 714 360 714 542 q 634 85 714 179 q 399 -8 554 -8 q 159 86 242 -8 q 76 360 76 181 q 160 638 76 540 q 399 735 243 735 m 394 635 q 199 363 199 635 q 394 92 199 92 q 593 363 593 92 q 394 635 593 635 m 299 1017 q 353 1008 332 1017 q 385 981 374 1000 q 449 867 432 897 q 465 826 465 836 q 433 813 465 813 q 392 819 411 813 q 363 838 374 825 q 276 935 304 904 q 240 979 249 967 q 232 999 232 992 q 299 1017 232 1017 z "},"ỏ":{"ha":790,"x_min":76,"x_max":714,"o":"m 399 735 q 633 638 551 735 q 714 360 714 542 q 634 85 714 179 q 399 -8 554 -8 q 159 86 242 -8 q 76 360 76 181 q 160 638 76 540 q 399 735 243 735 m 394 635 q 199 363 199 635 q 394 92 199 92 q 593 363 593 92 q 394 635 593 635 m 446 933 q 394 971 446 971 q 349 962 363 971 q 331 953 336 953 q 310 971 322 953 q 297 999 297 989 q 333 1027 297 1013 q 406 1042 369 1042 q 486 1021 440 1042 q 532 943 532 1000 q 504 861 532 897 q 445 803 476 825 q 406 782 414 782 q 378 789 396 782 q 360 806 360 796 q 403 858 360 836 q 446 933 446 881 z "},"ơ":{"ha":790,"x_min":76,"x_max":732,"o":"m 399 735 q 633 638 551 735 q 714 360 714 542 q 634 85 714 179 q 399 -8 554 -8 q 159 86 242 -8 q 76 360 76 181 q 160 638 76 540 q 399 735 243 735 m 394 635 q 199 363 199 635 q 394 92 199 92 q 593 363 593 92 q 394 635 593 635 m 656 878 q 672 883 663 883 q 714 847 696 883 q 732 781 732 811 q 694 690 732 725 q 575 656 656 656 l 522 701 l 571 701 q 631 716 615 701 q 647 747 647 731 q 631 800 650 779 q 610 833 613 821 q 622 856 610 847 l 656 878 z "},"ớ":{"ha":790,"x_min":76,"x_max":732,"o":"m 399 735 q 633 638 551 735 q 714 360 714 542 q 634 85 714 179 q 399 -8 554 -8 q 159 86 242 -8 q 76 360 76 181 q 160 638 76 540 q 399 735 243 735 m 394 635 q 199 363 199 635 q 394 92 199 92 q 593 363 593 92 q 394 635 593 635 m 656 878 q 672 883 663 883 q 714 847 696 883 q 732 781 732 811 q 694 690 732 725 q 575 656 656 656 l 522 701 l 571 701 q 631 716 615 701 q 647 747 647 731 q 631 800 650 779 q 610 833 613 821 q 622 856 610 847 l 656 878 m 492 1019 q 558 1001 558 1019 q 550 982 558 994 q 514 938 542 969 q 428 840 486 907 q 398 822 417 828 q 357 815 379 815 q 325 829 325 815 q 342 869 325 839 q 406 983 358 900 q 438 1011 417 1003 q 492 1019 458 1019 z "},"ợ":{"ha":790,"x_min":76,"x_max":732,"o":"m 399 735 q 633 638 551 735 q 714 360 714 542 q 634 85 714 179 q 399 -8 554 -8 q 159 86 242 -8 q 76 360 76 181 q 160 638 76 540 q 399 735 243 735 m 394 635 q 199 363 199 635 q 394 92 199 92 q 593 363 593 92 q 394 635 593 635 m 656 878 q 672 883 663 883 q 714 847 696 883 q 732 781 732 811 q 694 690 732 725 q 575 656 656 656 l 522 701 l 571 701 q 631 716 615 701 q 647 747 647 731 q 631 800 650 779 q 610 833 613 821 q 622 856 610 847 l 656 878 z "},"ờ":{"ha":790,"x_min":76,"x_max":732,"o":"m 399 735 q 633 638 551 735 q 714 360 714 542 q 634 85 714 179 q 399 -8 554 -8 q 159 86 242 -8 q 76 360 76 181 q 160 638 76 540 q 399 735 243 735 m 394 635 q 199 363 199 635 q 394 92 199 92 q 593 363 593 92 q 394 635 593 635 m 656 878 q 672 883 663 883 q 714 847 696 883 q 732 781 732 811 q 694 690 732 725 q 575 656 656 656 l 522 701 l 571 701 q 631 716 615 701 q 647 747 647 731 q 631 800 650 779 q 610 833 613 821 q 622 856 610 847 l 656 878 m 283 1019 q 338 1011 317 1019 q 369 983 358 1003 q 433 869 417 900 q 450 829 450 839 q 418 815 450 815 q 377 822 396 815 q 347 840 358 828 q 261 938 289 907 q 225 982 233 969 q 217 1001 217 994 q 283 1019 217 1019 z "},"ở":{"ha":790,"x_min":76,"x_max":732,"o":"m 399 735 q 633 638 551 735 q 714 360 714 542 q 634 85 714 179 q 399 -8 554 -8 q 159 86 242 -8 q 76 360 76 181 q 160 638 76 540 q 399 735 243 735 m 394 635 q 199 363 199 635 q 394 92 199 92 q 593 363 593 92 q 394 635 593 635 m 656 878 q 672 883 663 883 q 714 847 696 883 q 732 781 732 811 q 694 690 732 725 q 575 656 656 656 l 522 701 l 571 701 q 631 716 615 701 q 647 747 647 731 q 631 800 650 779 q 610 833 613 821 q 622 856 610 847 l 656 878 m 431 936 q 379 974 431 974 q 334 965 347 974 q 315 956 321 956 q 294 974 307 956 q 282 1001 282 992 q 318 1030 282 1015 q 390 1044 354 1044 q 471 1024 425 1044 q 517 946 517 1003 q 489 864 517 900 q 430 806 461 828 q 390 785 399 785 q 363 792 381 785 q 344 808 344 799 q 388 861 344 839 q 431 936 431 883 z "},"ỡ":{"ha":790,"x_min":76,"x_max":732,"o":"m 399 735 q 633 638 551 735 q 714 360 714 542 q 634 85 714 179 q 399 -8 554 -8 q 159 86 242 -8 q 76 360 76 181 q 160 638 76 540 q 399 735 243 735 m 394 635 q 199 363 199 635 q 394 92 199 92 q 593 363 593 92 q 394 635 593 635 m 656 878 q 672 883 663 883 q 714 847 696 883 q 732 781 732 811 q 694 690 732 725 q 575 656 656 656 l 522 701 l 571 701 q 631 716 615 701 q 647 747 647 731 q 631 800 650 779 q 610 833 613 821 q 622 856 610 847 l 656 878 z "},"ő":{"ha":790,"x_min":76,"x_max":714,"o":"m 399 735 q 633 638 551 735 q 714 360 714 542 q 634 85 714 179 q 399 -8 554 -8 q 159 86 242 -8 q 76 360 76 181 q 160 638 76 540 q 399 735 243 735 m 394 635 q 199 363 199 635 q 394 92 199 92 q 593 363 593 92 q 394 635 593 635 m 611 1017 q 678 999 678 1017 q 669 979 678 992 q 633 935 661 967 q 547 838 606 904 q 517 819 536 825 q 476 813 499 813 q 444 826 444 813 q 461 867 444 836 q 525 981 478 897 q 557 1008 536 1000 q 611 1017 578 1017 m 407 1017 q 474 999 474 1017 q 465 979 474 992 q 429 935 457 967 q 343 838 401 904 q 313 819 332 825 q 272 813 294 813 q 240 826 240 813 q 256 867 240 836 q 321 981 272 897 q 353 1008 332 1000 q 407 1017 374 1017 z "},"ō":{"ha":790,"x_min":76,"x_max":714,"o":"m 399 735 q 633 638 551 735 q 714 360 714 542 q 634 85 714 179 q 399 -8 554 -8 q 159 86 242 -8 q 76 360 76 181 q 160 638 76 540 q 399 735 243 735 m 394 635 q 199 363 199 635 q 394 92 199 92 q 593 363 593 92 q 394 635 593 635 m 551 947 q 579 906 579 947 l 579 892 q 551 850 579 850 l 242 850 q 214 892 214 850 l 214 906 q 242 947 214 947 l 551 947 z "},"ǫ":{"ha":790,"x_min":76,"x_max":714,"o":"m 399 735 q 633 638 551 735 q 714 360 714 542 q 634 85 714 179 q 399 -8 554 -8 q 159 86 242 -8 q 76 360 76 181 q 160 638 76 540 q 399 735 243 735 m 394 635 q 199 363 199 635 q 394 92 199 92 q 593 363 593 92 q 394 635 593 635 m 451 19 q 476 -1 476 19 q 468 -39 476 -17 q 460 -86 460 -61 q 491 -147 460 -136 q 546 -157 522 -157 q 581 -150 561 -157 q 618 -143 601 -143 q 644 -178 644 -143 q 614 -240 644 -225 q 531 -254 583 -254 q 421 -227 456 -254 q 376 -167 386 -200 q 367 -112 367 -133 q 381 -32 367 -83 q 451 19 394 19 z "},"ø":{"ha":790,"x_min":76,"x_max":715,"o":"m 399 733 q 513 717 456 733 q 618 657 571 701 l 665 713 q 685 724 676 724 q 704 713 693 724 q 715 694 715 703 q 707 675 715 686 l 653 613 q 697 508 681 569 q 714 360 714 446 q 665 124 714 203 q 544 19 617 46 q 399 -7 471 -7 q 285 7 343 -7 q 181 61 228 21 l 140 14 q 121 3 129 3 q 100 13 111 3 q 89 32 89 24 q 99 51 89 39 l 142 103 q 94 207 111 144 q 76 360 76 269 q 127 597 76 517 q 252 705 178 676 q 399 733 326 733 m 571 517 l 254 146 q 394 93 301 93 q 540 152 488 93 q 593 363 593 211 q 571 517 593 458 m 394 633 q 249 574 301 633 q 197 363 197 514 q 203 269 197 310 q 222 197 210 228 l 543 569 q 394 633 494 633 z "}}}
